<svg xmlns="http://www.w3.org/2000/svg" version="1.1" xmlns:xlink="http://www.w3.org/1999/xlink" xmlns:svgjs="http://svgjs.dev/svgjs" viewBox="0 0 800 800"><defs><linearGradient x1="50%" y1="0%" x2="50%" y2="100%" id="ccchaos-grad"><stop stop-color="hsl(342, 27%, 87%)" stop-opacity="1" offset="0%"></stop><stop stop-color="hsl(0, 0%, 100%)" stop-opacity="1" offset="100%"></stop></linearGradient></defs><g stroke-width="2" stroke="url(#ccchaos-grad)" fill="none" stroke-linecap="round"><path d="M383.69 110.01C393.18 107.78 402.74 106.23 412.36 105.37 422 104.75 431.73 104.88 441.54 105.78 451.41 106.98 461.4 108.96 471.51 111.69 481.71 114.74 492.07 118.52 502.57 122.97 513.18 127.7 523.95 133.06 534.84 138.97 545.82 145.1 556.89 151.71 567.97 158.76 579.04 165.92 590.02 173.45 600.79 181.29 611.36 189.16 621.54 197.28 631.16 205.62 640.31 213.92 648.68 222.39 656.09 231.02 662.75 239.57 668.25 248.25 672.46 257.05 675.76 265.75 677.69 274.57 678.22 283.51 677.94 292.35 676.4 301.32 673.71 310.42 670.64 319.44 666.81 328.6 662.47 337.91 658.43 347.17 654.42 356.59 650.71 366.18 648.08 375.74 646.23 385.48 645.35 395.39 646.03 405.3 647.88 415.39 650.87 425.66 655.33 435.93 660.54 446.13 666.19 456.23 672.56 466.33 678.76 476.32 684.46 486.16 689.97 495.97 694.41 505.61 697.58 515.02 699.86 524.37 700.55 533.44 699.61 542.19 697.5 550.82 693.77 559.06 688.53 566.85 682.25 574.47 674.68 581.57 666.05 588.1 656.74 594.41 646.68 600.09 636.08 605.1 625.23 609.87 614.13 613.94 602.92 617.31 591.8 620.46 580.76 622.94 569.89 624.77 559.28 626.48 548.9 627.64 538.78 628.31 528.96 629.07 519.37 629.49 509.99 629.67 500.87 630.2 491.89 630.69 483.01 631.24 474.31 632.41 465.63 633.82 456.94 635.55 448.35 638.09 439.68 641.05 430.91 644.46 422.18 648.7 413.3 653.36 404.28 658.36 395.27 664.01 386.1 669.82 376.77 675.63 367.45 681.7 358.2 687.32 349.06 692.31 339.94 697.1 330.94 700.98 322.11 703.84 313.31 706.13 304.71 707.24 296.35 707.13 288.04 706.28 280 704.18 272.27 700.88 264.61 696.85 257.27 691.72 250.29 685.58 243.38 678.86 236.83 671.3 230.66 663.03 224.52 654.4 218.75 645.22 213.34 635.64 207.91 625.9 202.8 615.89 198 605.72 193.1 595.56 188.46 585.33 184.05 575.09 179.46 564.97 175.05 554.87 170.81 544.85 166.31 534.98 161.95 525.18 157.72 515.46 153.22 505.88 148.85 496.35 144.64 486.88 140.2 477.52 135.96 468.17 131.97 458.83 127.85 449.57 124.05 440.28 120.65 430.96 117.26 421.68 114.35 412.34 112 402.96 109.8 393.58 108.25 384.15 107.42 374.66 106.86 365.18 107.07 355.87 108.04 346.76 109.3 337.65 111.3 328.75 113.99 320.07 116.92 311.41 120.49 303 124.61 294.87 128.87 286.76 133.62 278.94 138.77 271.45 143.92 263.99 149.4 256.87 155.15 250.11 160.77 243.38 166.59 237.02 172.57 231.03 178.33 225.07 184.22 219.47 190.22 214.25 195.97 209.02 201.84 204.12 207.81 199.58 213.55 194.96 219.44 190.64 225.49 186.61 231.35 182.43 237.41 178.48 243.68 174.76 249.83 170.82 256.24 167.04 262.91 163.43 269.51 159.53 276.4 155.75 283.6 152.1 290.75 148.13 298.21 144.28 305.99 140.56 313.74 136.57 321.8 132.73 330.16 129.09 338.5 125.26 347.15 121.7 356.07 118.48 364.99 115.2 374.2 112.35 383.68 110.02" stroke-dasharray="0 0" transform="rotate(0, 400, 400)" opacity="0.05"></path><path d="M387.96 120.89C397.18 118.68 406.5 117.11 415.91 116.21 425.34 115.53 434.89 115.57 444.53 116.34 454.23 117.4 464.06 119.19 474 121.7 484.03 124.53 494.19 128.04 504.46 132.21 514.81 136.65 525.28 141.7 535.81 147.3 546.37 153.11 556.95 159.41 567.47 166.14 577.91 173 588.18 180.24 598.14 187.79 607.86 195.39 617.11 203.26 625.74 211.35 633.89 219.43 641.24 227.71 647.62 236.13 653.3 244.51 657.87 253.02 661.23 261.65 663.79 270.21 665.1 278.89 665.16 287.67 664.54 296.38 662.83 305.21 660.14 314.14 657.19 323.02 653.62 332.02 649.64 341.13 646.03 350.21 642.48 359.43 639.24 368.77 637.02 378.1 635.53 387.57 634.91 397.18 635.72 406.79 637.56 416.54 640.41 426.42 644.62 436.3 649.47 446.08 654.73 455.73 660.67 465.37 666.47 474.87 671.84 484.19 677.09 493.48 681.42 502.55 684.62 511.37 687.07 520.13 688.1 528.59 687.66 536.7 686.19 544.71 683.21 552.31 678.82 559.46 673.45 566.45 666.85 572.93 659.17 578.86 650.81 584.6 641.65 589.74 631.88 594.27 621.78 598.58 611.33 602.27 600.68 605.31 590.01 608.2 579.31 610.49 568.69 612.2 558.24 613.86 547.94 615.05 537.84 615.82 527.98 616.72 518.3 617.35 508.83 617.79 499.58 618.59 490.47 619.38 481.49 620.24 472.67 621.69 463.92 623.36 455.21 625.33 446.59 628.04 437.95 631.13 429.28 634.59 420.65 638.81 411.95 643.38 403.17 648.23 394.39 653.67 385.52 659.23 376.56 664.75 367.6 670.52 358.76 675.85 350.08 680.59 341.4 685.16 332.88 688.9 324.56 691.7 316.26 694.01 308.18 695.22 300.35 695.32 292.56 694.75 285.04 693.02 277.83 690.19 270.66 686.68 263.8 682.12 257.29 676.61 250.82 670.54 244.68 663.65 238.89 656.05 233.11 648.07 227.65 639.54 222.52 630.57 217.34 621.41 212.44 611.94 207.81 602.25 203.06 592.53 198.53 582.69 194.21 572.8 189.69 562.97 185.32 553.14 181.11 543.34 176.64 533.65 172.29 524.01 168.06 514.44 163.57 504.99 159.21 495.58 155 486.23 150.58 476.98 146.35 467.75 142.37 458.56 138.28 449.43 134.5 440.3 131.11 431.18 127.74 422.09 124.84 412.98 122.49 403.86 120.3 394.75 118.74 385.61 117.87 376.47 117.28 367.32 117.45 358.38 118.35 349.66 119.55 340.94 121.47 332.44 124.07 324.19 126.91 315.94 130.37 307.95 134.39 300.25 138.56 292.56 143.2 285.17 148.26 278.09 153.33 271.03 158.73 264.3 164.41 257.92 169.98 251.55 175.76 245.52 181.71 239.85 187.46 234.17 193.35 228.84 199.35 223.85 205.11 218.83 210.98 214.11 216.95 209.72 222.7 205.22 228.57 201 234.58 197.04 240.4 192.92 246.39 189.01 252.57 185.3 258.61 181.37 264.88 177.59 271.38 173.95 277.79 170.05 284.47 166.26 291.42 162.59 298.32 158.63 305.51 154.78 312.99 151.07 320.44 147.11 328.19 143.3 336.24 139.7 344.26 135.93 352.59 132.42 361.21 129.24 369.82 126.01 378.74 123.2 387.96 120.89" stroke-dasharray="0 0" transform="rotate(4.04, 400, 400)" opacity="0.09"></path><path d="M392.87 131.77C401.82 129.58 410.9 128.01 420.08 127.07 429.27 126.33 438.6 126.29 448.02 126.93 457.5 127.84 467.09 129.46 476.8 131.76 486.55 134.35 496.42 137.61 506.37 141.49 516.36 145.65 526.42 150.38 536.47 155.66 546.52 161.14 556.51 167.11 566.36 173.51 576.09 180.05 585.56 186.97 594.67 194.21 603.5 201.51 611.8 209.1 619.45 216.91 626.62 224.74 632.98 232.77 638.41 240.96 643.18 249.12 646.91 257.43 649.52 265.86 651.43 274.24 652.23 282.74 651.91 291.33 651.05 299.88 649.25 308.52 646.62 317.27 643.84 325.96 640.55 334.77 636.95 343.67 633.76 352.54 630.66 361.52 627.87 370.61 626.04 379.68 624.87 388.87 624.49 398.16 625.41 407.44 627.24 416.84 629.96 426.32 633.91 435.81 638.43 445.16 643.31 454.35 648.83 463.53 654.23 472.53 659.27 481.32 664.26 490.09 668.44 498.62 671.63 506.86 674.2 515.05 675.5 522.92 675.49 530.42 674.57 537.83 672.27 544.83 668.66 551.39 664.16 557.8 658.46 563.72 651.71 569.12 644.3 574.35 636.05 579.02 627.14 583.12 617.86 587.06 608.14 590.43 598.14 593.22 588.03 595.91 577.8 598.06 567.56 599.72 557.4 601.38 547.32 602.63 537.36 603.53 527.58 604.59 517.95 605.44 508.49 606.14 499.21 607.2 490.06 608.28 481.05 609.43 472.19 611.13 463.42 613.05 454.72 615.23 446.11 618.08 437.53 621.26 428.96 624.76 420.44 628.94 411.9 633.41 403.34 638.11 394.79 643.33 386.19 648.63 377.57 653.87 368.95 659.34 360.49 664.39 352.22 668.89 343.95 673.24 335.88 676.83 328.03 679.56 320.18 681.86 312.57 683.16 305.23 683.43 297.9 683.11 290.85 681.73 284.1 679.31 277.37 676.29 270.94 672.27 264.84 667.35 258.74 661.91 252.96 655.67 247.5 648.73 242.01 641.42 236.81 633.53 231.91 625.19 226.93 616.63 222.19 607.73 217.7 598.57 213.06 589.35 208.61 579.95 204.35 570.47 199.87 561 195.53 551.5 191.33 541.99 186.87 532.56 182.52 523.15 178.29 513.79 173.81 504.52 169.45 495.29 165.25 486.12 160.85 477.02 156.65 467.96 152.69 458.95 148.63 449.99 144.88 441.05 141.51 432.14 138.17 423.26 135.3 414.39 132.95 405.53 130.78 396.69 129.21 387.85 128.32 379.04 127.7 370.22 127.82 361.63 128.66 353.28 129.79 344.92 131.63 336.81 134.12 328.95 136.86 321.09 140.21 313.5 144.11 306.19 148.16 298.89 152.69 291.88 157.63 285.18 162.6 278.49 167.91 272.11 173.5 266.06 179.01 260 184.74 254.27 190.64 248.87 196.37 243.45 202.24 238.34 208.22 233.55 213.99 228.7 219.87 224.14 225.85 219.86 231.6 215.47 237.48 211.32 243.47 207.41 249.27 203.34 255.23 199.45 261.35 195.74 267.32 191.82 273.49 188.03 279.86 184.38 286.14 180.47 292.65 176.68 299.42 173 306.11 169.05 313.08 165.22 320.32 161.52 327.51 157.59 335 153.83 342.78 150.27 350.52 146.56 358.57 143.11 366.92 139.98 375.25 136.82 383.9 134.05 392.86 131.77" stroke-dasharray="0 0" transform="rotate(8.08, 400, 400)" opacity="0.13"></path><path d="M398.14 142.65C406.83 140.48 415.65 138.91 424.57 137.94 433.5 137.16 442.56 137.03 451.72 137.55 460.91 138.33 470.2 139.78 479.58 141.87 489 144.23 498.49 147.23 508.02 150.83 517.56 154.69 527.1 159.12 536.59 164.06 546.04 169.21 555.35 174.84 564.47 180.89 573.42 187.09 582.06 193.67 590.29 200.57 598.2 207.56 605.57 214.83 612.26 222.34 618.5 229.88 623.93 237.63 628.47 245.55 632.43 253.46 635.41 261.53 637.37 269.72 638.74 277.88 639.12 286.15 638.52 294.53 637.51 302.86 635.69 311.3 633.17 319.82 630.6 328.3 627.62 336.88 624.41 345.54 621.62 354.17 618.96 362.9 616.6 371.7 615.14 380.49 614.27 389.37 614.1 398.32 615.11 407.27 616.92 416.3 619.51 425.37 623.21 434.45 627.41 443.36 631.92 452.09 637.03 460.8 642.05 469.32 646.75 477.59 651.46 485.84 655.47 493.83 658.61 501.52 661.25 509.15 662.77 516.46 663.11 523.4 662.67 530.25 660.97 536.7 658.07 542.71 654.36 548.6 649.52 554.02 643.67 558.94 637.17 563.73 629.83 568.01 621.8 571.75 613.38 575.38 604.45 578.5 595.16 581.1 585.71 583.64 576.05 585.72 566.3 587.37 556.56 589.05 546.81 590.4 537.13 591.45 527.56 592.69 518.09 593.76 508.75 594.72 499.55 596.04 490.46 597.38 481.51 598.8 472.68 600.74 463.95 602.87 455.32 605.23 446.77 608.2 438.27 611.44 429.83 614.96 421.44 619.08 413.07 623.45 404.72 627.98 396.39 632.98 388.06 638.02 379.75 642.99 371.44 648.17 363.34 652.94 355.45 657.2 347.56 661.34 339.89 664.77 332.46 667.41 325.03 669.69 317.84 671.05 310.93 671.48 304.01 671.38 297.38 670.31 291.03 668.27 284.68 665.69 278.62 662.19 272.86 657.82 267.09 652.98 261.6 647.36 256.41 641.06 251.16 634.4 246.17 627.17 241.45 619.46 236.62 611.53 232.01 603.22 227.61 594.63 223.05 585.93 218.66 577.04 214.42 568 209.97 558.96 205.64 549.84 201.43 540.69 196.98 531.58 192.63 522.46 188.39 513.37 183.92 504.35 179.58 495.35 175.39 486.41 171.02 477.52 166.84 468.67 162.91 459.87 158.89 451.12 155.19 442.4 151.86 433.73 148.56 425.08 145.72 416.46 143.4 407.89 141.24 399.32 139.68 390.78 138.77 382.29 138.13 373.8 138.21 365.54 138.97 357.54 140.03 349.54 141.77 341.78 144.15 334.29 146.78 326.79 150.01 319.57 153.77 312.62 157.69 305.68 162.08 299.02 166.89 292.66 171.75 286.29 176.95 280.22 182.43 274.47 187.85 268.69 193.51 263.22 199.34 258.05 205.04 252.85 210.88 247.93 216.83 243.3 222.6 238.6 228.48 234.16 234.45 229.98 240.22 225.67 246.1 221.58 252.09 217.71 257.89 213.66 263.83 209.79 269.91 206.08 275.84 202.16 281.94 198.37 288.23 194.7 294.41 190.8 300.8 187 307.42 183.31 313.95 179.39 320.74 175.58 327.78 171.91 334.77 168.02 342.04 164.31 349.58 160.81 357.08 157.16 364.88 153.78 372.98 150.71 381.05 147.61 389.43 144.9 398.13 142.65" stroke-dasharray="0 0" transform="rotate(12.12, 400, 400)" opacity="0.16"></path><path d="M403.51 153.52C411.93 151.39 420.47 149.82 429.1 148.83 437.74 148.01 446.49 147.8 455.32 148.21 464.17 148.86 473.11 150.13 482.09 152.02 491.09 154.16 500.12 156.91 509.15 160.23 518.16 163.8 527.12 167.9 535.97 172.51 544.74 177.33 553.33 182.61 561.66 188.3 569.81 194.15 577.59 200.37 584.93 206.91 591.95 213.55 598.4 220.49 604.19 227.66 609.54 234.88 614.13 242.32 617.87 249.93 621.1 257.56 623.44 265.35 624.85 273.26 625.79 281.16 625.84 289.17 625.05 297.28 623.96 305.38 622.18 313.56 619.83 321.82 617.49 330.06 614.84 338.38 612.01 346.76 609.63 355.13 607.39 363.58 605.43 372.07 604.3 380.56 603.7 389.11 603.73 397.71 604.81 406.3 606.6 414.94 609.06 423.6 612.52 432.26 616.41 440.73 620.57 448.99 625.29 457.24 629.93 465.27 634.3 473.04 638.72 480.79 642.53 488.26 645.59 495.42 648.25 502.54 649.92 509.32 650.55 515.73 650.51 522.07 649.35 528.01 647.07 533.53 644.08 538.95 640.04 543.93 635.03 548.44 629.41 552.85 622.96 556.8 615.82 560.26 608.25 563.64 600.15 566.56 591.63 569.03 582.91 571.47 573.9 573.52 564.73 575.2 555.51 576.95 546.22 578.41 536.93 579.64 527.69 581.06 518.49 582.35 509.38 583.56 500.37 585.12 491.45 586.7 482.65 588.37 473.94 590.51 465.32 592.82 456.82 595.33 448.38 598.39 440.02 601.68 431.74 605.19 423.5 609.24 415.31 613.48 407.19 617.84 399.08 622.62 391.01 627.41 383 632.12 374.98 637 367.2 641.5 359.66 645.52 352.12 649.45 344.81 652.72 337.75 655.27 330.69 657.51 323.88 658.92 317.34 659.47 310.79 659.56 304.5 658.76 298.5 657.07 292.48 654.9 286.73 651.87 281.26 648.03 275.75 643.74 270.5 638.73 265.52 633.05 260.46 627.02 255.64 620.43 251.04 613.36 246.33 606.05 241.81 598.36 237.47 590.35 232.96 582.22 228.6 573.86 224.37 565.33 219.93 556.76 215.61 548.08 211.39 539.33 206.94 530.6 202.59 521.84 198.35 513.08 193.89 504.36 189.57 495.65 185.39 486.98 181.06 478.35 176.93 469.76 173.04 461.22 169.08 452.71 165.43 444.24 162.15 435.83 158.91 427.44 156.11 419.09 153.82 410.8 151.7 402.52 150.14 394.28 149.22 386.11 148.56 377.94 148.59 370.01 149.29 362.35 150.28 354.68 151.92 347.26 154.17 340.11 156.68 332.95 159.77 326.06 163.37 319.45 167.16 312.83 171.4 306.48 176.05 300.42 180.77 294.35 185.83 288.56 191.18 283.06 196.51 277.53 202.06 272.28 207.81 267.32 213.45 262.3 219.24 257.54 225.15 253.05 230.9 248.47 236.76 244.13 242.72 240.02 248.5 235.78 254.38 231.74 260.36 227.89 266.17 223.87 272.09 220 278.15 216.29 284.05 212.37 290.11 208.58 296.34 204.91 302.44 201.01 308.74 197.21 315.24 193.54 321.66 189.64 328.3 185.86 335.18 182.22 342 178.4 349.07 174.74 356.4 171.3 363.7 167.73 371.27 164.42 379.12 161.42 386.95 158.39 395.08 155.74 403.5 153.53" stroke-dasharray="0 0" transform="rotate(16.16, 400, 400)" opacity="0.20"></path><path d="M408.7 164.4C416.83 162.31 425.07 160.75 433.37 159.73 441.69 158.88 450.09 158.6 458.54 158.91 467 159.42 475.51 160.54 484.03 162.23 492.56 164.16 501.07 166.66 509.53 169.7 517.94 172.97 526.27 176.77 534.42 181.04 542.48 185.51 550.31 190.43 557.83 195.76 565.16 201.24 572.1 207.09 578.56 213.26 584.72 219.54 590.31 226.11 595.25 232.92 599.8 239.8 603.62 246.89 606.66 254.17 609.26 261.47 611.06 268.94 612.03 276.54 612.62 284.14 612.45 291.86 611.55 299.68 610.44 307.48 608.76 315.38 606.6 323.35 604.53 331.31 602.21 339.34 599.78 347.41 597.78 355.49 595.93 363.61 594.35 371.78 593.53 379.94 593.18 388.14 593.38 396.36 594.52 404.58 596.27 412.83 598.61 421.06 601.84 429.3 605.43 437.32 609.25 445.12 613.59 452.92 617.86 460.47 621.9 467.75 626.02 475.01 629.62 481.99 632.57 488.66 635.2 495.28 636.98 501.57 637.83 507.5 637.77 516.11 631.69 531.25 625.8 537.72 621.02 541.81 615.43 545.47 609.14 548.71 602.44 551.9 595.18 554.68 587.46 557.06 579.5 559.46 571.21 561.52 562.7 563.25 554.09 565.09 545.34 566.69 536.53 568.09 527.73 569.7 518.91 571.2 510.14 572.65 501.42 574.42 492.77 576.23 484.2 578.11 475.7 580.44 467.28 582.9 458.97 585.53 450.71 588.65 442.53 591.96 434.45 595.45 426.4 599.41 418.43 603.51 410.54 607.7 402.66 612.26 394.85 616.8 387.13 621.24 379.4 625.84 371.92 630.08 364.7 633.86 357.47 637.57 350.49 640.68 343.77 643.14 337.03 645.32 330.55 646.75 324.33 647.4 318.09 647.66 312.11 647.09 306.39 645.72 300.64 643.92 295.15 641.32 289.91 637.96 284.62 634.21 279.56 629.76 274.74 624.68 269.83 619.27 265.12 613.3 260.62 606.86 255.99 600.18 251.52 593.1 247.22 585.7 242.74 578.16 238.39 570.35 234.16 562.36 229.73 554.3 225.4 546.1 221.17 537.81 216.72 529.51 212.38 521.15 208.14 512.76 203.71 504.4 199.41 496.04 195.27 487.69 190.99 479.37 186.91 471.08 183.07 462.83 179.19 454.61 175.61 446.43 172.38 438.31 169.22 430.2 166.48 422.14 164.22 414.15 162.14 406.17 160.6 398.24 159.67 390.38 159 382.53 158.99 374.93 159.61 367.59 160.52 360.24 162.05 353.14 164.19 346.31 166.56 339.47 169.5 332.89 172.94 326.58 176.56 320.25 180.64 314.19 185.12 308.4 189.68 302.59 194.59 297.04 199.78 291.77 204.98 286.46 210.42 281.4 216.05 276.6 221.6 271.74 227.31 267.12 233.16 262.74 238.87 258.27 244.7 254 250.62 249.95 256.39 245.77 262.26 241.76 268.22 237.93 274.03 233.93 279.95 230.08 285.97 226.36 291.86 222.45 297.89 218.66 304.06 214.98 310.12 211.1 316.34 207.32 322.74 203.66 329.06 199.8 335.58 196.07 342.31 192.48 348.98 188.72 355.88 185.13 363.02 181.75 370.12 178.27 377.48 175.04 385.09 172.11 392.68 169.16 400.55 166.57 408.68 164.4" stroke-dasharray="0 0" transform="rotate(20.200000000000003, 400, 400)" opacity="0.24"></path><path d="M413.43 175.28C421.26 173.23 429.17 171.69 437.12 170.65 445.08 169.77 453.08 169.43 461.11 169.63 469.13 170.03 477.17 170.99 485.18 172.49 493.18 174.21 501.12 176.47 508.96 179.24 516.75 182.23 524.39 185.71 531.83 189.65 539.15 193.78 546.21 198.34 552.93 203.29 559.45 208.4 565.57 213.86 571.2 219.65 576.55 225.55 581.34 231.73 585.51 238.16 589.33 244.66 592.49 251.39 594.92 258.3 596.99 265.25 598.35 272.37 598.98 279.62 599.32 286.88 599 294.27 598.06 301.76 597 309.24 595.46 316.82 593.53 324.46 591.74 332.1 589.76 339.8 587.7 347.55 586.08 355.29 584.6 363.08 583.36 370.89 582.83 378.7 582.71 386.53 583.05 394.36 584.24 402.2 585.95 410.03 588.16 417.84 591.16 425.64 594.47 433.23 597.96 440.58 601.94 447.92 605.86 455.01 609.57 461.83 613.4 468.62 616.76 475.14 619.57 481.34 623.06 490.43 625.38 506.83 623.98 514.08 620.86 520.86 609.61 532.43 601.75 537.21 595.89 540.25 589.46 542.94 582.56 545.29 575.39 547.67 567.86 549.76 560.06 551.58 552.12 553.52 543.99 555.26 535.75 556.84 527.47 558.63 519.13 560.33 510.78 561.99 502.46 563.97 494.15 565.98 485.91 568.04 477.7 570.51 469.56 573.1 461.51 575.82 453.5 578.98 445.56 582.28 437.72 585.73 429.91 589.59 422.18 593.55 414.54 597.56 406.92 601.89 399.38 606.18 391.93 610.36 384.48 614.69 377.29 618.66 370.37 622.21 363.43 625.71 356.74 628.66 350.31 631 343.86 633.13 337.67 634.56 331.72 635.29 322.89 635.5 306.37 631.65 298.67 627.65 293.55 624.39 288.64 620.47 283.94 615.95 279.14 611.13 274.52 605.77 270.08 599.94 265.5 593.88 261.07 587.42 256.78 580.62 252.32 573.68 247.97 566.46 243.74 559.02 239.31 551.5 234.98 543.82 230.74 536.02 226.31 528.19 221.98 520.28 217.75 512.32 213.36 504.37 209.11 496.38 205.01 488.41 200.8 480.45 196.79 472.5 193.02 464.58 189.22 456.68 185.72 448.82 182.56 441.01 179.48 433.22 176.81 425.47 174.6 417.79 172.57 410.12 171.06 402.5 170.12 394.97 169.44 387.43 169.38 380.15 169.94 373.12 170.76 366.08 172.19 359.29 174.19 352.76 176.43 346.22 179.2 339.92 182.47 333.89 185.92 327.83 189.81 322.03 194.1 316.48 198.49 310.9 203.21 305.57 208.23 300.49 213.28 295.37 218.56 290.48 224.05 285.82 229.49 281.1 235.1 276.6 240.85 272.31 246.49 267.92 252.26 263.73 258.12 259.72 263.86 255.59 269.7 251.61 275.62 247.79 281.41 243.82 287.31 239.98 293.3 236.26 299.17 232.37 305.16 228.59 311.27 224.92 317.28 221.06 323.44 217.32 329.75 213.69 335.98 209.88 342.39 206.19 348.98 202.66 355.52 198.98 362.26 195.47 369.2 192.17 376.12 188.78 383.26 185.63 390.63 182.78 397.98 179.92 405.58 177.4 413.42 175.28" stroke-dasharray="0 0" transform="rotate(24.24, 400, 400)" opacity="0.28"></path><path d="M417.46 186.15C424.97 184.16 432.52 182.63 440.08 181.59 447.65 180.68 455.23 180.29 462.79 180.4 470.35 180.69 477.87 181.5 485.33 182.82 492.76 184.34 500.1 186.36 507.3 188.87 514.43 191.57 521.38 194.75 528.09 198.36 534.68 202.14 540.98 206.34 546.92 210.92 552.67 215.65 558.01 220.72 562.86 226.11 567.47 231.61 571.54 237.4 575.03 243.43 578.23 249.54 580.8 255.87 582.74 262.39 584.38 268.96 585.39 275.69 585.77 282.56 585.94 289.47 585.54 296.49 584.63 303.61 583.66 310.74 582.3 317.96 580.63 325.24 579.13 332.53 577.48 339.88 575.79 347.26 574.53 354.65 573.39 362.07 572.47 369.5 572.19 376.94 572.27 384.38 572.74 391.81 573.97 399.25 575.63 406.66 577.71 414.03 580.5 421.41 583.53 428.55 586.72 435.46 590.35 442.36 593.91 449 597.31 455.38 600.83 461.73 603.96 467.81 606.61 473.58 610.01 482.04 612.79 497.3 611.94 504.04 609.61 510.38 600.36 521.27 593.65 525.84 588.6 528.78 582.98 531.42 576.87 533.75 570.5 536.15 563.75 538.29 556.68 540.21 549.45 542.26 542 544.14 534.38 545.89 526.7 547.85 518.91 549.74 511.07 551.6 503.21 553.75 495.35 555.92 487.5 558.15 479.67 560.74 471.88 563.42 464.16 566.2 456.46 569.37 448.82 572.65 441.27 576.03 433.74 579.77 426.29 583.58 418.93 587.41 411.58 591.51 404.32 595.56 397.16 599.49 389.99 603.54 383.08 607.26 376.43 610.58 369.77 613.87 363.35 616.65 357.18 618.88 348.02 621.64 330.84 623.55 322.79 622.61 314.89 620.5 300.03 612.56 293.01 606.86 288.29 602.6 283.74 597.82 279.33 592.58 274.79 587.13 270.38 581.28 266.1 575.08 261.65 568.74 257.31 562.11 253.06 555.24 248.65 548.29 244.32 541.15 240.08 533.87 235.68 526.55 231.37 519.12 227.18 511.62 222.84 504.11 218.64 496.56 214.61 488.98 210.48 481.42 206.55 473.85 202.87 466.3 199.17 458.77 195.76 451.25 192.7 443.78 189.7 436.33 187.11 428.91 184.97 421.56 182.98 414.22 181.5 406.93 180.57 399.72 179.88 392.51 179.79 385.54 180.28 378.81 181.02 372.08 182.33 365.59 184.2 359.34 186.29 353.08 188.9 347.05 191.98 341.27 195.24 335.47 198.93 329.9 203.01 324.56 207.2 319.2 211.73 314.06 216.55 309.15 221.41 304.2 226.52 299.45 231.84 294.92 237.14 290.33 242.61 285.92 248.23 281.71 253.77 277.4 259.44 273.27 265.22 269.3 270.89 265.21 276.67 261.27 282.53 257.47 288.28 253.52 294.13 249.7 300.06 245.99 305.9 242.12 311.84 238.36 317.88 234.72 323.84 230.9 329.92 227.19 336.13 223.6 342.28 219.86 348.57 216.24 355.02 212.77 361.42 209.18 368 205.76 374.76 202.54 381.48 199.25 388.4 196.2 395.52 193.44 402.62 190.66 409.93 188.22 417.45 186.16" stroke-dasharray="0 0" transform="rotate(28.28, 400, 400)" opacity="0.32"></path><path d="M420.57 197.03C427.74 195.09 434.91 193.59 442.06 192.55 449.21 191.62 456.33 191.18 463.4 191.2 470.46 191.39 477.45 192.06 484.34 193.21 491.19 194.53 497.91 196.33 504.45 198.59 510.93 201.02 517.19 203.89 523.18 207.17 529.06 210.62 534.63 214.46 539.83 218.67 544.86 223.01 549.48 227.69 553.64 232.67 557.58 237.77 561.02 243.14 563.92 248.76 566.58 254.46 568.68 260.38 570.21 266.48 571.51 272.64 572.27 278.98 572.48 285.45 572.55 291.95 572.15 298.58 571.31 305.31 570.48 312.06 569.32 318.89 567.92 325.79 566.71 332.7 565.4 339.66 564.06 346.65 563.12 353.66 562.3 360.69 561.67 367.72 561.62 374.77 561.87 381.81 562.45 388.82 563.69 395.85 565.3 402.84 567.26 409.78 569.84 416.72 572.61 423.43 575.5 429.9 578.8 436.37 582.04 442.59 585.12 448.55 588.34 454.49 591.22 460.15 593.69 465.54 596.95 473.43 600.04 487.65 599.64 493.97 597.97 499.93 590.5 510.27 584.85 514.69 580.55 517.56 575.7 520.17 570.37 522.52 564.78 524.95 558.79 527.16 552.47 529.19 545.98 531.34 539.23 533.37 532.28 535.27 525.24 537.39 518.06 539.44 510.78 541.47 503.47 543.76 496.1 546.08 488.72 548.43 481.34 551.1 473.97 553.84 466.63 556.66 459.31 559.81 452.02 563.05 444.81 566.35 437.61 569.96 430.47 573.61 423.42 577.25 416.37 581.13 409.4 584.94 402.53 588.61 395.65 592.4 389.02 595.87 382.63 598.97 376.24 602.04 370.07 604.65 364.14 606.77 355.32 609.43 338.74 611.52 330.95 610.87 323.27 609.18 308.74 602.41 301.83 597.44 297.18 593.69 292.66 589.46 288.28 584.79 283.78 579.92 279.39 574.66 275.11 569.06 270.68 563.31 266.34 557.27 262.1 550.98 257.71 544.61 253.39 538.02 249.18 531.28 244.82 524.49 240.55 517.57 236.41 510.56 232.15 503.53 228.02 496.43 224.06 489.3 220.04 482.17 216.21 475.01 212.63 467.86 209.04 460.71 205.75 453.58 202.78 446.47 199.89 439.38 197.38 432.32 195.31 425.31 193.39 418.31 191.95 411.36 191.03 404.48 190.33 397.59 190.2 390.94 190.62 384.51 191.28 378.08 192.48 371.87 194.2 365.9 196.14 359.9 198.57 354.13 201.46 348.59 204.52 343.02 208.01 337.67 211.86 332.54 215.84 327.37 220.14 322.41 224.74 317.65 229.4 312.85 234.3 308.24 239.42 303.82 244.54 299.33 249.84 295.02 255.3 290.88 260.7 286.65 266.24 282.57 271.89 278.64 277.47 274.6 283.15 270.7 288.91 266.92 294.59 263.01 300.36 259.21 306.21 255.53 311.98 251.7 317.84 247.97 323.8 244.36 329.68 240.6 335.67 236.94 341.77 233.41 347.81 229.74 353.98 226.2 360.28 222.82 366.54 219.32 372.94 216 379.49 212.88 386.01 209.7 392.7 206.75 399.55 204.08 406.38 201.4 413.39 199.04 420.56 197.03" stroke-dasharray="0 0" transform="rotate(32.32, 400, 400)" opacity="0.35"></path><path d="M422.61 207.91C429.42 206.03 436.18 204.56 442.9 203.52 449.6 202.59 456.25 202.1 462.81 202.05 469.35 202.14 475.79 202.68 482.1 203.67 488.36 204.81 494.46 206.39 500.36 208.4 506.19 210.56 511.79 213.14 517.1 216.11 522.31 219.23 527.19 222.72 531.72 226.55 538.08 232.65 548.41 246.54 552.26 254.21 555.34 262.23 558.76 279.34 559.18 288.34 559.21 294.43 558.86 300.64 558.14 306.95 557.47 313.29 556.54 319.71 555.42 326.2 554.49 332.7 553.5 339.25 552.49 345.84 551.85 352.44 551.32 359.06 550.96 365.68 551.11 372.31 551.51 378.93 552.18 385.53 553.43 392.13 554.98 398.7 556.81 405.2 559.18 411.71 561.71 418 564.32 424.05 567.3 430.1 570.22 435.91 573 441.47 577.24 449.67 583.91 464.7 585.98 471.52 586.57 483.82 580.06 499.52 575.37 503.83 569.69 507.96 555.57 515.25 547.36 518.52 541.61 520.78 535.58 522.93 529.31 524.98 522.94 527.23 516.4 529.42 509.73 531.59 503.01 534 496.2 536.42 489.33 538.87 482.46 541.6 475.55 544.38 468.65 547.2 461.76 550.32 454.88 553.49 448.04 556.69 441.21 560.16 434.43 563.64 427.71 567.08 421 570.74 414.34 574.3 407.77 577.73 401.19 581.26 394.84 584.49 388.72 587.37 382.58 590.23 376.66 592.68 370.95 594.67 362.46 597.22 346.42 599.43 338.85 599.02 331.37 597.7 317.11 591.98 310.29 587.67 305.7 584.41 301.22 580.7 296.87 576.56 292.4 572.25 288.03 567.55 283.76 562.53 279.36 557.36 275.04 551.9 270.82 546.19 266.46 540.38 262.19 534.36 258.01 528.17 253.71 521.92 249.51 515.53 245.44 509.03 241.27 502.5 237.24 495.89 233.38 489.22 229.48 482.55 225.77 475.83 222.3 469.1 218.85 462.37 215.67 455.64 212.81 448.93 210.04 442.22 207.63 435.53 205.63 428.88 203.78 422.24 202.38 415.63 201.48 409.09 200.78 402.54 200.61 396.2 200.97 390.08 201.54 383.95 202.63 378.02 204.21 372.31 206 366.58 208.25 361.05 210.93 355.74 213.79 350.39 217.05 345.25 220.67 340.3 224.41 335.32 228.47 330.52 232.83 325.91 237.25 321.25 241.93 316.77 246.82 312.45 251.73 308.07 256.83 303.85 262.08 299.78 267.31 295.62 272.68 291.6 278.17 287.72 283.6 283.74 289.15 279.87 294.77 276.13 300.34 272.27 306 268.51 311.73 264.86 317.4 261.09 323.15 257.41 328.99 253.85 334.77 250.15 340.64 246.57 346.6 243.11 352.51 239.53 358.53 236.08 364.65 232.79 370.74 229.4 376.95 226.19 383.27 223.18 389.58 220.11 396.01 217.28 402.57 214.7 409.12 212.13 415.8 209.85 422.6 207.91" stroke-dasharray="0 0" transform="rotate(36.36, 400, 400)" opacity="0.39"></path><path d="M423.47 218.79C429.89 216.97 436.23 215.54 442.49 214.51 448.75 213.57 454.91 213.05 460.95 212.93 472.98 213.07 484.44 214.91 495.06 218.31 505.42 222.28 514.72 227.77 522.68 234.58 530.14 241.88 536.04 250.37 540.2 259.81 543.8 269.58 545.69 280.16 545.94 291.32 546.05 302.67 545 314.49 543.14 326.57 542.09 338.74 541.03 351.11 540.33 363.49 540.65 369.7 541.18 375.9 541.92 382.07 543.16 388.24 544.65 394.38 546.36 400.46 548.54 406.54 550.83 412.41 553.18 418.06 555.85 423.71 558.47 429.13 560.95 434.32 566.32 444.67 570.43 454.05 572.91 462.42 574.77 470.75 574.43 478.09 571.89 484.42 568.28 490.84 562.5 496.39 554.87 501.16 546.4 506.26 536.43 510.85 525.38 515.03 513.91 519.92 501.72 524.7 489.13 529.47 476.44 535.22 463.55 541.11 450.71 547.04 444.29 550.36 437.89 553.66 431.53 556.91 425.18 560.34 418.86 563.67 412.6 566.85 406.35 570.13 400.28 573.12 394.42 575.79 388.55 578.45 382.87 580.72 377.38 582.59 366.34 586 355.98 587.51 346.3 587.07 336.43 585.86 327.09 582.64 318.28 577.59 309.14 571.77 300.37 564.3 292 555.48 283.19 546.14 274.68 535.71 266.56 524.49 258.05 513.03 249.99 501 242.56 488.65 235.01 476.24 228.33 463.62 222.81 451 220.16 444.7 217.85 438.4 215.94 432.12 214.16 425.85 212.82 419.61 211.93 413.4 211.23 407.2 211.04 401.19 211.33 395.36 211.82 389.53 212.8 383.89 214.23 378.43 217.68 367.49 222.83 357.25 229.44 347.75 236.53 338.11 244.83 329.11 254.05 320.75 263.41 312.14 273.48 304.06 284.06 296.5 294.53 288.57 305.42 281.05 316.61 273.98 327.61 266.46 338.95 259.33 350.55 252.69 362.02 245.66 373.86 239.17 386.01 233.44 392.07 230.5 398.23 227.78 404.47 225.31 410.71 222.84 417.04 220.66 423.46 218.79" stroke-dasharray="0 0" transform="rotate(40.400000000000006, 400, 400)" opacity="0.43"></path><path d="M423.1 229.66C435.12 226.23 446.74 224.31 457.81 223.85 468.81 223.83 479.14 225.35 488.59 228.33 497.81 231.8 505.97 236.68 512.83 242.8 519.3 249.35 524.34 257.02 527.83 265.62 530.94 274.51 532.57 284.2 532.83 294.47 533.1 304.91 532.42 315.83 531.09 327.03 530.56 338.31 530.03 349.8 529.79 361.31 531.13 372.86 533.17 384.38 535.91 395.7 540.27 407.01 544.76 417.55 548.98 427.23 553.79 436.88 557.52 445.67 559.85 453.54 561.75 461.4 561.76 468.4 559.84 474.52 557.07 480.76 552.36 486.27 545.92 491.11 538.76 496.28 530.15 501.02 520.43 505.41 510.3 510.44 499.37 515.36 487.94 520.22 476.38 525.93 464.51 531.69 452.56 537.41 440.61 543.89 428.63 550.18 416.78 555.98 404.93 562.09 393.73 566.99 383.21 570.52 372.61 573.74 362.6 575.26 353.17 575.04 343.56 574.19 334.42 571.52 325.73 567.2 316.74 562.22 308.09 555.7 299.81 547.91 291.15 539.65 282.8 530.31 274.84 520.18 266.58 509.81 258.77 498.83 251.61 487.47 244.39 476.04 238.02 464.34 232.75 452.56 227.82 440.79 224.27 428.98 222.38 417.29 221.19 405.59 221.87 394.53 224.27 384.16 227.38 373.74 232.1 363.94 238.19 354.79 244.77 345.52 252.51 336.81 261.15 328.66 269.99 320.29 279.54 312.38 289.61 304.96 299.65 297.2 310.12 289.83 320.88 282.89 331.52 275.56 342.47 268.62 353.64 262.17 364.72 255.39 376.09 249.16 387.67 243.66 399.23 238.02 411.07 233.28 423.09 229.67" stroke-dasharray="0 0" transform="rotate(44.44, 400, 400)" opacity="0.47"></path><path d="M421.52 240.54C432.7 237.26 443.39 235.36 453.45 234.82 463.45 234.64 472.72 235.88 481.09 238.45 489.27 241.46 496.41 245.75 502.34 251.2 507.98 257.03 512.32 263.91 515.31 271.66 518.06 279.69 519.57 288.49 519.92 297.84 520.4 307.38 520.11 317.38 519.28 327.66 519.23 338.04 519.17 348.63 519.33 359.27 520.84 369.93 522.89 380.59 525.45 391.08 529.41 401.56 533.39 411.35 537.1 420.36 541.36 429.36 544.69 437.59 546.82 445.01 548.69 452.45 548.94 459.14 547.51 465.09 545.43 471.16 541.62 476.63 536.25 481.52 530.26 486.74 522.9 491.59 514.44 496.14 505.61 501.24 495.92 506.23 485.66 511.12 475.25 516.73 464.43 522.32 453.41 527.78 442.38 533.89 431.22 539.75 420.08 545.1 408.93 550.72 398.31 555.22 388.24 558.47 378.12 561.49 368.47 562.99 359.31 562.95 350 562.38 341.08 560.21 332.55 556.52 323.77 552.3 315.29 546.66 307.14 539.83 298.71 532.58 290.57 524.3 282.83 515.23 274.87 505.92 267.38 495.98 260.53 485.62 253.67 475.17 247.64 464.41 242.66 453.51 238.01 442.59 234.65 431.58 232.83 420.61 231.65 409.63 232.19 399.2 234.32 389.36 237.1 379.48 241.38 370.13 246.95 361.35 252.99 352.45 260.13 344.04 268.16 336.13 276.41 328.03 285.38 320.33 294.86 313.07 304.38 305.52 314.34 298.34 324.58 291.56 334.77 284.47 345.24 277.75 355.89 271.53 366.49 265.04 377.31 259.08 388.27 253.84 399.22 248.49 410.34 243.99 421.52 240.54" stroke-dasharray="0 0" transform="rotate(48.48, 400, 400)" opacity="0.51"></path><path d="M418.82 251.42C429.14 248.29 438.9 246.44 447.99 245.83 457.02 245.52 465.31 246.51 472.71 248.7 479.95 251.26 486.21 255.01 491.37 259.81 496.31 264.94 500.12 271.06 502.76 277.99 505.27 285.17 506.74 293.08 507.26 301.53 507.98 310.15 508.07 319.23 507.73 328.6 508.1 338.06 508.45 347.74 508.94 357.49 510.59 367.28 512.62 377.08 515 386.75 518.56 396.41 522.07 405.47 525.29 413.85 529.02 422.22 531.95 429.93 533.86 436.94 535.62 443.98 536.01 450.39 534.96 456.17 533.42 462.09 530.36 467.49 525.9 472.41 520.95 477.64 514.72 482.55 507.43 487.18 499.81 492.3 491.32 497.29 482.19 502.15 472.92 507.6 463.17 512.98 453.11 518.17 443.03 523.88 432.72 529.31 422.32 534.22 411.92 539.36 401.91 543.47 392.34 546.45 382.72 549.25 373.48 550.7 364.63 550.78 355.66 550.46 347.01 548.7 338.69 545.59 330.18 542.03 321.94 537.19 314.01 531.24 305.86 524.94 298.01 517.66 290.56 509.6 282.96 501.33 275.82 492.41 269.33 483.03 262.87 473.57 257.2 463.75 252.53 453.72 248.18 443.69 245.03 433.49 243.28 423.26 242.11 413.03 242.52 403.24 244.39 393.95 246.85 384.62 250.69 375.74 255.73 367.34 261.2 358.85 267.73 350.77 275.1 343.13 282.72 335.32 291.04 327.87 299.88 320.82 308.8 313.53 318.16 306.57 327.79 300.01 337.43 293.19 347.33 286.75 357.37 280.78 367.4 274.61 377.61 268.95 387.88 263.98 398.15 258.94 408.5 254.69 418.82 251.42" stroke-dasharray="0 0" transform="rotate(52.52, 400, 400)" opacity="0.54"></path><path d="M415.13 262.29C424.57 259.34 433.43 257.55 441.6 256.88 449.73 256.46 457.11 257.22 463.65 259.06 470.07 261.22 475.58 264.45 480.11 268.63 484.49 273.11 487.9 278.48 490.3 284.62 492.68 290.97 494.18 298.01 494.91 305.58 495.88 313.29 496.34 321.45 496.43 329.92 497.17 338.46 497.86 347.24 498.63 356.12 500.37 365.02 502.36 373.97 504.55 382.84 507.74 391.71 510.8 400.06 513.56 407.83 516.8 415.6 519.33 422.81 520.98 429.43 522.81 439.16 519.89 456.23 514.99 463.8 510.92 468.99 505.69 473.9 499.46 478.55 492.95 483.62 485.58 488.54 477.55 493.3 469.38 498.55 460.67 503.67 451.58 508.56 442.46 513.87 433.03 518.86 423.4 523.35 413.78 528.02 404.42 531.74 395.38 534.45 386.32 537.03 377.52 538.41 369.05 538.58 360.49 538.44 352.17 537.03 344.14 534.42 335.97 531.45 328.03 527.33 320.4 522.19 312.61 516.76 305.11 510.41 298.02 503.3 290.84 496.02 284.12 488.09 278.02 479.68 271.99 471.19 266.71 462.3 262.37 453.16 258.33 444 255.39 434.63 253.73 425.16 252.59 415.69 252.88 406.56 254.5 397.84 256.63 389.09 260.03 380.7 264.54 372.72 269.45 364.66 275.34 356.95 282.03 349.61 288.97 342.14 296.6 334.98 304.73 328.19 312.98 321.2 321.65 314.53 330.6 308.24 339.59 301.73 348.83 295.6 358.2 289.93 367.57 284.09 377.08 278.77 386.6 274.09 396.13 269.36 405.69 265.37 415.13 262.29" stroke-dasharray="0 0" transform="rotate(56.56, 400, 400)" opacity="0.58"></path><path d="M410.65 273.17C419.22 270.4 427.2 268.68 434.51 267.97 441.78 267.47 448.35 268.02 454.13 269.55 462.28 272.7 474.24 283.88 478.07 291.59 480.37 297.15 481.96 303.35 482.91 310.05 484.12 316.88 484.91 324.15 485.39 331.72 486.43 339.36 487.41 347.25 488.38 355.26 490.17 363.29 492.09 371.41 494.1 379.5 496.93 387.58 499.57 395.24 501.91 402.42 504.67 409.6 506.82 416.33 508.21 422.56 509.83 431.77 507.62 448.25 503.6 455.69 500.27 460.77 495.89 465.62 490.6 470.23 485.09 475.17 478.75 479.97 471.75 484.57 464.62 489.56 456.92 494.39 448.79 498.95 440.62 503.85 432.08 508.41 423.26 512.47 414.44 516.69 405.77 520.04 397.33 522.47 388.86 524.82 380.59 526.11 372.56 526.34 364.46 526.33 356.56 525.21 348.9 523.04 341.15 520.58 333.6 517.1 326.34 512.69 318.99 508.05 311.91 502.56 305.24 496.35 298.53 489.99 292.27 483 286.61 475.53 281.04 467.98 276.17 460.01 272.18 451.75 268.46 443.47 265.74 434.93 264.18 426.24 263.07 417.55 263.25 409.1 264.63 400.98 266.46 392.84 269.43 384.98 273.4 377.45 277.74 369.86 282.99 362.55 288.99 355.58 295.23 348.49 302.11 341.68 309.49 335.19 317 328.56 324.93 322.22 333.13 316.23 341.39 310.09 349.89 304.3 358.51 298.96 367.15 293.5 375.89 288.53 384.62 284.16 393.37 279.77 402.09 276.05 410.65 273.17" stroke-dasharray="0 0" transform="rotate(60.599999999999994, 400, 400)" opacity="0.62"></path><path d="M405.62 284.05C413.31 281.47 420.45 279.83 426.96 279.1 436.36 278.72 451.67 282.75 457.47 286.98 462.52 292.26 469.29 306.43 471.3 315 472.73 320.97 473.8 327.37 474.6 334.07 475.88 340.83 477.07 347.85 478.2 355.01 479.99 362.2 481.83 369.5 483.65 376.82 486.14 384.14 488.4 391.13 490.35 397.72 492.67 404.33 494.44 410.56 495.57 416.41 496.94 425.07 495.17 440.84 491.84 448.07 489.12 453 485.47 457.71 481 462.2 476.36 466.96 470.95 471.55 464.89 475.94 458.73 480.63 452 485.13 444.79 489.34 437.55 493.81 429.89 497.95 421.9 501.59 413.91 505.37 405.97 508.35 398.17 510.52 390.36 512.63 382.66 513.82 375.15 514.08 367.59 514.17 360.19 513.29 352.99 511.48 345.73 509.47 338.66 506.54 331.86 502.79 325.01 498.86 318.43 494.15 312.25 488.78 306.06 483.28 300.3 477.18 295.11 470.6 290.03 463.96 285.6 456.89 281.96 449.49 278.57 442.08 276.08 434.38 274.63 426.47 273.57 418.56 273.65 410.83 274.79 403.33 276.33 395.82 278.88 388.52 282.33 381.49 286.11 374.42 290.72 367.57 296.01 361 301.53 354.35 307.65 347.94 314.24 341.82 320.97 335.59 328.1 329.63 335.5 324.01 342.97 318.27 350.67 312.87 358.47 307.9 366.31 302.84 374.24 298.23 382.13 294.2 390.05 290.15 397.92 286.72 405.62 284.05" stroke-dasharray="0 0" transform="rotate(64.64, 400, 400)" opacity="0.66"></path><path d="M400.29 294.93C410.29 291.78 427.55 289.79 434.7 290.88 441.2 292.97 451.15 300.96 454.69 306.64 457.85 313.06 462.37 328.4 464.07 337.04 465.52 342.95 466.86 349.12 468.09 355.46 469.84 361.82 471.56 368.33 473.2 374.89 475.37 381.46 477.28 387.78 478.87 393.79 481.49 402.69 484.15 419.07 483.82 426.6 482.62 434 476.07 447.89 470.78 454.44 466.89 458.94 462.3 463.28 457.1 467.4 451.82 471.75 445.99 475.89 439.67 479.73 433.33 483.77 426.54 487.47 419.39 490.71 412.24 494.06 405.07 496.69 397.97 498.6 390.86 500.47 383.82 501.54 376.89 501.81 369.95 501.95 363.12 501.26 356.47 499.77 349.78 498.13 343.27 495.69 337.01 492.52 330.73 489.22 324.71 485.22 319.07 480.61 313.45 475.91 308.23 470.65 303.54 464.92 298.97 459.14 294.99 452.93 291.72 446.38 288.67 439.82 286.42 432.95 285.08 425.84 284.07 418.73 284.07 411.73 285 404.89 286.25 398.04 288.41 391.35 291.36 384.86 294.59 378.34 298.56 372.01 303.15 365.9 307.94 359.74 313.29 353.78 319.08 348.09 325 342.32 331.29 336.79 337.85 331.58 344.48 326.29 351.32 321.31 358.28 316.73 365.27 312.1 372.34 307.89 379.38 304.2 386.44 300.5 393.45 297.38 400.29 294.93" stroke-dasharray="0 0" transform="rotate(68.68, 400, 400)" opacity="0.70"></path><path d="M394.94 305.8C406.94 301.57 417.14 300.32 425.27 301.73 433.37 303.62 439.53 308.13 443.74 314.74 448.35 321.72 451.63 330.58 453.79 340.66 457.22 350.89 460.27 362.12 462.75 373.78 466.84 385.43 469.61 396.39 470.73 406.35 472.24 416.45 471.25 425.82 467.71 434.26 463.88 443.19 457.37 451.54 448.56 458.94 439.54 467.05 428.49 474.26 415.87 479.84 403.26 485.74 390.39 488.97 377.88 489.54 365.36 489.79 353.14 487.15 341.84 481.95 330.57 476.34 320.33 468.35 311.92 458.53 303.95 448.55 298.2 436.99 295.54 424.38 293.92 411.76 295.77 399.33 300.49 387.56 306.11 375.71 314.25 364.37 324.08 354.01 334.39 343.43 346.01 333.72 358.12 325.47 370.39 317.09 382.93 310.28 394.94 305.8" stroke-dasharray="0 0" transform="rotate(72.72, 400, 400)" opacity="0.73"></path><path d="M389.86 316.68C400.23 312.88 409.12 311.65 416.33 312.71 423.56 314.11 429.24 317.76 433.37 323.25 437.88 329 441.31 336.41 443.74 344.98 447.16 353.65 450.08 363.32 452.3 373.51 455.72 383.7 457.87 393.46 458.56 402.48 459.64 411.61 458.65 420.2 455.58 428.01 452.36 436.19 446.91 443.82 439.46 450.55 431.88 457.78 422.45 464.13 411.52 468.96 400.6 474.04 389.3 476.8 378.25 477.28 367.21 477.58 356.41 475.43 346.42 471.11 336.53 466.51 327.58 459.83 320.26 451.5 313.34 443.05 308.34 433.12 305.99 422.12 304.46 411.12 305.88 400.13 309.74 389.64 314.32 379.09 321.08 368.93 329.34 359.61 338 350.16 347.87 341.48 358.21 334.12 368.71 326.7 379.48 320.67 389.86 316.68" stroke-dasharray="0 0" transform="rotate(76.76, 400, 400)" opacity="0.77"></path><path d="M385.31 327.56C394.1 324.22 401.75 323.05 408.09 323.81 414.46 324.8 419.66 327.69 423.65 332.14 427.95 336.77 431.38 342.85 433.93 349.99 437.2 357.2 439.91 365.36 441.85 374.1 444.65 382.85 446.26 391.37 446.59 399.35 447.26 407.43 446.25 415.12 443.56 422.16 440.83 429.46 436.27 436.27 430.04 442.22 423.73 448.52 415.83 453.98 406.57 458.08 397.31 462.36 387.66 464.66 378.15 465.06 368.69 465.35 359.4 463.62 350.84 460.06 342.4 456.34 334.78 450.85 328.58 443.91 322.71 436.89 318.48 428.53 316.44 419.15 315.03 409.76 316.07 400.27 319.13 391.13 322.74 381.96 328.19 373.08 334.93 364.91 342 356.67 350.13 349.11 358.74 342.69 367.47 336.26 376.51 331.04 385.31 327.56" stroke-dasharray="0 0" transform="rotate(80.80000000000001, 400, 400)" opacity="0.81"></path><path d="M381.52 338.43C392 335.05 408.53 336.8 414.59 341.42 418.56 345.05 421.84 349.9 424.34 355.7 427.33 361.53 429.76 368.23 431.4 375.54 433.63 382.84 434.77 390.07 434.82 396.94 435.14 403.87 434.11 410.53 431.75 416.67 429.42 422.97 425.64 428.84 420.52 433.94 415.36 439.26 408.89 443.83 401.27 447.21 393.65 450.7 385.67 452.56 377.79 452.87 369.95 453.12 362.26 451.73 355.19 448.87 348.23 445.92 341.97 441.5 336.89 435.87 332.08 430.18 328.6 423.33 326.89 415.55 325.63 407.77 326.34 399.83 328.68 392.12 331.41 384.4 335.63 376.88 340.95 369.95 346.49 362.99 352.96 356.6 359.89 351.19 366.91 345.78 374.26 341.38 381.52 338.43" stroke-dasharray="0 0" transform="rotate(84.84, 400, 400)" opacity="0.85"></path><path d="M378.71 349.31C390.24 344.74 399.72 345.78 406.22 351.07 413.37 356.6 418.68 366.03 420.95 377.76 424.68 389.49 424.37 401.39 420.28 411.48 416.35 421.97 407.94 431.09 395.91 436.33 383.87 441.88 370.76 442.03 359.55 437.6 348.73 432.98 340.36 423.82 337.34 411.45 335.51 399.08 339.62 385.99 347.44 374.77 355.87 363.54 367.17 354.15 378.71 349.31" stroke-dasharray="0 0" transform="rotate(88.88, 400, 400)" opacity="0.89"></path><path d="M377 360.19C385.61 356.66 393.09 357.28 398.52 361.07 404.33 364.97 408.69 371.87 410.5 380.71 413.11 389.54 412.53 398.71 409.21 406.56 406.03 414.61 399.67 421.54 390.76 425.45 381.84 429.53 372.21 429.59 364.03 426.3 356.12 422.93 350.02 416.19 347.79 406.98 346.25 397.77 348.99 387.91 354.47 379.42 360.3 370.95 368.39 363.87 377 360.19" stroke-dasharray="0 0" transform="rotate(92.92, 400, 400)" opacity="0.92"></path><path d="M376.5 371.07C387.97 366.33 397.89 372.42 400.05 384.28 403.6 396.13 397.84 409.5 386.09 414.57 374.34 419.95 361.44 414.48 358.24 402.28 356.3 390.08 365.02 376.08 376.5 371.07" stroke-dasharray="0 0" transform="rotate(96.96, 400, 400)" opacity="0.96"></path></g></svg>