<?xml version="1.0" encoding="UTF-8" standalone="no"?>
<!-- Generator: Adobe Illustrator 27.5.0, SVG Export Plug-In . SVG Version: 6.00 Build 0)  -->

<svg
   version="1.1"
   x="0px"
   y="0px"
   viewBox="0 0 368.42105 315.78947"
   xml:space="preserve"
   id="svg416"
   sodipodi:docname="circuit-bg.svg"
   inkscape:export-filename="4348099_591.svg"
   inkscape:export-xdpi="96"
   inkscape:export-ydpi="96"
   inkscape:version="1.4 (e7c3feb100, 2024-10-09)"
   width="700"
   height="600"
   xmlns:inkscape="http://www.inkscape.org/namespaces/inkscape"
   xmlns:sodipodi="http://sodipodi.sourceforge.net/DTD/sodipodi-0.dtd"
   xmlns="http://www.w3.org/2000/svg"
   xmlns:svg="http://www.w3.org/2000/svg"><defs
   id="defs416" /><sodipodi:namedview
   id="namedview416"
   pagecolor="#000000"
   bordercolor="#000000"
   borderopacity="0.25"
   inkscape:showpageshadow="2"
   inkscape:pageopacity="0.0"
   inkscape:pagecheckerboard="0"
   inkscape:deskcolor="#d1d1d1"
   inkscape:zoom="2.3228571"
   inkscape:cx="541.14392"
   inkscape:cy="470.32596"
   inkscape:window-width="1920"
   inkscape:window-height="1022"
   inkscape:window-x="0"
   inkscape:window-y="0"
   inkscape:window-maximized="1"
   inkscape:current-layer="svg416"
   showborder="true" />



<g
   id="Layer_2"
   style="fill:#ffffff;fill-opacity:0.391389"
   transform="translate(56.631596,-34.159378)">
	<rect
   x="160.127"
   y="191.689"
   style="fill:#ffffff;fill-opacity:0.391389"
   width="1.265"
   height="158.311"
   id="rect2" />
	<rect
   x="138.14"
   y="181.326"
   style="fill:#ffffff;fill-opacity:0.391389"
   width="1.265"
   height="18.113001"
   id="rect3" />
	<rect
   x="169.60201"
   y="139.257"
   style="fill:#ffffff;fill-opacity:0.391389"
   width="1.266"
   height="95.067001"
   id="rect4" />
	<rect
   x="164.19901"
   y="144.702"
   style="fill:#ffffff;fill-opacity:0.391389"
   width="1.266"
   height="80.028"
   id="rect5" />
	<rect
   x="196.783"
   y="189.295"
   style="fill:#ffffff;fill-opacity:0.391389"
   width="1.266"
   height="14.994"
   id="rect6" />
	<rect
   x="180.489"
   y="180.73599"
   style="fill:#ffffff;fill-opacity:0.391389"
   width="1.265"
   height="31.9"
   id="rect7" />
	<rect
   x="191.38"
   y="209.14999"
   style="fill:#ffffff;fill-opacity:0.391389"
   width="1.265"
   height="140.85001"
   id="rect8" />
	<rect
   x="194.082"
   y="213.76401"
   style="fill:#ffffff;fill-opacity:0.391389"
   width="1.266"
   height="136.23599"
   id="rect9" />
	<rect
   x="188.875"
   y="209.14999"
   style="fill:#ffffff;fill-opacity:0.391389"
   width="1.266"
   height="72.730003"
   id="rect10" />
	<rect
   x="164.19901"
   y="239.19099"
   style="fill:#ffffff;fill-opacity:0.391389"
   width="1.266"
   height="20.205"
   id="rect11" />
	<rect
   x="117.425"
   y="176.855"
   style="fill:#ffffff;fill-opacity:0.391389"
   width="29.127001"
   height="1.266"
   id="rect12" />
	
		<rect
   x="152.896"
   y="174.22701"
   transform="matrix(0.7071,-0.7071,0.7071,0.7071,-85.646,162.6555)"
   style="fill:#ffffff;fill-opacity:0.391389"
   width="1.266"
   height="20.98"
   id="rect13" />
	
		<rect
   x="143.521"
   y="219.61"
   transform="matrix(0.7069,-0.7073,0.7073,0.7069,-121.6541,169.8905)"
   style="fill:#ffffff;fill-opacity:0.391389"
   width="1.266"
   height="24.233"
   id="rect14" />
	
		<rect
   x="188.953"
   y="230.548"
   transform="matrix(0.7067,-0.7075,0.7075,0.7067,-115.5259,205.079)"
   style="fill:#ffffff;fill-opacity:0.391389"
   width="1.266"
   height="22.658001"
   id="rect15" />
	
		<rect
   x="112.855"
   y="209.222"
   transform="matrix(0.7073,-0.707,0.707,0.7073,-124.4197,145.5089)"
   style="fill:#ffffff;fill-opacity:0.391389"
   width="1.265"
   height="27.530001"
   id="rect16" />
	
		<rect
   x="156.967"
   y="170.545"
   transform="matrix(0.7071,-0.7071,0.7071,0.7071,-81.8507,164.4551)"
   style="fill:#ffffff;fill-opacity:0.391389"
   width="1.265"
   height="20.98"
   id="rect17" />
	
		<rect
   x="142.17101"
   y="186.55499"
   transform="matrix(0.7073,-0.7069,0.7069,0.7073,-94.2737,157.2888)"
   style="fill:#ffffff;fill-opacity:0.391389"
   width="1.266"
   height="11.868"
   id="rect18" />
	
		<rect
   x="129.81599"
   y="201.77"
   transform="matrix(0.7073,-0.7069,0.7069,0.7073,-108.6454,153.0078)"
   style="fill:#ffffff;fill-opacity:0.391389"
   width="1.266"
   height="11.868"
   id="rect19" />
	
		<rect
   x="131.334"
   y="224.83299"
   transform="matrix(0.7073,-0.7069,0.7069,0.7073,-124.5024,160.8235)"
   style="fill:#ffffff;fill-opacity:0.391389"
   width="1.265"
   height="11.868"
   id="rect20" />
	
		<rect
   x="149.89101"
   y="93.717003"
   transform="matrix(0.7071,-0.7071,0.7071,0.7071,-29.5982,136.9578)"
   style="fill:#ffffff;fill-opacity:0.391389"
   width="1.265"
   height="20.98"
   id="rect21" />
	<polygon
   style="fill:#ffffff;fill-opacity:0.391389"
   points="131.358,96.661 132.254,95.766 140.118,103.604 139.224,104.498 "
   id="polygon21" />
	
		<rect
   x="142.368"
   y="197.16499"
   transform="matrix(0.7074,-0.7068,0.7068,0.7074,-101.9322,160.6011)"
   style="fill:#ffffff;fill-opacity:0.391389"
   width="1.265"
   height="12.489"
   id="rect22" />
	<rect
   x="147.717"
   y="51.023998"
   style="fill:#ffffff;fill-opacity:0.391389"
   width="1.266"
   height="18.111"
   id="rect23" />
	
		<rect
   x="151.94501"
   y="66.862999"
   transform="matrix(0.7074,-0.7068,0.7068,0.7074,-7.0274,129.2394)"
   style="fill:#ffffff;fill-opacity:0.391389"
   width="1.266"
   height="12.489"
   id="rect24" />
	<rect
   x="144.12199"
   y="55.551998"
   style="fill:#ffffff;fill-opacity:0.391389"
   width="1.265"
   height="18.111"
   id="rect25" />
	<rect
   x="133.543"
   y="58.078999"
   style="fill:#ffffff;fill-opacity:0.391389"
   width="1.265"
   height="16.205999"
   id="rect26" />
	
		<rect
   x="150.14799"
   y="70.646004"
   transform="matrix(0.7073,-0.7069,0.7069,0.7073,-12.0216,129.8289)"
   style="fill:#ffffff;fill-opacity:0.391389"
   width="1.265"
   height="17.573999"
   id="rect27" />
	
		<rect
   x="156.666"
   y="132.784"
   transform="matrix(0.7064,-0.7078,0.7078,0.7064,-50.6077,151.4768)"
   style="fill:#ffffff;fill-opacity:0.391389"
   width="1.265"
   height="7.9219999"
   id="rect28" />
	
		<rect
   x="142.026"
   y="128.698"
   transform="matrix(0.7064,-0.7078,0.7078,0.7064,-52.0126,139.9244)"
   style="fill:#ffffff;fill-opacity:0.391389"
   width="1.265"
   height="7.921"
   id="rect29" />
	
		<rect
   x="156.388"
   y="154.073"
   transform="matrix(0.7065,-0.7078,0.7078,0.7065,-65.7571,157.5219)"
   style="fill:#ffffff;fill-opacity:0.391389"
   width="1.265"
   height="7.9219999"
   id="rect30" />
	
		<rect
   x="120.676"
   y="182.83"
   transform="matrix(0.7064,-0.7078,0.7078,0.7064,-96.5952,140.6962)"
   style="fill:#ffffff;fill-opacity:0.391389"
   width="1.265"
   height="7.9219999"
   id="rect31" />
	
		<rect
   x="123.927"
   y="205.297"
   transform="matrix(0.7064,-0.7078,0.7078,0.7064,-111.5445,149.6032)"
   style="fill:#ffffff;fill-opacity:0.391389"
   width="1.265"
   height="7.9219999"
   id="rect32" />
	
		<rect
   x="150.79601"
   y="138.621"
   transform="matrix(0.7064,-0.7078,0.7078,0.7064,-56.4623,149.0474)"
   style="fill:#ffffff;fill-opacity:0.391389"
   width="1.265"
   height="7.9219999"
   id="rect33" />
	<polygon
   style="fill:#ffffff;fill-opacity:0.391389"
   points="169.815,115.445 170.71,114.551 181.898,125.637 181.004,126.531 "
   id="polygon33" />
	<polygon
   style="fill:#ffffff;fill-opacity:0.391389"
   points="175.856,213.531 176.75,212.637 182.206,218.069 181.311,218.965 "
   id="polygon34" />
	<polygon
   style="fill:#ffffff;fill-opacity:0.391389"
   points="154.851,224.182 155.745,223.287 161.201,228.721 160.306,229.615 "
   id="polygon35" />
	<polygon
   style="fill:#ffffff;fill-opacity:0.391389"
   points="145.292,297.166 146.188,296.272 151.643,301.705 150.748,302.6 "
   id="polygon36" />
	
		<rect
   x="203.10201"
   y="143.36099"
   transform="matrix(0.7072,-0.7071,0.7071,0.7072,-44.9734,187.3896)"
   style="fill:#ffffff;fill-opacity:0.391389"
   width="1.265"
   height="9.2539997"
   id="rect36" />
	
		<rect
   x="208.283"
   y="143.36099"
   transform="matrix(0.7072,-0.7071,0.7071,0.7072,-43.4564,191.0513)"
   style="fill:#ffffff;fill-opacity:0.391389"
   width="1.265"
   height="9.2539997"
   id="rect37" />
	
		<rect
   x="205.46899"
   y="128.899"
   transform="matrix(0.7072,-0.7071,0.7071,0.7072,-34.0548,184.8283)"
   style="fill:#ffffff;fill-opacity:0.391389"
   width="1.265"
   height="9.2539997"
   id="rect38" />
	<polygon
   style="fill:#ffffff;fill-opacity:0.391389"
   points="166.986,125.763 167.88,124.869 177.122,134.151 176.227,135.046 "
   id="polygon38" />
	
		<rect
   x="174.933"
   y="96.305"
   transform="matrix(0.7071,-0.7071,0.7071,0.7071,-19.9485,153.7042)"
   style="fill:#ffffff;fill-opacity:0.391389"
   width="1.265"
   height="9.2550001"
   id="rect39" />
	
		<rect
   x="133.914"
   y="108.57"
   transform="matrix(0.7072,-0.707,0.707,0.7072,-41.7782,128.7413)"
   style="fill:#ffffff;fill-opacity:0.391389"
   width="1.265"
   height="12.484"
   id="rect40" />
	
		<rect
   x="186.60201"
   y="84.406998"
   transform="matrix(0.7071,-0.7071,0.7071,0.7071,-8.1164,158.4743)"
   style="fill:#ffffff;fill-opacity:0.391389"
   width="1.266"
   height="9.2550001"
   id="rect41" />
	<polygon
   style="fill:#ffffff;fill-opacity:0.391389"
   points="206.87,119.936 207.764,119.041 217.816,129.149 216.923,130.044 "
   id="polygon41" />
	<polygon
   style="fill:#ffffff;fill-opacity:0.391389"
   points="231.87,139.663 232.764,138.768 242.816,148.876 241.923,149.77 "
   id="polygon42" />
	
		<rect
   x="185.81599"
   y="109.557"
   transform="matrix(0.7077,-0.7065,0.7065,0.7077,-27.3901,165.6008)"
   style="fill:#ffffff;fill-opacity:0.391389"
   width="1.265"
   height="12.694"
   id="rect42" />
	
		<rect
   x="183.35001"
   y="88.919998"
   transform="matrix(0.7077,-0.7065,0.7065,0.7077,-13.5314,157.8266)"
   style="fill:#ffffff;fill-opacity:0.391389"
   width="1.265"
   height="12.694"
   id="rect43" />
	
		<rect
   x="210.056"
   y="238.00999"
   transform="matrix(0.7072,-0.7071,0.7071,0.7072,-110.5199,220.2975)"
   style="fill:#ffffff;fill-opacity:0.391389"
   width="1.265"
   height="11.122"
   id="rect44" />
	
		<rect
   x="167.946"
   y="257.32101"
   transform="matrix(0.7071,-0.7071,0.7071,0.7071,-136.5129,196.2111)"
   style="fill:#ffffff;fill-opacity:0.391389"
   width="1.265"
   height="11.122"
   id="rect45" />
	
		<rect
   x="163.453"
   y="236.12199"
   transform="matrix(0.7075,-0.7067,0.7067,0.7075,-118.3123,187.637)"
   style="fill:#ffffff;fill-opacity:0.391389"
   width="8.1610003"
   height="1.266"
   id="rect46" />
	<rect
   x="167.533"
   y="240.731"
   style="fill:#ffffff;fill-opacity:0.391389"
   width="1.266"
   height="15.613"
   id="rect47" />
	<rect
   x="172.937"
   y="224.201"
   style="fill:#ffffff;fill-opacity:0.391389"
   width="1.265"
   height="11.656"
   id="rect48" />
	
		<rect
   x="166.78799"
   y="237.66299"
   transform="matrix(0.7075,-0.7068,0.7068,0.7075,-118.4304,190.4716)"
   style="fill:#ffffff;fill-opacity:0.391389"
   width="8.1610003"
   height="1.266"
   id="rect49" />
	
		<rect
   x="190.634"
   y="206.09399"
   transform="matrix(0.7076,-0.7066,0.7066,0.7076,-89.1405,198.0161)"
   style="fill:#ffffff;fill-opacity:0.391389"
   width="8.1599998"
   height="1.265"
   id="rect50" />
	<rect
   x="199.485"
   y="193.908"
   style="fill:#ffffff;fill-opacity:0.391389"
   width="1.266"
   height="14.992"
   id="rect51" />
	
		<rect
   x="193.336"
   y="210.705"
   transform="matrix(0.7075,-0.7067,0.7067,0.7075,-91.6106,201.321)"
   style="fill:#ffffff;fill-opacity:0.391389"
   width="8.1599998"
   height="1.265"
   id="rect52" />
	<rect
   x="196.784"
   y="217.47301"
   style="fill:#ffffff;fill-opacity:0.391389"
   width="1.265"
   height="104.143"
   id="rect53" />
	
		<rect
   x="196.03799"
   y="214.414"
   transform="matrix(0.7075,-0.7067,0.7067,0.7075,-93.4416,204.3177)"
   style="fill:#ffffff;fill-opacity:0.391389"
   width="8.1599998"
   height="1.266"
   id="rect54" />
	
		<rect
   x="167.14301"
   y="252.381"
   transform="matrix(0.7076,-0.7066,0.7066,0.7076,-128.7186,194.9765)"
   style="fill:#ffffff;fill-opacity:0.391389"
   width="8.1599998"
   height="1.265"
   id="rect55" />
	
		<rect
   x="165.522"
   y="296.47299"
   transform="matrix(0.7076,-0.7066,0.7066,0.7076,-160.345,206.7097)"
   style="fill:#ffffff;fill-opacity:0.391389"
   width="8.1599998"
   height="1.265"
   id="rect56" />
	
		<rect
   x="182.726"
   y="283.68701"
   transform="matrix(0.7076,-0.7066,0.7066,0.7076,-146.2834,215.142)"
   style="fill:#ffffff;fill-opacity:0.391389"
   width="8.1599998"
   height="1.265"
   id="rect57" />
	
		<rect
   x="203.336"
   y="306.349"
   transform="matrix(0.7075,-0.7067,0.7067,0.7075,-156.2764,236.3637)"
   style="fill:#ffffff;fill-opacity:0.391389"
   width="8.1599998"
   height="1.266"
   id="rect58" />
	<rect
   x="183.472"
   y="188.394"
   style="fill:#ffffff;fill-opacity:0.391389"
   width="1.266"
   height="15.896"
   id="rect59" />
	
		<rect
   x="186.174"
   y="202.646"
   transform="matrix(0.7066,-0.7076,0.7076,0.7066,-91.4739,192.853)"
   style="fill:#ffffff;fill-opacity:0.391389"
   width="1.266"
   height="8.1599998"
   id="rect60" />
	
		<rect
   x="210.40199"
   y="209.536"
   transform="matrix(0.7076,-0.7066,0.7066,0.7076,-85.7931,213.0159)"
   style="fill:#ffffff;fill-opacity:0.391389"
   width="8.1610003"
   height="1.2640001"
   id="rect61" />
	
		<rect
   x="220.347"
   y="213.952"
   transform="matrix(0.7077,-0.7065,0.7065,0.7077,-86.0066,221.2832)"
   style="fill:#ffffff;fill-opacity:0.391389"
   width="8.1610003"
   height="1.2640001"
   id="rect62" />
	<rect
   x="190.114"
   y="119.936"
   style="fill:#ffffff;fill-opacity:0.391389"
   width="1.266"
   height="51.784"
   id="rect63" />
	<polygon
   style="fill:#ffffff;fill-opacity:0.391389"
   points="191.38,171.722 190.485,170.827 180.489,180.735 181.384,181.63 "
   id="polygon63" />
	<polygon
   style="fill:#ffffff;fill-opacity:0.391389"
   points="121.331,182.523 120.436,181.629 110.44,191.537 111.334,192.432 "
   id="polygon64" />
	<polygon
   style="fill:#ffffff;fill-opacity:0.391389"
   points="93.745,179.545 92.851,178.65 82.854,188.559 83.749,189.453 "
   id="polygon65" />
	<polygon
   style="fill:#ffffff;fill-opacity:0.391389"
   points="110.461,170.497 109.565,169.602 99.57,179.51 100.464,180.405 "
   id="polygon66" />
	<polygon
   style="fill:#ffffff;fill-opacity:0.391389"
   points="83.506,160.097 82.611,159.202 72.615,169.11 73.51,170.005 "
   id="polygon67" />
	<polygon
   style="fill:#ffffff;fill-opacity:0.391389"
   points="70.268,152.065 69.373,151.171 59.377,161.079 60.271,161.974 "
   id="polygon68" />
	<polygon
   style="fill:#ffffff;fill-opacity:0.391389"
   points="132.727,223.231 131.832,222.337 121.837,232.245 122.731,233.14 "
   id="polygon69" />
	<rect
   x="186.34801"
   y="127.801"
   style="fill:#ffffff;fill-opacity:0.391389"
   width="1.266"
   height="39.196999"
   id="rect69" />
	<polygon
   style="fill:#ffffff;fill-opacity:0.391389"
   points="187.613,167 186.719,166.105 179.371,173.333 180.266,174.227 "
   id="polygon70" />
	<polygon
   style="fill:#ffffff;fill-opacity:0.391389"
   points="246.092,145.691 245.197,144.796 241.077,148.876 241.972,149.77 "
   id="polygon71" />
	<polygon
   style="fill:#ffffff;fill-opacity:0.391389"
   points="154.232,184.936 153.337,184.042 145.989,191.27 146.884,192.164 "
   id="polygon72" />
	<polygon
   style="fill:#ffffff;fill-opacity:0.391389"
   points="194.362,179.388 193.468,178.493 183.472,188.401 184.367,189.295 "
   id="polygon73" />
	<polygon
   style="fill:#ffffff;fill-opacity:0.391389"
   points="132.199,197.887 131.305,196.993 121.309,206.9 122.204,207.795 "
   id="polygon74" />
	<polygon
   style="fill:#ffffff;fill-opacity:0.391389"
   points="155.556,196.898 154.661,196.003 144.665,205.911 145.561,206.805 "
   id="polygon75" />
	<polygon
   style="fill:#ffffff;fill-opacity:0.391389"
   points="140.396,200.334 139.501,199.439 130.449,208.453 131.344,209.347 "
   id="polygon76" />
	<polygon
   style="fill:#ffffff;fill-opacity:0.391389"
   points="124.334,208.598 123.438,207.703 110.912,220.188 111.807,221.081 "
   id="polygon77" />
	<polygon
   style="fill:#ffffff;fill-opacity:0.391389"
   points="217.226,161.935 216.331,161.041 206.335,170.949 207.23,171.843 "
   id="polygon78" />
	<rect
   x="169.815"
   y="83.546997"
   style="fill:#ffffff;fill-opacity:0.391389"
   width="1.265"
   height="31.9"
   id="rect78" />
	<rect
   x="188.282"
   y="45.007"
   style="fill:#ffffff;fill-opacity:0.391389"
   width="1.265"
   height="31.952"
   id="rect79" />
	<rect
   x="156.239"
   y="68.505997"
   style="fill:#ffffff;fill-opacity:0.391389"
   width="1.266"
   height="31.9"
   id="rect80" />
	<rect
   x="148.101"
   y="118.563"
   style="fill:#ffffff;fill-opacity:0.391389"
   width="1.266"
   height="6.4200001"
   id="rect81" />
	<polygon
   style="fill:#ffffff;fill-opacity:0.391389"
   points="176.154,79.04 175.26,78.145 169.815,83.546 170.71,84.44 "
   id="polygon81" />
	<polygon
   style="fill:#ffffff;fill-opacity:0.391389"
   points="201.533,101.805 202.428,100.911 213.617,111.997 212.722,112.892 "
   id="polygon82" />
	<polygon
   style="fill:#ffffff;fill-opacity:0.391389"
   points="177.524,71.302 178.419,70.406 189.608,81.492 188.713,82.387 "
   id="polygon83" />
	<rect
   x="201.533"
   y="69.906998"
   style="fill:#ffffff;fill-opacity:0.391389"
   width="1.266"
   height="31.9"
   id="rect83" />
	<rect
   x="215.69099"
   y="108.066"
   style="fill:#ffffff;fill-opacity:0.391389"
   width="1.266"
   height="20.208"
   id="rect84" />
	<rect
   x="212.98399"
   y="132.241"
   style="fill:#ffffff;fill-opacity:0.391389"
   width="1.266"
   height="15.131"
   id="rect85" />
	<polygon
   style="fill:#ffffff;fill-opacity:0.391389"
   points="212.424,60.893 211.528,59.998 201.533,69.906 202.428,70.8 "
   id="polygon85" />
	<polygon
   style="fill:#ffffff;fill-opacity:0.391389"
   points="189.586,44.978 188.69,44.083 178.695,53.991 179.59,54.886 "
   id="polygon86" />
	<rect
   x="211.14799"
   y="180.69299"
   style="fill:#ffffff;fill-opacity:0.391389"
   width="1.265"
   height="31.9"
   id="rect86" />
	<polygon
   style="fill:#ffffff;fill-opacity:0.391389"
   points="222.038,171.679 221.144,170.784 211.148,180.691 212.042,181.587 "
   id="polygon87" />
	<rect
   x="233.87399"
   y="196.8"
   style="fill:#ffffff;fill-opacity:0.391389"
   width="1.265"
   height="37.823002"
   id="rect87" />
	<polygon
   style="fill:#ffffff;fill-opacity:0.391389"
   points="224.249,187.785 225.144,186.891 235.139,196.798 234.245,197.693 "
   id="polygon88" />
	
		<rect
   x="109.823"
   y="159.767"
   transform="matrix(0.7071,-0.7071,0.7071,0.7071,-88.0386,127.9744)"
   style="fill:#ffffff;fill-opacity:0.391389"
   width="1.265"
   height="20.979"
   id="rect88" />
	
		<rect
   x="87.428001"
   y="154.26199"
   transform="matrix(0.7071,-0.7071,0.7071,0.7071,-90.7055,110.5257)"
   style="fill:#ffffff;fill-opacity:0.391389"
   width="1.265"
   height="20.979"
   id="rect89" />
	
		<rect
   x="75.718002"
   y="148.547"
   transform="matrix(0.7071,-0.7071,0.7071,0.7071,-90.094,100.5713)"
   style="fill:#ffffff;fill-opacity:0.391389"
   width="1.265"
   height="20.979"
   id="rect90" />
	<rect
   x="136.33701"
   y="144.702"
   style="fill:#ffffff;fill-opacity:0.391389"
   width="29.128"
   height="1.266"
   id="rect91" />
	<rect
   x="133.298"
   y="129.38"
   style="fill:#ffffff;fill-opacity:0.391389"
   width="21.382"
   height="1.265"
   id="rect92" />
	<rect
   x="206.31"
   y="160.058"
   style="fill:#ffffff;fill-opacity:0.391389"
   width="1.265"
   height="80.028"
   id="rect93" />
	<rect
   x="199.56799"
   y="162.08099"
   style="fill:#ffffff;fill-opacity:0.391389"
   width="1.266"
   height="5.0440001"
   id="rect94" />
	
		<rect
   x="142.088"
   y="239.774"
   transform="matrix(0.7073,-0.707,0.707,0.7073,-125.1794,178.5086)"
   style="fill:#ffffff;fill-opacity:0.391389"
   width="21.738001"
   height="1.266"
   id="rect95" />
	<rect
   x="166.26801"
   y="261.01199"
   style="fill:#ffffff;fill-opacity:0.391389"
   width="1.266"
   height="44.493999"
   id="rect96" />
	<rect
   x="204.082"
   y="309.418"
   style="fill:#ffffff;fill-opacity:0.391389"
   width="1.265"
   height="40.585999"
   id="rect97" />
	<rect
   x="201.869"
   y="326.16599"
   style="fill:#ffffff;fill-opacity:0.391389"
   width="1.266"
   height="23.837999"
   id="rect98" />
	<rect
   x="171.354"
   y="310.043"
   style="fill:#ffffff;fill-opacity:0.391389"
   width="1.265"
   height="39.960999"
   id="rect99" />
	<rect
   x="150.377"
   y="242.28101"
   style="fill:#ffffff;fill-opacity:0.391389"
   width="1.266"
   height="87.43"
   id="rect100" />
	<rect
   x="183.472"
   y="286.754"
   style="fill:#ffffff;fill-opacity:0.391389"
   width="1.266"
   height="63.25"
   id="rect101" />
	
		<rect
   x="198.908"
   y="167.76601"
   transform="matrix(0.7071,-0.7071,0.7071,0.7071,-64.5648,192.0331)"
   style="fill:#ffffff;fill-opacity:0.391389"
   width="1.266"
   height="12.387"
   id="rect102" />
	
		<rect
   x="218.20399"
   y="193.74699"
   transform="matrix(0.7071,-0.7071,0.7071,0.7071,-77.2841,213.285)"
   style="fill:#ffffff;fill-opacity:0.391389"
   width="1.265"
   height="12.387"
   id="rect103" />
	
		<rect
   x="217.02699"
   y="226.936"
   transform="matrix(0.7071,-0.7071,0.7071,0.7071,-101.0961,222.1744)"
   style="fill:#ffffff;fill-opacity:0.391389"
   width="1.265"
   height="12.387"
   id="rect104" />
	
		<rect
   x="223.403"
   y="146.006"
   transform="matrix(0.7071,-0.7071,0.7071,0.7071,-42.0013,203.0033)"
   style="fill:#ffffff;fill-opacity:0.391389"
   width="1.266"
   height="12.388"
   id="rect105" />
	<polygon
   style="fill:#ffffff;fill-opacity:0.391389"
   points="221.093,217.021 221.987,216.127 234.953,229.167 234.059,230.061 "
   id="polygon105" />
	
		<rect
   x="220.51801"
   y="173.92101"
   transform="matrix(0.7071,-0.7071,0.7071,0.7071,-62.5881,209.1153)"
   style="fill:#ffffff;fill-opacity:0.391389"
   width="1.265"
   height="12.387"
   id="rect106" />
	<rect
   x="203.10201"
   y="177.892"
   style="fill:#ffffff;fill-opacity:0.391389"
   width="1.265"
   height="24.642"
   id="rect107" />
	<rect
   x="225.08"
   y="183.67599"
   style="fill:#ffffff;fill-opacity:0.391389"
   width="13.011"
   height="1.266"
   id="rect108" />
	<polygon
   style="fill:#ffffff;fill-opacity:0.391389"
   points="224.109,218.625 223.216,217.73 206.31,234.535 207.204,235.431 "
   id="polygon108" />
	<polygon
   style="fill:#ffffff;fill-opacity:0.391389"
   points="177.066,155.994 176.172,155.099 159.266,171.904 160.161,172.8 "
   id="polygon109" />
	<polygon
   style="fill:#ffffff;fill-opacity:0.391389"
   points="189.582,113.803 188.688,112.907 171.781,129.713 172.676,130.608 "
   id="polygon110" />
	<polygon
   style="fill:#ffffff;fill-opacity:0.391389"
   points="167.16,293.43 166.316,292.585 150.365,308.441 151.21,309.286 "
   id="polygon111" />
	<polygon
   style="fill:#ffffff;fill-opacity:0.391389"
   points="195.137,258.926 194.293,258.081 166.603,285.478 167.447,286.322 "
   id="polygon112" />
	<polygon
   style="fill:#ffffff;fill-opacity:0.391389"
   points="234,236.305 233.106,235.409 218.218,250.021 219.112,250.917 "
   id="polygon113" />
	<polygon
   style="fill:#ffffff;fill-opacity:0.391389"
   points="245.417,239.055 244.523,238.158 229.635,252.771 230.529,253.666 "
   id="polygon114" />
	<polygon
   style="fill:#ffffff;fill-opacity:0.391389"
   points="227.396,140.702 226.502,139.807 206.309,160.055 207.203,160.949 "
   id="polygon115" />
	<polygon
   style="fill:#ffffff;fill-opacity:0.391389"
   points="247.518,116.553 246.624,115.657 241.837,120.522 242.732,121.417 "
   id="polygon116" />
	<polygon
   style="fill:#ffffff;fill-opacity:0.391389"
   points="240.874,134.579 239.98,133.683 235.193,138.548 236.089,139.443 "
   id="polygon117" />
	<polygon
   style="fill:#ffffff;fill-opacity:0.391389"
   points="235.974,151.914 235.08,151.019 230.293,155.884 231.189,156.778 "
   id="polygon118" />
	
		<rect
   x="197.495"
   y="155.84399"
   transform="matrix(0.7072,-0.7071,0.7071,0.7072,-50.2827,191.5469)"
   style="fill:#ffffff;fill-opacity:0.391389"
   width="17.212999"
   height="1.266"
   id="rect118" />
	<rect
   x="110.277"
   y="181.326"
   style="fill:#ffffff;fill-opacity:0.391389"
   width="29.128"
   height="1.266"
   id="rect119" />
	<rect
   x="227.556"
   y="122.197"
   style="fill:#ffffff;fill-opacity:0.391389"
   width="15.547"
   height="1.266"
   id="rect120" />
	<rect
   x="154.047"
   y="124.016"
   style="fill:#ffffff;fill-opacity:0.391389"
   width="1.2640001"
   height="10.381"
   id="rect121" />
	<rect
   x="139.033"
   y="124.016"
   style="fill:#ffffff;fill-opacity:0.391389"
   width="16.278"
   height="1.266"
   id="rect122" />
	
		<rect
   x="92.819"
   y="188.558"
   transform="matrix(0.7071,-0.7071,0.7071,0.7071,-103.5209,128.4661)"
   style="fill:#ffffff;fill-opacity:0.391389"
   width="20.98"
   height="1.266"
   id="rect123" />
	
		<rect
   x="100.684"
   y="206.09399"
   transform="matrix(0.7071,-0.7071,0.7071,0.7071,-113.6166,139.164)"
   style="fill:#ffffff;fill-opacity:0.391389"
   width="20.98"
   height="1.265"
   id="rect124" />
	<rect
   x="153.72"
   y="151.401"
   style="fill:#ffffff;fill-opacity:0.391389"
   width="1.266"
   height="18.111"
   id="rect125" />
	
		<rect
   x="135.85001"
   y="148.93401"
   transform="matrix(0.7068,-0.7074,0.7074,0.7068,-64.1437,144.3752)"
   style="fill:#ffffff;fill-opacity:0.391389"
   width="12.489"
   height="1.265"
   id="rect126" />
	
		<rect
   x="136.56"
   y="163.97099"
   transform="matrix(0.7068,-0.7074,0.7074,0.7068,-74.573,149.2853)"
   style="fill:#ffffff;fill-opacity:0.391389"
   width="12.489"
   height="1.265"
   id="rect127" />
	
		<rect
   x="92.773003"
   y="167.119"
   transform="matrix(0.7068,-0.7074,0.7074,0.7068,-89.637,119.2281)"
   style="fill:#ffffff;fill-opacity:0.391389"
   width="12.489"
   height="1.265"
   id="rect128" />
	
		<rect
   x="129.976"
   y="92.055"
   transform="matrix(0.7069,-0.7074,0.7074,0.7069,-25.631,123.5283)"
   style="fill:#ffffff;fill-opacity:0.391389"
   width="12.489"
   height="1.266"
   id="rect129" />
	
		<rect
   x="138.367"
   y="106.149"
   transform="matrix(0.7068,-0.7074,0.7074,0.7068,-33.1396,133.6056)"
   style="fill:#ffffff;fill-opacity:0.391389"
   width="12.488"
   height="1.265"
   id="rect130" />
	
		<rect
   x="157.666"
   y="129.101"
   transform="matrix(0.7068,-0.7074,0.7074,0.7068,-43.7179,153.9804)"
   style="fill:#ffffff;fill-opacity:0.391389"
   width="12.489"
   height="1.265"
   id="rect131" />
	
		<rect
   x="217.757"
   y="162.8"
   transform="matrix(0.7069,-0.7073,0.7073,0.7069,-49.9421,206.3501)"
   style="fill:#ffffff;fill-opacity:0.391389"
   width="12.489"
   height="1.266"
   id="rect132" />
	
		<rect
   x="128.30299"
   y="106.257"
   transform="matrix(0.7068,-0.7074,0.7074,0.7068,-36.1664,126.5167)"
   style="fill:#ffffff;fill-opacity:0.391389"
   width="12.488"
   height="1.265"
   id="rect133" />
	
		<rect
   x="143.228"
   y="85.811996"
   transform="matrix(0.7068,-0.7074,0.7074,0.7068,-17.3289,131.076)"
   style="fill:#ffffff;fill-opacity:0.391389"
   width="12.488"
   height="1.265"
   id="rect134" />
	
		<rect
   x="236.815"
   y="186.35201"
   transform="matrix(0.7073,-0.7069,0.7069,0.7073,-66.6502,224.2094)"
   style="fill:#ffffff;fill-opacity:0.391389"
   width="1.265"
   height="12.489"
   id="rect135" />
	<polygon
   style="fill:#ffffff;fill-opacity:0.391389"
   points="217.052,193.182 216.158,192.287 211.371,197.151 212.267,198.047 "
   id="polygon135" />
	<polygon
   style="fill:#ffffff;fill-opacity:0.391389"
   points="189.439,197.227 188.545,196.331 183.758,201.196 184.653,202.091 "
   id="polygon136" />
	
		<rect
   x="177.308"
   y="60.505001"
   transform="matrix(0.7069,-0.7073,0.7073,0.7069,9.6435,145.5461)"
   style="fill:#ffffff;fill-opacity:0.391389"
   width="6.244"
   height="1.265"
   id="rect136" />
	
		<rect
   x="147.24899"
   y="58.909"
   transform="matrix(0.7068,-0.7074,0.7074,0.7068,1.9651,123.8251)"
   style="fill:#ffffff;fill-opacity:0.391389"
   width="6.2449999"
   height="1.265"
   id="rect137" />
	
		<rect
   x="166.593"
   y="89.776001"
   transform="matrix(0.707,-0.7073,0.7073,0.707,-11.2491,153.6668)"
   style="fill:#ffffff;fill-opacity:0.391389"
   width="26.441999"
   height="1.266"
   id="rect138" />
	
		<rect
   x="214.735"
   y="93.319"
   transform="matrix(0.7078,-0.7065,0.7065,0.7078,-7.4703,181.2734)"
   style="fill:#ffffff;fill-opacity:0.391389"
   width="1.265"
   height="12.694"
   id="rect139" />
	
		<rect
   x="237.35201"
   y="107.543"
   transform="matrix(0.7078,-0.7065,0.7065,0.7078,-10.909,201.4081)"
   style="fill:#ffffff;fill-opacity:0.391389"
   width="1.265"
   height="12.694"
   id="rect140" />
	
		<rect
   x="201.79401"
   y="59.480999"
   transform="matrix(0.7078,-0.7064,0.7064,0.7078,13.9557,161.5326)"
   style="fill:#ffffff;fill-opacity:0.391389"
   width="0.88"
   height="8.8330002"
   id="rect141" />
	
		<rect
   x="204.524"
   y="56.721001"
   transform="matrix(0.7078,-0.7064,0.7064,0.7078,16.7025,162.6545)"
   style="fill:#ffffff;fill-opacity:0.391389"
   width="0.88"
   height="8.8330002"
   id="rect142" />
	
		<rect
   x="180.52"
   y="55.766998"
   transform="matrix(0.7075,-0.7067,0.7067,0.7075,6.0017,147.4753)"
   style="fill:#ffffff;fill-opacity:0.391389"
   width="1.265"
   height="21.441"
   id="rect143" />
	
		<rect
   x="174.92101"
   y="43.598999"
   transform="matrix(0.7078,-0.7065,0.7065,0.7078,16.0189,138.6161)"
   style="fill:#ffffff;fill-opacity:0.391389"
   width="1.265"
   height="12.694"
   id="rect144" />
	
		<rect
   x="139.82401"
   y="45.164001"
   transform="matrix(0.7077,-0.7065,0.7065,0.7077,4.6643,114.294)"
   style="fill:#ffffff;fill-opacity:0.391389"
   width="1.265"
   height="12.693"
   id="rect145" />
	<rect
   x="210.436"
   y="75.358002"
   style="fill:#ffffff;fill-opacity:0.391389"
   width="1.266"
   height="20.239"
   id="rect146" />
	<rect
   x="215.05901"
   y="79.882004"
   style="fill:#ffffff;fill-opacity:0.391389"
   width="1.266"
   height="20.239"
   id="rect147" />
	<rect
   x="241.83701"
   y="99.093002"
   style="fill:#ffffff;fill-opacity:0.391389"
   width="1.266"
   height="23.737"
   id="rect148" />
	<rect
   x="227.556"
   y="122.217"
   style="fill:#ffffff;fill-opacity:0.391389"
   width="1.266"
   height="8.177"
   id="rect149" />
	<rect
   x="229.616"
   y="114.449"
   style="fill:#ffffff;fill-opacity:0.391389"
   width="1.266"
   height="8.177"
   id="rect150" />
	<rect
   x="231.767"
   y="97.922997"
   style="fill:#ffffff;fill-opacity:0.391389"
   width="1.266"
   height="8.177"
   id="rect151" />
	
		<rect
   x="196.967"
   y="136.535"
   transform="matrix(0.7074,-0.7068,0.7068,0.7074,-35.8254,187.7879)"
   style="fill:#ffffff;fill-opacity:0.391389"
   width="23.899"
   height="1.265"
   id="rect152" />
	
		<rect
   x="210.51801"
   y="107.622"
   transform="matrix(0.7077,-0.7066,0.7066,0.7077,-13.2112,184.5784)"
   style="fill:#ffffff;fill-opacity:0.391389"
   width="11.86"
   height="1.266"
   id="rect153" />
	<rect
   x="125.858"
   y="168.24699"
   style="fill:#ffffff;fill-opacity:0.391389"
   width="29.128"
   height="1.265"
   id="rect154" />
	<rect
   x="175.856"
   y="134.14101"
   style="fill:#ffffff;fill-opacity:0.391389"
   width="1.266"
   height="79.390999"
   id="rect155" />
	<rect
   x="244.151"
   y="159.692"
   style="fill:#ffffff;fill-opacity:0.391389"
   width="1.266"
   height="79.390999"
   id="rect156" />
	<rect
   x="180.633"
   y="125.634"
   style="fill:#ffffff;fill-opacity:0.391389"
   width="1.266"
   height="38.314999"
   id="rect157" />
	<rect
   x="180.94099"
   y="218.069"
   style="fill:#ffffff;fill-opacity:0.391389"
   width="1.265"
   height="41.962002"
   id="rect158" />
	<polygon
   style="fill:#ffffff;fill-opacity:0.391389"
   points="172.733,215.695 173.628,214.801 179.084,220.234 178.189,221.129 "
   id="polygon158" />
	<rect
   x="177.81799"
   y="220.23399"
   style="fill:#ffffff;fill-opacity:0.391389"
   width="1.266"
   height="129.76601"
   id="rect159" />
	<rect
   x="217.73599"
   y="251.47501"
   style="fill:#ffffff;fill-opacity:0.391389"
   width="1.266"
   height="75.653"
   id="rect160" />
	<polygon
   style="fill:#ffffff;fill-opacity:0.391389"
   points="204.399,246.936 205.294,246.043 210.75,251.475 209.855,252.369 "
   id="polygon160" />
	<polygon
   style="fill:#ffffff;fill-opacity:0.391389"
   points="196.784,321.624 197.679,320.73 203.135,326.162 202.24,327.057 "
   id="polygon161" />
	<polygon
   style="fill:#ffffff;fill-opacity:0.391389"
   points="166.268,305.505 167.163,304.611 172.619,310.043 171.725,310.938 "
   id="polygon162" />
	<rect
   x="209.485"
   y="251.47501"
   style="fill:#ffffff;fill-opacity:0.391389"
   width="1.265"
   height="53.070999"
   id="rect162" />
	<rect
   x="204.399"
   y="246.936"
   style="fill:#ffffff;fill-opacity:0.391389"
   width="1.266"
   height="18.464001"
   id="rect163" />
	<rect
   x="202.188"
   y="212.59399"
   style="fill:#ffffff;fill-opacity:0.391389"
   width="1.265"
   height="20.240999"
   id="rect164" />
	<rect
   x="138.515"
   y="118.408"
   style="fill:#ffffff;fill-opacity:0.391389"
   width="23.128"
   height="1.265"
   id="rect165" />
	<rect
   x="74.750999"
   y="188.26801"
   style="fill:#ffffff;fill-opacity:0.391389"
   width="29.128"
   height="1.266"
   id="rect166" />
	<rect
   x="219.209"
   y="132.658"
   style="fill:#ffffff;fill-opacity:0.391389"
   width="16.914"
   height="10.487"
   id="rect167" />
	<rect
   x="227.666"
   y="166.341"
   style="fill:#ffffff;fill-opacity:0.391389"
   width="10.332"
   height="10.487"
   id="rect168" />
	<path
   style="fill:#ffffff;fill-opacity:0.391389"
   d="m 140.608,214.155 v 8.571 h 8.445 v -8.571 z m 6.237,6.33 h -4.027 v -4.088 h 4.027 z"
   id="path168" />
	<rect
   x="100.86"
   y="198.34"
   style="fill:#ffffff;fill-opacity:0.391389"
   width="6.0380001"
   height="6.1290002"
   id="rect169" />
	<rect
   x="187.76401"
   y="104.272"
   style="fill:#ffffff;fill-opacity:0.391389"
   width="4.7010002"
   height="10.487"
   id="rect170" />
	<rect
   x="231.436"
   y="128.798"
   style="fill:#ffffff;fill-opacity:0.391389"
   width="4.6880002"
   height="2.4920001"
   id="rect171" />
	<rect
   x="225.811"
   y="128.798"
   style="fill:#ffffff;fill-opacity:0.391389"
   width="4.6880002"
   height="2.4920001"
   id="rect172" />
	<path
   style="fill:#ffffff;fill-opacity:0.391389"
   d="m 137.748,221.266 c 0,2.218 -1.798,4.016 -4.016,4.016 -2.218,0 -4.016,-1.798 -4.016,-4.016 0,-2.218 1.798,-4.016 4.016,-4.016 2.218,0 4.016,1.798 4.016,4.016 z"
   id="path172" />
	<rect
   x="217.10899"
   y="249.68401"
   style="fill:#ffffff;fill-opacity:0.391389"
   width="2.3789999"
   height="2.3789999"
   id="rect173" />
	<rect
   x="72.392998"
   y="186.98399"
   style="fill:#ffffff;fill-opacity:0.391389"
   width="3.832"
   height="3.832"
   id="rect174" />
	<rect
   x="82.853996"
   y="165.752"
   style="fill:#ffffff;fill-opacity:0.391389"
   width="3.832"
   height="3.832"
   id="rect175" />
	<rect
   x="82.240997"
   y="177.52299"
   style="fill:#ffffff;fill-opacity:0.391389"
   width="2.529"
   height="2.529"
   id="rect176" />
	<g
   id="g178"
   style="fill:#ffffff;fill-opacity:0.391389">
		<rect
   x="175.71001"
   y="116.065"
   style="fill:#ffffff;fill-opacity:0.391389"
   width="5.8610001"
   height="1.284"
   id="rect177" />
		<rect
   x="177.99899"
   y="113.776"
   style="fill:#ffffff;fill-opacity:0.391389"
   width="1.283"
   height="5.8610001"
   id="rect178" />
	</g>
	<g
   id="g180"
   style="fill:#ffffff;fill-opacity:0.391389">
		<rect
   x="241.444"
   y="91.832001"
   style="fill:#ffffff;fill-opacity:0.391389"
   width="5.8610001"
   height="1.284"
   id="rect179" />
		<rect
   x="243.733"
   y="89.543999"
   style="fill:#ffffff;fill-opacity:0.391389"
   width="1.283"
   height="5.8610001"
   id="rect180" />
	</g>
	<g
   id="g182"
   style="fill:#ffffff;fill-opacity:0.391389">
		<rect
   x="152.381"
   y="204.125"
   style="fill:#ffffff;fill-opacity:0.391389"
   width="5.8610001"
   height="1.285"
   id="rect181" />
		<rect
   x="154.67"
   y="201.83701"
   style="fill:#ffffff;fill-opacity:0.391389"
   width="1.283"
   height="5.8610001"
   id="rect182" />
	</g>
	<g
   id="g184"
   style="fill:#ffffff;fill-opacity:0.391389">
		<rect
   x="212.552"
   y="217.049"
   style="fill:#ffffff;fill-opacity:0.391389"
   width="3.8610001"
   height="0.84799999"
   id="rect183" />
		<rect
   x="214.06"
   y="215.54201"
   style="fill:#ffffff;fill-opacity:0.391389"
   width="0.84600002"
   height="3.8610001"
   id="rect184" />
	</g>
	<g
   id="g185"
   style="fill:#ffffff;fill-opacity:0.391389">
		<polygon
   style="fill:#ffffff;fill-opacity:0.391389"
   points="216.74,258.454 211.968,258.454 214.354,256.168 "
   id="polygon184" />
		<rect
   x="213.561"
   y="258.19"
   style="fill:#ffffff;fill-opacity:0.391389"
   width="1.5880001"
   height="6.2709999"
   id="rect185" />
	</g>
	<g
   id="g186"
   style="fill:#ffffff;fill-opacity:0.391389">
		<polygon
   style="fill:#ffffff;fill-opacity:0.391389"
   points="168.654,171.667 166.499,171.667 167.577,172.698 "
   id="polygon185" />
		<rect
   x="167.218"
   y="168.95599"
   style="fill:#ffffff;fill-opacity:0.391389"
   width="0.71700001"
   height="2.8299999"
   id="rect186" />
	</g>
	<g
   id="g187"
   style="fill:#ffffff;fill-opacity:0.391389">
		<polygon
   style="fill:#ffffff;fill-opacity:0.391389"
   points="207.179,112.912 205.024,112.912 206.102,113.943 "
   id="polygon186" />
		<rect
   x="205.743"
   y="110.201"
   style="fill:#ffffff;fill-opacity:0.391389"
   width="0.71700001"
   height="2.8299999"
   id="rect187" />
	</g>
	<g
   id="g188"
   style="fill:#ffffff;fill-opacity:0.391389">
		<polygon
   style="fill:#ffffff;fill-opacity:0.391389"
   points="235.41,118.92 233.256,118.92 234.333,119.951 "
   id="polygon187" />
		<rect
   x="233.97501"
   y="116.209"
   style="fill:#ffffff;fill-opacity:0.391389"
   width="0.71700001"
   height="2.8299999"
   id="rect188" />
	</g>
	<g
   id="g189"
   style="fill:#ffffff;fill-opacity:0.391389">
		<polygon
   style="fill:#ffffff;fill-opacity:0.391389"
   points="137.017,138.691 133.108,138.691 135.063,140.562 "
   id="polygon188" />
		<rect
   x="134.412"
   y="133.77299"
   style="fill:#ffffff;fill-opacity:0.391389"
   width="1.301"
   height="5.1339998"
   id="rect189" />
	</g>
	<g
   id="g190"
   style="fill:#ffffff;fill-opacity:0.391389">
		<polygon
   style="fill:#ffffff;fill-opacity:0.391389"
   points="206.121,286.147 201.349,286.147 203.734,283.861 "
   id="polygon189" />
		<rect
   x="202.94099"
   y="285.883"
   style="fill:#ffffff;fill-opacity:0.391389"
   width="1.5880001"
   height="6.2709999"
   id="rect190" />
	</g>
	
		<rect
   x="219.799"
   y="224.02299"
   transform="matrix(0.7071,-0.7071,0.7071,0.7071,-95.4604,224.4874)"
   style="fill:#ffffff;fill-opacity:0.391389"
   width="6.9029999"
   height="6.9029999"
   id="rect191" />
	
		<rect
   x="215.064"
   y="179.24699"
   transform="matrix(0.7071,-0.7071,0.7071,0.7071,-64.4966,206.3619)"
   style="fill:#ffffff;fill-opacity:0.391389"
   width="3.5769999"
   height="3.5769999"
   id="rect192" />
	
		<rect
   x="108.587"
   y="211.043"
   transform="matrix(0.7071,-0.7071,0.7071,0.7071,-118.5018,141.1958)"
   style="fill:#ffffff;fill-opacity:0.391389"
   width="5.1760001"
   height="5.1760001"
   id="rect193" />
	
		<rect
   x="92.181999"
   y="161.967"
   transform="matrix(0.7071,-0.7071,0.7071,0.7071,-88.7624,115.6042)"
   style="fill:#ffffff;fill-opacity:0.391389"
   width="5.9439998"
   height="5.9439998"
   id="rect194" />
	
		<rect
   x="68.153999"
   y="160.69"
   transform="matrix(0.7071,-0.7071,0.7071,0.7071,-94.2125,96.5831)"
   style="fill:#ffffff;fill-opacity:0.391389"
   width="2.6429999"
   height="2.6429999"
   id="rect195" />
	<path
   style="fill:#ffffff;fill-opacity:0.391389"
   d="m 69.477,156.021 -5.992,5.99 5.992,5.991 5.99,-5.991 z m -0.001,9.488 -3.497,-3.497 3.497,-3.498 3.497,3.498 z"
   id="path195" />
	
		<rect
   x="242.61"
   y="126.479"
   transform="matrix(0.7071,-0.7071,0.7071,0.7071,-19.4461,211.1872)"
   style="fill:#ffffff;fill-opacity:0.391389"
   width="5.1760001"
   height="5.1760001"
   id="rect196" />
	
		<rect
   x="235.093"
   y="88.731003"
   transform="matrix(0.7073,-0.7069,0.7069,0.7073,5.1743,194.3802)"
   style="fill:#ffffff;fill-opacity:0.391389"
   width="4.4229999"
   height="4.4229999"
   id="rect197" />
	
		<rect
   x="211.01401"
   y="64.578003"
   transform="matrix(0.7072,-0.707,0.707,0.7072,14.6085,171.7595)"
   style="fill:#ffffff;fill-opacity:0.391389"
   width="7.329"
   height="7.329"
   id="rect198" />
	<path
   style="fill:#ffffff;fill-opacity:0.391389"
   d="m 179.813,38.185 -4.905,4.905 4.905,4.908 4.907,-4.908 z m -3.179,4.905 3.18,-3.179 3.18,3.179 -3.18,3.182 z"
   id="path198" />
	
		<rect
   x="210.049"
   y="102.019"
   transform="matrix(0.7073,-0.7069,0.7069,0.7073,-11.7075,180.9362)"
   style="fill:#ffffff;fill-opacity:0.391389"
   width="5.1729999"
   height="5.1729999"
   id="rect199" />
	
		<rect
   x="138.493"
   y="83.507004"
   transform="matrix(0.707,-0.7072,0.7072,0.707,-19.5534,124.9892)"
   style="fill:#ffffff;fill-opacity:0.391389"
   width="5.1760001"
   height="5.1760001"
   id="rect200" />
	<rect
   x="183.116"
   y="134.599"
   style="fill:#ffffff;fill-opacity:0.391389"
   width="1.933"
   height="15.345"
   id="rect201" />
	<polygon
   style="fill:#ffffff;fill-opacity:0.391389"
   points="147.172,143.287 137.625,133.773 137.625,143.287 "
   id="polygon201" />
	<rect
   x="124.56"
   y="183.83299"
   style="fill:#ffffff;fill-opacity:0.391389"
   width="12.398"
   height="3.198"
   id="rect202" />
</g><g
   id="Layer_3"
   style="fill:#ffffff;fill-opacity:0.391389"
   transform="translate(56.631596,-34.159378)">
	<path
   style="fill:#ffffff;fill-opacity:0.391389"
   d="m 138.041,47.027 c 0,1.068 -0.865,1.934 -1.933,1.934 -1.068,0 -1.933,-0.866 -1.933,-1.934 0,-1.067 0.865,-1.933 1.933,-1.933 1.068,0 1.933,0.866 1.933,1.933 z"
   id="path202" />
	<path
   style="fill:#ffffff;fill-opacity:0.391389"
   d="m 143.792,109.998 c 0,1.395 -1.131,2.526 -2.527,2.526 -1.395,0 -2.526,-1.131 -2.526,-2.526 0,-1.396 1.131,-2.526 2.526,-2.526 1.396,0 2.527,1.131 2.527,2.526 z"
   id="path203" />
	<path
   style="fill:#ffffff;fill-opacity:0.391389"
   d="m 140.682,102.826 c 0,1.067 -0.865,1.933 -1.934,1.933 -1.066,0 -1.932,-0.866 -1.932,-1.933 0,-1.068 0.865,-1.933 1.932,-1.933 1.068,0 1.934,0.865 1.934,1.933 z"
   id="path204" />
	<circle
   style="fill:#ffffff;fill-opacity:0.391389"
   cx="134.17599"
   cy="74.285004"
   r="1.933"
   id="circle204" />
	<path
   style="fill:#ffffff;fill-opacity:0.391389"
   d="m 162.023,133.499 c 0,1.068 -0.865,1.933 -1.933,1.933 -1.067,0 -1.934,-0.865 -1.934,-1.933 0,-1.067 0.866,-1.933 1.934,-1.933 1.067,0 1.933,0.866 1.933,1.933 z"
   id="path205" />
	<path
   style="fill:#ffffff;fill-opacity:0.391389"
   d="m 222.113,167.199 c 0,1.067 -0.865,1.933 -1.933,1.933 -1.067,0 -1.933,-0.865 -1.933,-1.933 0,-1.068 0.865,-1.934 1.933,-1.934 1.068,0.001 1.933,0.866 1.933,1.934 z"
   id="path206" />
	<path
   style="fill:#ffffff;fill-opacity:0.391389"
   d="m 211.81,174.295 c 0,0.463 -0.375,0.838 -0.838,0.838 -0.463,0 -0.838,-0.375 -0.838,-0.838 0,-0.463 0.375,-0.838 0.838,-0.838 0.463,0 0.838,0.375 0.838,0.838 z"
   id="path207" />
	<path
   style="fill:#ffffff;fill-opacity:0.391389"
   d="m 215.887,171.047 c 0,0.463 -0.375,0.838 -0.838,0.838 -0.463,0 -0.838,-0.375 -0.838,-0.838 0,-0.463 0.375,-0.838 0.838,-0.838 0.463,-0.001 0.838,0.374 0.838,0.838 z"
   id="path208" />
	<path
   style="fill:#ffffff;fill-opacity:0.391389"
   d="m 177.789,78.677 c 0,1.068 -0.864,1.933 -1.933,1.933 -1.067,0 -1.933,-0.865 -1.933,-1.933 0,-1.067 0.865,-1.933 1.933,-1.933 1.069,0.001 1.933,0.866 1.933,1.933 z"
   id="path209" />
	<path
   style="fill:#ffffff;fill-opacity:0.391389"
   d="m 190.314,99.666 c 0,1.067 -0.865,1.933 -1.933,1.933 -1.067,0 -1.933,-0.866 -1.933,-1.933 0,-1.067 0.865,-1.933 1.933,-1.933 1.068,0 1.933,0.866 1.933,1.933 z"
   id="path210" />
	<path
   style="fill:#ffffff;fill-opacity:0.391389"
   d="m 208.729,119.041 c 0,1.068 -0.866,1.933 -1.933,1.933 -1.067,0 -1.934,-0.865 -1.934,-1.933 0,-1.067 0.866,-1.933 1.934,-1.933 1.066,10e-4 1.933,0.866 1.933,1.933 z"
   id="path211" />
	<path
   style="fill:#ffffff;fill-opacity:0.391389"
   d="m 228.593,93.172 c 0,0.773 -0.627,1.399 -1.398,1.399 -0.773,0 -1.4,-0.626 -1.4,-1.399 0,-0.773 0.627,-1.399 1.4,-1.399 0.771,0 1.398,0.626 1.398,1.399 z"
   id="path212" />
	<path
   style="fill:#ffffff;fill-opacity:0.391389"
   d="m 231.494,89.544 c 0,0.773 -0.627,1.399 -1.399,1.399 -0.772,0 -1.399,-0.626 -1.399,-1.399 0,-0.773 0.627,-1.399 1.399,-1.399 0.772,0 1.399,0.626 1.399,1.399 z"
   id="path213" />
	<path
   style="fill:#ffffff;fill-opacity:0.391389"
   d="m 234.395,85.915 c 0,0.773 -0.627,1.399 -1.399,1.399 -0.772,0 -1.399,-0.626 -1.399,-1.399 0,-0.772 0.627,-1.399 1.399,-1.399 0.773,0 1.399,0.626 1.399,1.399 z"
   id="path214" />
	<path
   style="fill:#ffffff;fill-opacity:0.391389"
   d="m 175.475,111.754 c 0,0.688 -0.558,1.245 -1.245,1.245 -0.688,0 -1.246,-0.557 -1.246,-1.245 0,-0.688 0.557,-1.245 1.246,-1.245 0.687,0 1.245,0.557 1.245,1.245 z"
   id="path215" />
	<path
   style="fill:#ffffff;fill-opacity:0.391389"
   d="m 215.55,147.153 c 0,1.067 -0.865,1.933 -1.933,1.933 -1.068,0 -1.934,-0.865 -1.934,-1.933 0,-1.068 0.865,-1.934 1.934,-1.934 1.068,0.001 1.933,0.866 1.933,1.934 z"
   id="path216" />
	<path
   style="fill:#ffffff;fill-opacity:0.391389"
   d="m 208.729,151.019 c 0,1.067 -0.866,1.932 -1.933,1.932 -1.067,0 -1.934,-0.865 -1.934,-1.932 0,-1.068 0.866,-1.933 1.934,-1.933 1.066,0 1.933,0.865 1.933,1.933 z"
   id="path217" />
	<path
   style="fill:#ffffff;fill-opacity:0.391389"
   d="m 205.668,202.533 c 0,1.068 -0.865,1.933 -1.934,1.933 -1.067,0 -1.932,-0.864 -1.932,-1.933 0,-1.066 0.864,-1.933 1.932,-1.933 1.069,0.001 1.934,0.867 1.934,1.933 z"
   id="path218" />
	<path
   style="fill:#ffffff;fill-opacity:0.391389"
   d="m 202.051,193.776 c 0,1.067 -0.865,1.933 -1.932,1.933 -1.068,0 -1.934,-0.865 -1.934,-1.933 0,-1.068 0.865,-1.933 1.934,-1.933 1.067,0.001 1.932,0.866 1.932,1.933 z"
   id="path219" />
	<path
   style="fill:#ffffff;fill-opacity:0.391389"
   d="m 181.895,173.653 c 0,1.067 -0.866,1.933 -1.933,1.933 -1.068,0 -1.933,-0.865 -1.933,-1.933 0,-1.068 0.864,-1.934 1.933,-1.934 1.067,0.001 1.933,0.866 1.933,1.934 z"
   id="path220" />
	<path
   style="fill:#ffffff;fill-opacity:0.391389"
   d="m 188.914,127.801 c 0,1.067 -0.866,1.933 -1.934,1.933 -1.066,0 -1.932,-0.865 -1.932,-1.933 0,-1.068 0.865,-1.933 1.932,-1.933 1.068,0 1.934,0.866 1.934,1.933 z"
   id="path221" />
	<path
   style="fill:#ffffff;fill-opacity:0.391389"
   d="m 219.416,207.217 c 0,1.066 -0.866,1.934 -1.934,1.934 -1.067,0 -1.933,-0.867 -1.933,-1.934 0,-1.067 0.865,-1.933 1.933,-1.933 1.068,0 1.934,0.865 1.934,1.933 z"
   id="path222" />
	<path
   style="fill:#ffffff;fill-opacity:0.391389"
   d="m 229.694,211.254 c 0,1.066 -0.866,1.934 -1.933,1.934 -1.068,0 -1.934,-0.867 -1.934,-1.934 0,-1.067 0.865,-1.932 1.934,-1.932 1.067,0 1.933,0.864 1.933,1.932 z"
   id="path223" />
	<path
   style="fill:#ffffff;fill-opacity:0.391389"
   d="m 236.964,234.963 c 0,1.636 -1.328,2.965 -2.964,2.965 -1.638,0 -2.964,-1.329 -2.964,-2.965 0,-1.636 1.326,-2.961 2.964,-2.961 1.636,0 2.964,1.325 2.964,2.961 z"
   id="path224" />
	<path
   style="fill:#ffffff;fill-opacity:0.391389"
   d="m 239.277,184.189 c 0,1.066 -0.866,1.933 -1.934,1.933 -1.067,0 -1.933,-0.866 -1.933,-1.933 0,-1.068 0.865,-1.934 1.933,-1.934 1.068,0.001 1.934,0.866 1.934,1.934 z"
   id="path225" />
	<path
   style="fill:#ffffff;fill-opacity:0.391389"
   d="m 223.34,171.425 c 0,1.066 -0.866,1.933 -1.934,1.933 -1.067,0 -1.933,-0.866 -1.933,-1.933 0,-1.068 0.865,-1.934 1.933,-1.934 1.068,10e-4 1.934,0.866 1.934,1.934 z"
   id="path226" />
	<path
   style="fill:#ffffff;fill-opacity:0.391389"
   d="m 235.039,188.198 c 0,1.067 -0.865,1.933 -1.933,1.933 -1.067,0 -1.933,-0.865 -1.933,-1.933 0,-1.067 0.865,-1.933 1.933,-1.933 1.068,0.001 1.933,0.866 1.933,1.933 z"
   id="path227" />
	<path
   style="fill:#ffffff;fill-opacity:0.391389"
   d="m 242.786,195.844 c 0,1.137 -0.921,2.057 -2.058,2.057 -1.137,0 -2.058,-0.92 -2.058,-2.057 0,-1.137 0.921,-2.059 2.058,-2.059 1.137,0 2.058,0.922 2.058,2.059 z"
   id="path228" />
	<circle
   style="fill:#ffffff;fill-opacity:0.391389"
   cx="225.08"
   cy="187.73199"
   r="1.495"
   id="circle228" />
	<path
   style="fill:#ffffff;fill-opacity:0.391389"
   d="m 218.526,161.602 c 0,1.066 -0.866,1.933 -1.934,1.933 -1.068,0 -1.933,-0.866 -1.933,-1.933 0,-1.068 0.865,-1.933 1.933,-1.933 1.068,0 1.934,0.865 1.934,1.933 z"
   id="path229" />
	<path
   style="fill:#ffffff;fill-opacity:0.391389"
   d="m 197.116,169.492 c 0,1.066 -0.866,1.933 -1.934,1.933 -1.068,0 -1.933,-0.866 -1.933,-1.933 0,-1.068 0.865,-1.933 1.933,-1.933 1.068,0 1.934,0.865 1.934,1.933 z"
   id="path230" />
	<path
   style="fill:#ffffff;fill-opacity:0.391389"
   d="m 180.464,104.05 c 0,1.067 -0.866,1.933 -1.933,1.933 -1.068,0 -1.934,-0.866 -1.934,-1.933 0,-1.068 0.865,-1.932 1.934,-1.932 1.067,0 1.933,0.864 1.933,1.932 z"
   id="path231" />
	<path
   style="fill:#ffffff;fill-opacity:0.391389"
   d="m 160.18,101.371 c 0,1.826 -1.482,3.309 -3.307,3.309 -1.828,0 -3.309,-1.482 -3.309,-3.309 0,-1.827 1.48,-3.306 3.309,-3.306 1.825,0 3.307,1.479 3.307,3.306 z"
   id="path232" />
	<path
   style="fill:#ffffff;fill-opacity:0.391389"
   d="m 192.134,92.152 c 0,1.067 -0.866,1.933 -1.933,1.933 -1.067,0 -1.934,-0.866 -1.934,-1.933 0,-1.067 0.866,-1.933 1.934,-1.933 1.067,0.001 1.933,0.866 1.933,1.933 z"
   id="path233" />
	<path
   style="fill:#ffffff;fill-opacity:0.391389"
   d="m 248.894,116.147 c 0,1.066 -0.866,1.933 -1.934,1.933 -1.067,0 -1.933,-0.866 -1.933,-1.933 0,-1.068 0.865,-1.933 1.933,-1.933 1.067,0.001 1.934,0.865 1.934,1.933 z"
   id="path234" />
	<path
   style="fill:#ffffff;fill-opacity:0.391389"
   d="m 244.403,99.56 c 0,1.066 -0.866,1.933 -1.934,1.933 -1.068,0 -1.933,-0.866 -1.933,-1.933 0,-1.068 0.865,-1.933 1.933,-1.933 1.068,0 1.934,0.864 1.934,1.933 z"
   id="path235" />
	<path
   style="fill:#ffffff;fill-opacity:0.391389"
   d="m 242.25,134.173 c 0,1.066 -0.866,1.933 -1.934,1.933 -1.067,0 -1.933,-0.867 -1.933,-1.933 0,-1.068 0.865,-1.933 1.933,-1.933 1.068,0.001 1.934,0.865 1.934,1.933 z"
   id="path236" />
	<path
   style="fill:#ffffff;fill-opacity:0.391389"
   d="m 247.96,145.244 c 0,1.376 -1.118,2.495 -2.496,2.495 -1.378,0 -2.495,-1.119 -2.495,-2.495 0,-1.379 1.117,-2.495 2.495,-2.495 1.378,0 2.496,1.115 2.496,2.495 z"
   id="path237" />
	<path
   style="fill:#ffffff;fill-opacity:0.391389"
   d="m 248.836,156.974 c 0,2.29 -1.86,4.151 -4.152,4.151 -2.293,0 -4.151,-1.861 -4.151,-4.151 0,-2.295 1.858,-4.15 4.151,-4.15 2.292,0 4.152,1.855 4.152,4.15 z"
   id="path238" />
	<path
   style="fill:#ffffff;fill-opacity:0.391389"
   d="m 237.999,151.019 c 0,1.214 -0.986,2.201 -2.202,2.201 -1.216,0 -2.201,-0.987 -2.201,-2.201 0,-1.217 0.985,-2.201 2.201,-2.201 1.216,0 2.202,0.984 2.202,2.201 z"
   id="path239" />
	<path
   style="fill:#ffffff;fill-opacity:0.391389"
   d="m 217.002,247.951 c 0,1.066 -0.866,1.933 -1.934,1.933 -1.067,0 -1.933,-0.866 -1.933,-1.933 0,-1.068 0.865,-1.933 1.933,-1.933 1.068,0.001 1.934,0.865 1.934,1.933 z"
   id="path240" />
	<path
   style="fill:#ffffff;fill-opacity:0.391389"
   d="m 183.051,212.477 c 0.064,1.066 -0.748,1.98 -1.813,2.044 -1.065,0.065 -1.981,-0.747 -2.045,-1.813 -0.063,-1.066 0.748,-1.982 1.814,-2.045 1.064,-0.063 1.98,0.748 2.044,1.814 z"
   id="path241" />
	<path
   style="fill:#ffffff;fill-opacity:0.391389"
   d="m 183.504,259.914 c 0.063,1.066 -0.749,1.981 -1.814,2.045 -1.066,0.065 -1.982,-0.747 -2.045,-1.813 -0.064,-1.066 0.748,-1.982 1.813,-2.045 1.065,-0.064 1.981,0.748 2.046,1.813 z"
   id="path242" />
	<path
   style="fill:#ffffff;fill-opacity:0.391389"
   d="m 175.273,215.448 c 0.063,1.066 -0.749,1.982 -1.815,2.045 -1.065,0.063 -1.981,-0.747 -2.045,-1.813 -0.064,-1.064 0.747,-1.98 1.813,-2.045 1.066,-0.065 1.982,0.748 2.047,1.813 z"
   id="path243" />
	<path
   style="fill:#ffffff;fill-opacity:0.391389"
   d="m 175.499,250.667 c 0.064,1.064 -0.748,1.979 -1.813,2.044 -1.065,0.063 -1.981,-0.748 -2.045,-1.813 -0.064,-1.065 0.748,-1.981 1.813,-2.045 1.065,-0.064 1.981,0.749 2.045,1.814 z"
   id="path244" />
	<path
   style="fill:#ffffff;fill-opacity:0.391389"
   d="m 173.878,294.758 c 0.064,1.065 -0.748,1.98 -1.813,2.045 -1.066,0.064 -1.982,-0.748 -2.045,-1.813 -0.064,-1.066 0.748,-1.982 1.813,-2.046 1.065,-0.064 1.981,0.749 2.045,1.814 z"
   id="path245" />
	<path
   style="fill:#ffffff;fill-opacity:0.391389"
   d="m 175.499,224.086 c 0.064,1.064 -0.748,1.98 -1.813,2.045 -1.065,0.063 -1.981,-0.748 -2.045,-1.814 -0.064,-1.065 0.748,-1.981 1.813,-2.046 1.065,-0.063 1.981,0.749 2.045,1.815 z"
   id="path246" />
	<path
   style="fill:#ffffff;fill-opacity:0.391389"
   d="m 133.499,197.526 c 0.064,1.065 -0.748,1.981 -1.813,2.046 -1.065,0.063 -1.981,-0.748 -2.045,-1.814 -0.064,-1.065 0.748,-1.981 1.813,-2.045 1.065,-0.065 1.981,0.748 2.045,1.813 z"
   id="path247" />
	<path
   style="fill:#ffffff;fill-opacity:0.391389"
   d="m 120.968,198.746 c 0.064,1.065 -0.748,1.98 -1.814,2.045 -1.065,0.064 -1.981,-0.748 -2.045,-1.814 -0.063,-1.065 0.748,-1.981 1.813,-2.046 1.065,-0.063 1.981,0.749 2.046,1.815 z"
   id="path248" />
	<path
   style="fill:#ffffff;fill-opacity:0.391389"
   d="m 148.801,196.57 c 0.064,1.065 -0.748,1.982 -1.814,2.045 -1.065,0.064 -1.981,-0.748 -2.045,-1.813 -0.064,-1.066 0.748,-1.982 1.813,-2.045 1.066,-0.064 1.981,0.748 2.046,1.813 z"
   id="path249" />
	<path
   style="fill:#ffffff;fill-opacity:0.391389"
   d="m 208.034,145.22 c 0,1.068 -0.865,1.934 -1.933,1.934 -1.067,0 -1.933,-0.866 -1.933,-1.934 0,-1.067 0.865,-1.933 1.933,-1.933 1.068,0 1.933,0.865 1.933,1.933 z"
   id="path250" />
	<path
   style="fill:#ffffff;fill-opacity:0.391389"
   d="m 213.002,75.358 c 0,1.067 -0.865,1.933 -1.932,1.933 -1.068,0 -1.934,-0.866 -1.934,-1.933 0,-1.067 0.865,-1.933 1.934,-1.933 1.067,0 1.932,0.865 1.932,1.933 z"
   id="path251" />
	<path
   style="fill:#ffffff;fill-opacity:0.391389"
   d="m 175.247,267.607 c 0,1.067 -0.865,1.933 -1.933,1.933 -1.068,0 -1.934,-0.865 -1.934,-1.933 0,-1.067 0.865,-1.934 1.934,-1.934 1.068,10e-4 1.933,0.867 1.933,1.934 z"
   id="path252" />
	<path
   style="fill:#ffffff;fill-opacity:0.391389"
   d="m 156.285,151.401 c 0,1.067 -0.865,1.933 -1.933,1.933 -1.068,0 -1.934,-0.866 -1.934,-1.933 0,-1.068 0.866,-1.933 1.934,-1.933 1.068,0 1.933,0.865 1.933,1.933 z"
   id="path253" />
	<path
   style="fill:#ffffff;fill-opacity:0.391389"
   d="m 97.858,196.792 c 0,1.067 -0.865,1.933 -1.934,1.933 -1.067,0 -1.933,-0.865 -1.933,-1.933 0,-1.067 0.866,-1.933 1.933,-1.933 1.069,0 1.934,0.866 1.934,1.933 z"
   id="path254" />
	<path
   style="fill:#ffffff;fill-opacity:0.391389"
   d="m 102.183,179.824 c 0,1.067 -0.866,1.934 -1.933,1.934 -1.067,0 -1.933,-0.866 -1.933,-1.934 0,-1.066 0.865,-1.933 1.933,-1.933 1.068,0 1.933,0.867 1.933,1.933 z"
   id="path255" />
	<path
   style="fill:#ffffff;fill-opacity:0.391389"
   d="m 152.044,173.518 c 0,1.067 -0.866,1.933 -1.933,1.933 -1.068,0 -1.934,-0.866 -1.934,-1.933 0,-1.067 0.865,-1.933 1.934,-1.933 1.067,0 1.933,0.865 1.933,1.933 z"
   id="path256" />
	<path
   style="fill:#ffffff;fill-opacity:0.391389"
   d="m 149.198,190.935 c 0,1.066 -0.866,1.933 -1.933,1.933 -1.068,0 -1.933,-0.866 -1.933,-1.933 0,-1.067 0.865,-1.934 1.933,-1.934 1.067,0 1.933,0.866 1.933,1.934 z"
   id="path257" />
	<path
   style="fill:#ffffff;fill-opacity:0.391389"
   d="m 148.888,160.456 c 0,1.067 -0.865,1.934 -1.933,1.934 -1.067,0 -1.933,-0.866 -1.933,-1.934 0,-1.067 0.865,-1.933 1.933,-1.933 1.068,0 1.933,0.866 1.933,1.933 z"
   id="path258" />
	<path
   style="fill:#ffffff;fill-opacity:0.391389"
   d="m 126.493,190.037 c 0,1.066 -0.866,1.933 -1.933,1.933 -1.068,0 -1.933,-0.866 -1.933,-1.933 0,-1.068 0.865,-1.934 1.933,-1.934 1.067,0.001 1.933,0.866 1.933,1.934 z"
   id="path259" />
	<path
   style="fill:#ffffff;fill-opacity:0.391389"
   d="m 129.744,212.503 c 0,1.066 -0.866,1.933 -1.933,1.933 -1.067,0 -1.933,-0.866 -1.933,-1.933 0,-1.067 0.865,-1.934 1.933,-1.934 1.067,0 1.933,0.867 1.933,1.934 z"
   id="path260" />
	<path
   style="fill:#ffffff;fill-opacity:0.391389"
   d="m 150.821,139.89 c 0,1.067 -0.866,1.933 -1.933,1.933 -1.068,0 -1.933,-0.866 -1.933,-1.933 0,-1.068 0.865,-1.933 1.933,-1.933 1.067,0 1.933,0.865 1.933,1.933 z"
   id="path261" />
	<path
   style="fill:#ffffff;fill-opacity:0.391389"
   d="m 129.456,162.857 c 0,0.446 -0.361,0.808 -0.808,0.808 -0.446,0 -0.808,-0.362 -0.808,-0.808 0,-0.446 0.361,-0.808 0.808,-0.808 0.447,0 0.808,0.362 0.808,0.808 z"
   id="path262" />
	<path
   style="fill:#ffffff;fill-opacity:0.391389"
   d="m 147.597,135.311 c 0,1.067 -0.866,1.933 -1.933,1.933 -1.068,0 -1.933,-0.866 -1.933,-1.933 0,-1.067 0.865,-1.933 1.933,-1.933 1.067,0 1.933,0.865 1.933,1.933 z"
   id="path263" />
	<path
   style="fill:#ffffff;fill-opacity:0.391389"
   d="m 134.894,130.012 c 0,1.067 -0.865,1.933 -1.933,1.933 -1.068,0 -1.933,-0.866 -1.933,-1.933 0,-1.067 0.865,-1.933 1.933,-1.933 1.067,0 1.933,0.866 1.933,1.933 z"
   id="path264" />
	<path
   style="fill:#ffffff;fill-opacity:0.391389"
   d="m 148.519,211.471 c -1.374,0 -2.492,-1.117 -2.492,-2.49 0,-1.374 1.118,-2.492 2.492,-2.492 1.374,0 2.492,1.118 2.492,2.492 -0.001,1.373 -1.118,2.49 -2.492,2.49 z m 0,-3.865 c -0.757,0 -1.374,0.615 -1.374,1.374 0,0.756 0.616,1.373 1.374,1.373 0.758,0 1.374,-0.617 1.374,-1.373 0,-0.758 -0.617,-1.374 -1.374,-1.374 z"
   id="path265" />
	<path
   style="fill:#ffffff;fill-opacity:0.391389"
   d="m 156.076,197.773 c -1.374,0 -2.492,-1.118 -2.492,-2.491 0,-1.373 1.118,-2.492 2.492,-2.492 1.374,0 2.491,1.119 2.491,2.492 0,1.372 -1.117,2.491 -2.491,2.491 z m 0,-3.865 c -0.758,0 -1.374,0.615 -1.374,1.373 0,0.757 0.616,1.373 1.374,1.373 0.757,0 1.374,-0.616 1.374,-1.373 0,-0.758 -0.617,-1.373 -1.374,-1.373 z"
   id="path266" />
	<path
   style="fill:#ffffff;fill-opacity:0.391389"
   d="m 135.671,215.568 c -1.374,0 -2.492,-1.117 -2.492,-2.49 0,-1.374 1.118,-2.492 2.492,-2.492 1.374,0 2.491,1.118 2.491,2.492 0,1.373 -1.118,2.49 -2.491,2.49 z m 0,-3.864 c -0.758,0 -1.374,0.615 -1.374,1.374 0,0.756 0.616,1.373 1.374,1.373 0.757,0 1.374,-0.617 1.374,-1.373 -10e-4,-0.759 -0.617,-1.374 -1.374,-1.374 z"
   id="path267" />
	<path
   style="fill:#ffffff;fill-opacity:0.391389"
   d="m 137.189,238.632 c -1.375,0 -2.493,-1.118 -2.493,-2.491 0,-1.373 1.118,-2.492 2.493,-2.492 1.373,0 2.491,1.119 2.491,2.492 0.001,1.373 -1.117,2.491 -2.491,2.491 z m 0,-3.864 c -0.758,0 -1.375,0.615 -1.375,1.373 0,0.757 0.617,1.373 1.375,1.373 0.757,0 1.373,-0.616 1.373,-1.373 10e-4,-0.758 -0.616,-1.373 -1.373,-1.373 z"
   id="path268" />
	<path
   style="fill:#ffffff;fill-opacity:0.391389"
   d="m 109.324,195.917 c -1.374,0 -2.492,-1.118 -2.492,-2.491 0,-1.373 1.118,-2.492 2.492,-2.492 1.374,0 2.491,1.119 2.491,2.492 0,1.373 -1.117,2.491 -2.491,2.491 z m 0,-3.864 c -0.758,0 -1.374,0.615 -1.374,1.373 0,0.757 0.616,1.373 1.374,1.373 0.757,0 1.374,-0.616 1.374,-1.373 0,-0.758 -0.617,-1.373 -1.374,-1.373 z"
   id="path269" />
	<path
   style="fill:#ffffff;fill-opacity:0.391389"
   d="m 94.63,179.98 c -1.374,0 -2.492,-1.119 -2.492,-2.492 0,-1.373 1.118,-2.491 2.492,-2.491 1.374,0 2.491,1.118 2.491,2.491 0,1.373 -1.117,2.492 -2.491,2.492 z m 0,-3.865 c -0.758,0 -1.374,0.615 -1.374,1.373 0,0.758 0.616,1.373 1.374,1.373 0.758,0 1.374,-0.615 1.374,-1.373 0,-0.758 -0.616,-1.373 -1.374,-1.373 z"
   id="path270" />
	<path
   style="fill:#ffffff;fill-opacity:0.391389"
   d="m 134.825,147.827 c -1.375,0 -2.493,-1.118 -2.493,-2.491 0,-1.374 1.118,-2.492 2.493,-2.492 1.373,0 2.492,1.118 2.492,2.492 -0.001,1.373 -1.119,2.491 -2.492,2.491 z m 0,-3.865 c -0.758,0 -1.374,0.616 -1.374,1.374 0,0.756 0.616,1.373 1.374,1.373 0.757,0 1.373,-0.617 1.373,-1.373 0,-0.758 -0.616,-1.374 -1.373,-1.374 z"
   id="path271" />
	<path
   style="fill:#ffffff;fill-opacity:0.391389"
   d="m 71.968,173.23 c -1.374,0 -2.492,-1.118 -2.492,-2.491 0,-1.374 1.118,-2.492 2.492,-2.492 1.373,0 2.491,1.118 2.491,2.492 0,1.372 -1.118,2.491 -2.491,2.491 z m 0,-3.865 c -0.758,0 -1.374,0.615 -1.374,1.374 0,0.756 0.616,1.372 1.374,1.372 0.757,0 1.373,-0.616 1.373,-1.372 0,-0.759 -0.616,-1.374 -1.373,-1.374 z"
   id="path272" />
	<path
   style="fill:#ffffff;fill-opacity:0.391389"
   d="m 58.729,165.199 c -1.375,0 -2.492,-1.118 -2.492,-2.491 0,-1.374 1.118,-2.492 2.492,-2.492 1.374,0 2.492,1.118 2.492,2.492 0,1.373 -1.118,2.491 -2.492,2.491 z m 0,-3.865 c -0.758,0 -1.374,0.616 -1.374,1.374 0,0.756 0.616,1.373 1.374,1.373 0.757,0 1.374,-0.616 1.374,-1.373 0,-0.758 -0.617,-1.374 -1.374,-1.374 z"
   id="path273" />
	<path
   style="fill:#ffffff;fill-opacity:0.391389"
   d="m 79.484,158.319 c -1.374,0 -2.491,-1.118 -2.491,-2.492 0,-1.374 1.117,-2.493 2.491,-2.493 1.374,0 2.492,1.118 2.492,2.493 0.001,1.374 -1.118,2.492 -2.492,2.492 z m 0,-3.866 c -0.757,0 -1.374,0.616 -1.374,1.374 0,0.757 0.617,1.374 1.374,1.374 0.758,0 1.374,-0.617 1.374,-1.374 0,-0.758 -0.616,-1.374 -1.374,-1.374 z"
   id="path274" />
	<path
   style="fill:#ffffff;fill-opacity:0.391389"
   d="m 229.441,160.13 c -1.374,0 -2.492,-1.118 -2.492,-2.491 0,-1.374 1.118,-2.493 2.492,-2.493 1.374,0 2.491,1.118 2.491,2.493 0.001,1.373 -1.117,2.491 -2.491,2.491 z m 0,-3.866 c -0.758,0 -1.374,0.617 -1.374,1.374 0,0.757 0.616,1.373 1.374,1.373 0.758,0 1.374,-0.616 1.374,-1.373 0,-0.757 -0.616,-1.374 -1.374,-1.374 z"
   id="path275" />
	<path
   style="fill:#ffffff;fill-opacity:0.391389"
   d="m 176.84,72.118 c -1.375,0 -2.493,-1.118 -2.493,-2.492 0,-1.374 1.118,-2.492 2.493,-2.492 1.373,0 2.491,1.118 2.491,2.492 0,1.374 -1.118,2.492 -2.491,2.492 z m 0,-3.866 c -0.758,0 -1.375,0.617 -1.375,1.374 0,0.758 0.617,1.374 1.375,1.374 0.757,0 1.373,-0.616 1.373,-1.374 0,-0.757 -0.616,-1.374 -1.373,-1.374 z"
   id="path276" />
	<path
   style="fill:#ffffff;fill-opacity:0.391389"
   d="m 156.872,69.136 c -1.374,0 -2.492,-1.118 -2.492,-2.492 0,-1.373 1.118,-2.492 2.492,-2.492 1.374,0 2.492,1.118 2.492,2.492 0,1.374 -1.118,2.492 -2.492,2.492 z m 0,-3.865 c -0.758,0 -1.374,0.616 -1.374,1.373 0,0.758 0.616,1.374 1.374,1.374 0.757,0 1.374,-0.616 1.374,-1.374 0,-0.757 -0.617,-1.373 -1.374,-1.373 z"
   id="path277" />
	<path
   style="fill:#ffffff;fill-opacity:0.391389"
   d="m 148.351,52.011 c -1.375,0 -2.492,-1.117 -2.492,-2.491 0,-1.374 1.117,-2.492 2.492,-2.492 1.373,0 2.492,1.118 2.492,2.492 -10e-4,1.374 -1.119,2.491 -2.492,2.491 z m 0,-3.865 c -0.758,0 -1.374,0.616 -1.374,1.374 0,0.758 0.616,1.374 1.374,1.374 0.757,0 1.373,-0.616 1.373,-1.374 0,-0.758 -0.616,-1.374 -1.373,-1.374 z"
   id="path278" />
	<path
   style="fill:#ffffff;fill-opacity:0.391389"
   d="m 170.02,46.574 c -1.374,0 -2.492,-1.117 -2.492,-2.491 0,-1.374 1.118,-2.491 2.492,-2.491 1.374,0 2.492,1.117 2.492,2.491 0,1.375 -1.118,2.491 -2.492,2.491 z m 0,-3.865 c -0.757,0 -1.374,0.617 -1.374,1.374 0,0.758 0.617,1.374 1.374,1.374 0.758,0 1.374,-0.616 1.374,-1.374 0,-0.757 -0.617,-1.374 -1.374,-1.374 z"
   id="path279" />
	<path
   style="fill:#ffffff;fill-opacity:0.391389"
   d="m 143.991,94.587 c -1.374,0 -2.492,-1.118 -2.492,-2.492 0,-1.373 1.118,-2.492 2.492,-2.492 1.373,0 2.491,1.118 2.491,2.492 0,1.375 -1.118,2.492 -2.491,2.492 z m 0,-3.865 c -0.759,0 -1.374,0.616 -1.374,1.373 0,0.758 0.616,1.374 1.374,1.374 0.757,0 1.373,-0.616 1.373,-1.374 0,-0.757 -0.616,-1.373 -1.373,-1.373 z"
   id="path280" />
	<path
   style="fill:#ffffff;fill-opacity:0.391389"
   d="m 134.176,58.744 c -1.374,0 -2.492,-1.118 -2.492,-2.492 0,-1.374 1.118,-2.492 2.492,-2.492 1.374,0 2.492,1.118 2.492,2.492 -0.001,1.374 -1.118,2.492 -2.492,2.492 z m 0,-3.866 c -0.758,0 -1.374,0.616 -1.374,1.374 0,0.758 0.616,1.374 1.374,1.374 0.758,0 1.374,-0.616 1.374,-1.374 0,-0.758 -0.616,-1.374 -1.374,-1.374 z"
   id="path281" />
	<path
   style="fill:#ffffff;fill-opacity:0.391389"
   d="m 161.245,143.145 c -1.374,0 -2.492,-1.118 -2.492,-2.492 0,-1.374 1.117,-2.492 2.492,-2.492 1.374,0 2.492,1.118 2.492,2.492 -0.001,1.374 -1.118,2.492 -2.492,2.492 z m 0,-3.865 c -0.757,0 -1.374,0.616 -1.374,1.374 0,0.758 0.617,1.374 1.374,1.374 0.757,0 1.374,-0.616 1.374,-1.374 -0.001,-0.759 -0.618,-1.374 -1.374,-1.374 z"
   id="path282" />
	<path
   style="fill:#ffffff;fill-opacity:0.391389"
   d="m 136.542,157.768 c -1.374,0 -2.492,-1.118 -2.492,-2.492 0,-1.374 1.118,-2.492 2.492,-2.492 1.374,0 2.491,1.118 2.491,2.492 0,1.373 -1.117,2.492 -2.491,2.492 z m 0,-3.866 c -0.758,0 -1.374,0.616 -1.374,1.374 0,0.757 0.616,1.374 1.374,1.374 0.757,0 1.374,-0.616 1.374,-1.374 0,-0.757 -0.617,-1.374 -1.374,-1.374 z"
   id="path283" />
	<path
   style="fill:#ffffff;fill-opacity:0.391389"
   d="m 124.263,171.372 c -1.374,0 -2.492,-1.118 -2.492,-2.492 0,-1.374 1.118,-2.492 2.492,-2.492 1.374,0 2.491,1.118 2.491,2.492 0,1.373 -1.117,2.492 -2.491,2.492 z m 0,-3.866 c -0.758,0 -1.374,0.616 -1.374,1.373 0,0.758 0.616,1.374 1.374,1.374 0.757,0 1.374,-0.616 1.374,-1.374 0,-0.757 -0.617,-1.373 -1.374,-1.373 z"
   id="path284" />
	<path
   style="fill:#ffffff;fill-opacity:0.391389"
   d="m 161.195,164.69 c -1.374,0 -2.492,-1.118 -2.492,-2.492 0,-1.374 1.118,-2.492 2.492,-2.492 1.374,0 2.492,1.118 2.492,2.492 0,1.374 -1.118,2.492 -2.492,2.492 z m 0,-3.865 c -0.757,0 -1.374,0.616 -1.374,1.373 0,0.757 0.616,1.374 1.374,1.374 0.757,0 1.374,-0.616 1.374,-1.374 0,-0.757 -0.616,-1.373 -1.374,-1.373 z"
   id="path285" />
	<path
   style="fill:#ffffff;fill-opacity:0.391389"
   d="m 170.235,139.99 c -1.374,0 -2.492,-1.117 -2.492,-2.492 0,-1.374 1.118,-2.492 2.492,-2.492 1.374,0 2.492,1.118 2.492,2.492 0,1.375 -1.118,2.492 -2.492,2.492 z m 0,-3.865 c -0.758,0 -1.374,0.616 -1.374,1.374 0,0.757 0.616,1.374 1.374,1.374 0.757,0 1.374,-0.616 1.374,-1.374 0,-0.758 -0.616,-1.374 -1.374,-1.374 z"
   id="path286" />
	<path
   style="fill:#ffffff;fill-opacity:0.391389"
   d="m 181.266,168.244 c -1.373,0 -2.492,-1.118 -2.492,-2.492 0,-1.374 1.119,-2.492 2.492,-2.492 1.374,0 2.492,1.118 2.492,2.492 0,1.374 -1.118,2.492 -2.492,2.492 z m 0,-3.866 c -0.758,0 -1.373,0.616 -1.373,1.374 0,0.758 0.615,1.374 1.373,1.374 0.758,0 1.374,-0.616 1.374,-1.374 0,-0.758 -0.617,-1.374 -1.374,-1.374 z"
   id="path287" />
	<path
   style="fill:#ffffff;fill-opacity:0.391389"
   d="m 159.05,115.632 c -1.374,0 -2.492,-1.117 -2.492,-2.491 0,-1.374 1.118,-2.492 2.492,-2.492 1.374,0 2.492,1.118 2.492,2.492 0,1.374 -1.118,2.491 -2.492,2.491 z m 0,-3.865 c -0.758,0 -1.374,0.616 -1.374,1.374 0,0.758 0.616,1.374 1.374,1.374 0.757,0 1.374,-0.616 1.374,-1.374 0,-0.758 -0.617,-1.374 -1.374,-1.374 z"
   id="path288" />
	<path
   style="fill:#ffffff;fill-opacity:0.391389"
   d="m 137.233,127.14 c -1.374,0 -2.492,-1.117 -2.492,-2.491 0,-1.374 1.118,-2.492 2.492,-2.492 1.374,0 2.492,1.118 2.492,2.492 0,1.374 -1.118,2.491 -2.492,2.491 z m 0,-3.865 c -0.758,0 -1.374,0.616 -1.374,1.373 0,0.757 0.616,1.374 1.374,1.374 0.757,0 1.374,-0.617 1.374,-1.374 0,-0.757 -0.616,-1.373 -1.374,-1.373 z"
   id="path289" />
	<path
   style="fill:#ffffff;fill-opacity:0.391389"
   d="m 181.133,112.482 c -1.375,0 -2.492,-1.118 -2.492,-2.492 0,-1.374 1.117,-2.492 2.492,-2.492 1.374,0 2.491,1.118 2.491,2.492 0,1.374 -1.117,2.492 -2.491,2.492 z m 0,-3.866 c -0.758,0 -1.374,0.617 -1.374,1.374 0,0.758 0.616,1.374 1.374,1.374 0.757,0 1.373,-0.616 1.373,-1.374 0,-0.757 -0.616,-1.374 -1.373,-1.374 z"
   id="path290" />
	<path
   style="fill:#ffffff;fill-opacity:0.391389"
   d="m 232.399,110.64 c -1.373,0 -2.492,-1.118 -2.492,-2.492 0,-1.374 1.119,-2.491 2.492,-2.491 1.374,0 2.492,1.117 2.492,2.491 0.001,1.373 -1.118,2.492 -2.492,2.492 z m 0,-3.867 c -0.758,0 -1.373,0.617 -1.373,1.374 0,0.758 0.615,1.374 1.373,1.374 0.758,0 1.374,-0.616 1.374,-1.374 0,-0.756 -0.616,-1.374 -1.374,-1.374 z"
   id="path291" />
	<path
   style="fill:#ffffff;fill-opacity:0.391389"
   d="m 232.399,98.806 c -1.373,0 -2.492,-1.118 -2.492,-2.492 0,-1.375 1.119,-2.492 2.492,-2.492 1.374,0 2.492,1.117 2.492,2.492 0.001,1.374 -1.118,2.492 -2.492,2.492 z m 0,-3.866 c -0.758,0 -1.373,0.617 -1.373,1.375 0,0.757 0.615,1.374 1.373,1.374 0.758,0 1.374,-0.616 1.374,-1.374 0,-0.758 -0.616,-1.375 -1.374,-1.375 z"
   id="path292" />
	<path
   style="fill:#ffffff;fill-opacity:0.391389"
   d="m 183.804,60.182 c -1.373,0 -2.491,-1.118 -2.491,-2.492 0,-1.374 1.118,-2.492 2.491,-2.492 1.374,0 2.493,1.118 2.493,2.492 0,1.374 -1.119,2.492 -2.493,2.492 z m 0,-3.865 c -0.757,0 -1.373,0.616 -1.373,1.374 0,0.757 0.616,1.374 1.373,1.374 0.758,0 1.374,-0.617 1.374,-1.374 0,-0.758 -0.617,-1.374 -1.374,-1.374 z"
   id="path293" />
	<path
   style="fill:#ffffff;fill-opacity:0.391389"
   d="m 153.745,58.586 c -1.374,0 -2.492,-1.117 -2.492,-2.492 0,-1.374 1.118,-2.492 2.492,-2.492 1.374,0 2.493,1.118 2.493,2.492 0,1.375 -1.118,2.492 -2.493,2.492 z m 0,-3.865 c -0.757,0 -1.374,0.616 -1.374,1.374 0,0.757 0.617,1.374 1.374,1.374 0.758,0 1.374,-0.616 1.374,-1.374 0.001,-0.758 -0.616,-1.374 -1.374,-1.374 z"
   id="path294" />
	<path
   style="fill:#ffffff;fill-opacity:0.391389"
   d="m 224.27,207.754 c -1.373,0 -2.491,-1.117 -2.491,-2.491 0,-1.375 1.118,-2.492 2.491,-2.492 1.375,0 2.492,1.117 2.492,2.492 0,1.374 -1.117,2.491 -2.492,2.491 z m 0,-3.866 c -0.757,0 -1.373,0.616 -1.373,1.375 0,0.757 0.616,1.373 1.373,1.373 0.758,0 1.374,-0.616 1.374,-1.373 0,-0.759 -0.617,-1.375 -1.374,-1.375 z"
   id="path295" />
	<path
   style="fill:#ffffff;fill-opacity:0.391389"
   d="m 223.094,240.943 c -1.374,0 -2.492,-1.117 -2.492,-2.491 0,-1.374 1.118,-2.492 2.492,-2.492 1.374,0 2.492,1.118 2.492,2.492 0,1.374 -1.118,2.491 -2.492,2.491 z m 0,-3.865 c -0.758,0 -1.374,0.615 -1.374,1.374 0,0.757 0.616,1.373 1.374,1.373 0.757,0 1.373,-0.616 1.373,-1.373 0,-0.759 -0.616,-1.374 -1.373,-1.374 z"
   id="path296" />
	<path
   style="fill:#ffffff;fill-opacity:0.391389"
   d="m 228.63,257.207 c -1.374,0 -2.492,-1.116 -2.492,-2.49 0,-1.374 1.118,-2.492 2.492,-2.492 1.374,0 2.492,1.118 2.492,2.492 0,1.374 -1.118,2.49 -2.492,2.49 z m 0,-3.864 c -0.758,0 -1.374,0.615 -1.374,1.374 0,0.757 0.616,1.373 1.374,1.373 0.757,0 1.373,-0.616 1.373,-1.373 0,-0.759 -0.616,-1.374 -1.373,-1.374 z"
   id="path297" />
	<path
   style="fill:#ffffff;fill-opacity:0.391389"
   d="m 218.369,331.351 c -1.374,0 -2.492,-1.117 -2.492,-2.491 0,-1.374 1.118,-2.492 2.492,-2.492 1.374,0 2.492,1.118 2.492,2.492 0,1.374 -1.118,2.491 -2.492,2.491 z m 0,-3.866 c -0.758,0 -1.374,0.615 -1.374,1.374 0,0.757 0.616,1.373 1.374,1.373 0.757,0 1.373,-0.616 1.373,-1.373 0,-0.758 -0.616,-1.374 -1.373,-1.374 z"
   id="path298" />
	<path
   style="fill:#ffffff;fill-opacity:0.391389"
   d="m 217.894,193.77 c -1.373,0 -2.491,-1.117 -2.491,-2.491 0,-1.375 1.118,-2.492 2.491,-2.492 1.374,0 2.493,1.117 2.493,2.492 0,1.373 -1.119,2.491 -2.493,2.491 z m 0,-3.867 c -0.757,0 -1.373,0.616 -1.373,1.375 0,0.757 0.616,1.373 1.373,1.373 0.758,0 1.374,-0.616 1.374,-1.373 0,-0.758 -0.617,-1.375 -1.374,-1.375 z"
   id="path299" />
	<path
   style="fill:#ffffff;fill-opacity:0.391389"
   d="m 190.28,197.814 c -1.373,0 -2.491,-1.118 -2.491,-2.492 0,-1.374 1.118,-2.492 2.491,-2.492 1.374,0 2.493,1.118 2.493,2.492 0,1.374 -1.119,2.492 -2.493,2.492 z m 0,-3.866 c -0.757,0 -1.373,0.616 -1.373,1.374 0,0.758 0.616,1.373 1.373,1.373 0.758,0 1.374,-0.615 1.374,-1.373 0,-0.758 -0.616,-1.374 -1.374,-1.374 z"
   id="path300" />
	<path
   style="fill:#ffffff;fill-opacity:0.391389"
   d="m 201.74,131.504 c -1.373,0 -2.491,-1.118 -2.491,-2.492 0,-1.374 1.118,-2.492 2.491,-2.492 1.375,0 2.493,1.118 2.493,2.492 0,1.374 -1.118,2.492 -2.493,2.492 z m 0,-3.866 c -0.757,0 -1.373,0.617 -1.373,1.374 0,0.758 0.616,1.374 1.373,1.374 0.758,0 1.375,-0.616 1.375,-1.374 0,-0.757 -0.617,-1.374 -1.375,-1.374 z"
   id="path301" />
	<path
   style="fill:#ffffff;fill-opacity:0.391389"
   d="m 213.074,61.475 c -1.375,0 -2.492,-1.118 -2.492,-2.492 0,-1.374 1.117,-2.491 2.492,-2.491 1.373,0 2.492,1.118 2.492,2.491 0,1.374 -1.119,2.492 -2.492,2.492 z m 0,-3.866 c -0.758,0 -1.375,0.617 -1.375,1.374 0,0.758 0.617,1.375 1.375,1.375 0.758,0 1.373,-0.617 1.373,-1.375 0,-0.757 -0.615,-1.374 -1.373,-1.374 z"
   id="path302" />
	<path
   style="fill:#ffffff;fill-opacity:0.391389"
   d="m 215.691,80.342 c -1.375,0 -2.492,-1.118 -2.492,-2.492 0,-1.374 1.117,-2.491 2.492,-2.491 1.373,0 2.492,1.118 2.492,2.491 0.001,1.374 -1.119,2.492 -2.492,2.492 z m 0,-3.866 c -0.758,0 -1.375,0.617 -1.375,1.374 0,0.758 0.617,1.374 1.375,1.374 0.758,0 1.373,-0.617 1.373,-1.374 0,-0.757 -0.615,-1.374 -1.373,-1.374 z"
   id="path303" />
	<path
   style="fill:#ffffff;fill-opacity:0.391389"
   d="m 197.416,189.953 c -1.374,0 -2.491,-1.117 -2.491,-2.491 0,-1.374 1.117,-2.491 2.491,-2.491 1.375,0 2.492,1.117 2.492,2.491 0,1.374 -1.117,2.491 -2.492,2.491 z m 0,-3.865 c -0.757,0 -1.374,0.616 -1.374,1.374 0,0.757 0.617,1.374 1.374,1.374 0.758,0 1.374,-0.617 1.374,-1.374 0,-0.758 -0.616,-1.374 -1.374,-1.374 z"
   id="path304" />
	<path
   style="fill:#ffffff;fill-opacity:0.391389"
   d="m 194.925,180.114 c -1.374,0 -2.492,-1.117 -2.492,-2.491 0,-1.374 1.118,-2.492 2.492,-2.492 1.373,0 2.491,1.118 2.491,2.492 0,1.374 -1.118,2.491 -2.491,2.491 z m 0,-3.865 c -0.759,0 -1.374,0.616 -1.374,1.374 0,0.758 0.615,1.374 1.374,1.374 0.757,0 1.373,-0.616 1.373,-1.374 0,-0.758 -0.616,-1.374 -1.373,-1.374 z"
   id="path305" />
	<path
   style="fill:#ffffff;fill-opacity:0.391389"
   d="m 200.201,171.425 c -1.374,0 -2.492,-1.118 -2.492,-2.492 0,-1.374 1.118,-2.491 2.492,-2.491 1.375,0 2.491,1.117 2.491,2.491 0,1.374 -1.116,2.492 -2.491,2.492 z m 0,-3.866 c -0.758,0 -1.374,0.616 -1.374,1.374 0,0.758 0.616,1.374 1.374,1.374 0.758,0 1.374,-0.616 1.374,-1.374 0,-0.758 -0.616,-1.374 -1.374,-1.374 z"
   id="path306" />
	<path
   style="fill:#ffffff;fill-opacity:0.391389"
   d="m 164.831,228.943 c -1.374,0 -2.492,-1.117 -2.492,-2.492 0,-1.374 1.118,-2.491 2.492,-2.491 1.374,0 2.492,1.117 2.492,2.491 0,1.375 -1.117,2.492 -2.492,2.492 z m 0,-3.865 c -0.758,0 -1.374,0.616 -1.374,1.373 0,0.758 0.616,1.374 1.374,1.374 0.757,0 1.374,-0.616 1.374,-1.374 10e-4,-0.757 -0.616,-1.373 -1.374,-1.373 z"
   id="path307" />
	<path
   style="fill:#ffffff;fill-opacity:0.391389"
   d="m 143.948,251.785 c -1.374,0 -2.492,-1.117 -2.492,-2.492 0,-1.374 1.118,-2.491 2.492,-2.491 1.374,0 2.492,1.117 2.492,2.491 0,1.375 -1.118,2.492 -2.492,2.492 z m 0,-3.865 c -0.758,0 -1.374,0.616 -1.374,1.373 0,0.758 0.616,1.374 1.374,1.374 0.757,0 1.374,-0.616 1.374,-1.374 0,-0.757 -0.616,-1.373 -1.374,-1.373 z"
   id="path308" />
	<path
   style="fill:#ffffff;fill-opacity:0.391389"
   d="m 205.032,269.816 c -1.374,0 -2.492,-1.118 -2.492,-2.492 0,-1.374 1.118,-2.491 2.492,-2.491 1.374,0 2.492,1.117 2.492,2.491 0,1.374 -1.118,2.492 -2.492,2.492 z m 0,-3.866 c -0.758,0 -1.374,0.616 -1.374,1.374 0,0.758 0.616,1.374 1.374,1.374 0.758,0 1.374,-0.616 1.374,-1.374 0,-0.758 -0.616,-1.374 -1.374,-1.374 z"
   id="path309" />
	<path
   style="fill:#ffffff;fill-opacity:0.391389"
   d="m 202.819,237.115 c -1.373,0 -2.491,-1.118 -2.491,-2.492 0,-1.375 1.118,-2.492 2.491,-2.492 1.374,0 2.491,1.117 2.491,2.492 0.001,1.374 -1.117,2.492 -2.491,2.492 z m 0,-3.867 c -0.757,0 -1.373,0.617 -1.373,1.375 0,0.758 0.616,1.373 1.373,1.373 0.758,0 1.374,-0.615 1.374,-1.373 0,-0.758 -0.616,-1.375 -1.374,-1.375 z"
   id="path310" />
	<path
   style="fill:#ffffff;fill-opacity:0.391389"
   d="m 154.088,224.828 c -1.374,0 -2.492,-1.117 -2.492,-2.491 0,-1.374 1.118,-2.491 2.492,-2.491 1.373,0 2.492,1.117 2.492,2.491 0,1.374 -1.119,2.491 -2.492,2.491 z m 0,-3.865 c -0.758,0 -1.374,0.617 -1.374,1.374 0,0.758 0.616,1.374 1.374,1.374 0.758,0 1.373,-0.616 1.373,-1.374 0,-0.757 -0.615,-1.374 -1.373,-1.374 z"
   id="path311" />
	<path
   style="fill:#ffffff;fill-opacity:0.391389"
   d="m 144.53,297.813 c -1.374,0 -2.492,-1.117 -2.492,-2.491 0,-1.374 1.118,-2.492 2.492,-2.492 1.374,0 2.492,1.118 2.492,2.492 -0.001,1.373 -1.119,2.491 -2.492,2.491 z m 0,-3.866 c -0.757,0 -1.374,0.616 -1.374,1.374 0,0.758 0.617,1.374 1.374,1.374 0.757,0 1.374,-0.616 1.374,-1.374 -0.001,-0.757 -0.617,-1.374 -1.374,-1.374 z"
   id="path312" />
	<path
   style="fill:#ffffff;fill-opacity:0.391389"
   d="m 151.01,334.079 c -1.374,0 -2.493,-1.117 -2.493,-2.491 0,-1.374 1.119,-2.492 2.493,-2.492 1.374,0 2.492,1.118 2.492,2.492 0,1.374 -1.118,2.491 -2.492,2.491 z m 0,-3.865 c -0.757,0 -1.374,0.616 -1.374,1.374 0,0.758 0.617,1.374 1.374,1.374 0.757,0 1.374,-0.616 1.374,-1.374 0,-0.758 -0.616,-1.374 -1.374,-1.374 z"
   id="path313" />
	<circle
   style="fill:#ffffff;fill-opacity:0.391389"
   cx="173.73801"
   cy="58.967999"
   r="1.933"
   id="circle313" />
	<rect
   x="154.35201"
   y="171.425"
   style="fill:#ffffff;fill-opacity:0.391389"
   width="8.3149996"
   height="4.1609998"
   id="rect313" />
	<rect
   x="212.83299"
   y="280.98901"
   style="fill:#ffffff;fill-opacity:0.391389"
   width="1.834"
   height="4.1279998"
   id="rect314" />
	<rect
   x="212.83299"
   y="287.65302"
   style="fill:#ffffff;fill-opacity:0.391389"
   width="1.834"
   height="4.1279998"
   id="rect315" />
	<rect
   x="212.83299"
   y="294.31699"
   style="fill:#ffffff;fill-opacity:0.391389"
   width="1.834"
   height="4.1279998"
   id="rect316" />
	<rect
   x="141.36501"
   y="259.397"
   style="fill:#ffffff;fill-opacity:0.391389"
   width="7.348"
   height="2.566"
   id="rect317" />
	<rect
   x="141.36501"
   y="264.15302"
   style="fill:#ffffff;fill-opacity:0.391389"
   width="7.348"
   height="2.566"
   id="rect318" />
	<rect
   x="141.36501"
   y="268.91"
   style="fill:#ffffff;fill-opacity:0.391389"
   width="7.348"
   height="2.566"
   id="rect319" />
	<rect
   x="221.40601"
   y="286.89999"
   style="fill:#ffffff;fill-opacity:0.391389"
   width="7.348"
   height="2.566"
   id="rect320" />
	<rect
   x="221.40601"
   y="291.65701"
   style="fill:#ffffff;fill-opacity:0.391389"
   width="7.348"
   height="2.566"
   id="rect321" />
	<rect
   x="221.40601"
   y="296.414"
   style="fill:#ffffff;fill-opacity:0.391389"
   width="7.348"
   height="2.566"
   id="rect322" />
	<rect
   x="141.36501"
   y="273.66599"
   style="fill:#ffffff;fill-opacity:0.391389"
   width="7.348"
   height="2.566"
   id="rect323" />
	<rect
   x="141.36501"
   y="278.423"
   style="fill:#ffffff;fill-opacity:0.391389"
   width="7.348"
   height="2.566"
   id="rect324" />
	<rect
   x="136.33701"
   y="61.474998"
   style="fill:#ffffff;fill-opacity:0.391389"
   width="5.7880001"
   height="1.8380001"
   id="rect325" />
	<rect
   x="136.33701"
   y="64.846001"
   style="fill:#ffffff;fill-opacity:0.391389"
   width="5.7880001"
   height="1.8380001"
   id="rect326" />
	<rect
   x="136.33701"
   y="68.217003"
   style="fill:#ffffff;fill-opacity:0.391389"
   width="5.7880001"
   height="1.8380001"
   id="rect327" />
	<circle
   style="fill:#ffffff;fill-opacity:0.391389"
   cx="206.27"
   cy="82.063004"
   r="1.063"
   id="circle327" />
	<circle
   style="fill:#ffffff;fill-opacity:0.391389"
   cx="188.914"
   cy="77.291"
   r="1.063"
   id="circle328" />
	<circle
   style="fill:#ffffff;fill-opacity:0.391389"
   cx="206.27"
   cy="87.112999"
   r="1.063"
   id="circle329" />
	<circle
   style="fill:#ffffff;fill-opacity:0.391389"
   cx="206.27"
   cy="92.163002"
   r="1.063"
   id="circle330" />
	<circle
   style="fill:#ffffff;fill-opacity:0.391389"
   cx="206.27"
   cy="97.213997"
   r="1.063"
   id="circle331" />
	<circle
   style="fill:#ffffff;fill-opacity:0.391389"
   cx="213.617"
   cy="115.645"
   r="1.063"
   id="circle332" />
	<circle
   style="fill:#ffffff;fill-opacity:0.391389"
   cx="213.617"
   cy="120.695"
   r="1.063"
   id="circle333" />
	<path
   style="fill:#ffffff;fill-opacity:0.391389"
   d="m 170.969,119.117 c 0,0.321 -0.261,0.581 -0.582,0.581 -0.321,0 -0.582,-0.26 -0.582,-0.581 0,-0.321 0.26,-0.581 0.582,-0.581 0.321,-0.001 0.582,0.259 0.582,0.581 z"
   id="path333" />
	<path
   style="fill:#ffffff;fill-opacity:0.391389"
   d="m 170.969,121.88 c 0,0.321 -0.261,0.581 -0.582,0.581 -0.321,0 -0.582,-0.26 -0.582,-0.581 0,-0.321 0.26,-0.582 0.582,-0.582 0.321,0 0.582,0.261 0.582,0.582 z"
   id="path334" />
	<path
   style="fill:#ffffff;fill-opacity:0.391389"
   d="m 170.969,124.644 c 0,0.321 -0.261,0.581 -0.582,0.581 -0.321,0 -0.582,-0.26 -0.582,-0.581 0,-0.321 0.26,-0.582 0.582,-0.582 0.321,0 0.582,0.26 0.582,0.582 z"
   id="path335" />
	<path
   style="fill:#ffffff;fill-opacity:0.391389"
   d="m 174.501,142.585 c 0,0.627 -0.51,1.137 -1.138,1.137 -0.628,0 -1.138,-0.509 -1.138,-1.137 0,-0.628 0.509,-1.138 1.138,-1.138 0.628,0 1.138,0.509 1.138,1.138 z"
   id="path336" />
	<path
   style="fill:#ffffff;fill-opacity:0.391389"
   d="m 174.501,147.989 c 0,0.628 -0.51,1.137 -1.138,1.137 -0.628,0 -1.138,-0.508 -1.138,-1.137 0,-0.629 0.509,-1.138 1.138,-1.138 0.628,0.001 1.138,0.51 1.138,1.138 z"
   id="path337" />
	<path
   style="fill:#ffffff;fill-opacity:0.391389"
   d="m 174.501,153.395 c 0,0.628 -0.51,1.136 -1.138,1.136 -0.628,0 -1.138,-0.508 -1.138,-1.136 0,-0.628 0.509,-1.138 1.138,-1.138 0.628,0 1.138,0.51 1.138,1.138 z"
   id="path338" />
	<rect
   x="193.25"
   y="149.076"
   style="fill:#ffffff;fill-opacity:0.391389"
   width="7.7509999"
   height="7.7509999"
   id="rect338" />
	<rect
   x="157.51801"
   y="147.231"
   style="fill:#ffffff;fill-opacity:0.391389"
   width="5.507"
   height="8.9510002"
   id="rect339" />
	<rect
   x="221.40601"
   y="171.047"
   style="fill:#ffffff;fill-opacity:0.391389"
   width="8.0349998"
   height="0.53799999"
   id="rect340" />
	<rect
   x="235.826"
   y="156.758"
   style="fill:#ffffff;fill-opacity:0.391389"
   width="8.0349998"
   height="0.53799999"
   id="rect341" />
	<rect
   x="232.774"
   y="103.242"
   style="fill:#ffffff;fill-opacity:0.391389"
   width="9.434"
   height="0.53799999"
   id="rect342" />
	<rect
   x="202.26199"
   y="75.088997"
   style="fill:#ffffff;fill-opacity:0.391389"
   width="9.434"
   height="0.53799999"
   id="rect343" />
	<rect
   x="190.345"
   y="152.68201"
   style="fill:#ffffff;fill-opacity:0.391389"
   width="8.0349998"
   height="0.53799999"
   id="rect344" />
	<rect
   x="160.674"
   y="173.089"
   style="fill:#ffffff;fill-opacity:0.391389"
   width="4.3060002"
   height="0.53799999"
   id="rect345" />
	<rect
   x="138.77299"
   y="182.32201"
   style="fill:#ffffff;fill-opacity:0.391389"
   width="4.3060002"
   height="0.53799999"
   id="rect346" />
	<rect
   x="138.77299"
   y="184.54201"
   style="fill:#ffffff;fill-opacity:0.391389"
   width="4.3060002"
   height="0.53799999"
   id="rect347" />
	<rect
   x="148.371"
   y="218.172"
   style="fill:#ffffff;fill-opacity:0.391389"
   width="12.303"
   height="0.53799999"
   id="rect348" />
	<rect
   x="226.36099"
   y="205.01601"
   style="fill:#ffffff;fill-opacity:0.391389"
   width="7.9310002"
   height="0.53799999"
   id="rect349" />
	<rect
   x="234.70599"
   y="219.965"
   style="fill:#ffffff;fill-opacity:0.391389"
   width="10.078"
   height="0.53899997"
   id="rect350" />
	<rect
   x="234.70599"
   y="217.194"
   style="fill:#ffffff;fill-opacity:0.391389"
   width="10.078"
   height="0.53799999"
   id="rect351" />
	<rect
   x="234.70599"
   y="214.424"
   style="fill:#ffffff;fill-opacity:0.391389"
   width="10.078"
   height="0.537"
   id="rect352" />
	<rect
   x="234.70599"
   y="211.65199"
   style="fill:#ffffff;fill-opacity:0.391389"
   width="10.078"
   height="0.53799999"
   id="rect353" />
	<rect
   x="234.70599"
   y="208.881"
   style="fill:#ffffff;fill-opacity:0.391389"
   width="10.078"
   height="0.53899997"
   id="rect354" />
	<rect
   x="170.28799"
   y="194.89799"
   style="fill:#ffffff;fill-opacity:0.391389"
   width="6.152"
   height="0.53799999"
   id="rect355" />
	<rect
   x="170.28799"
   y="192.39"
   style="fill:#ffffff;fill-opacity:0.391389"
   width="6.152"
   height="0.53799999"
   id="rect356" />
	<rect
   x="170.28799"
   y="189.881"
   style="fill:#ffffff;fill-opacity:0.391389"
   width="6.151"
   height="0.53799999"
   id="rect357" />
	<rect
   x="170.28799"
   y="187.37199"
   style="fill:#ffffff;fill-opacity:0.391389"
   width="6.151"
   height="0.53799999"
   id="rect358" />
	<rect
   x="170.28799"
   y="184.86301"
   style="fill:#ffffff;fill-opacity:0.391389"
   width="6.151"
   height="0.53799999"
   id="rect359" />
	<rect
   x="170.28799"
   y="182.355"
   style="fill:#ffffff;fill-opacity:0.391389"
   width="6.151"
   height="0.53799999"
   id="rect360" />
	<rect
   x="170.28799"
   y="179.84599"
   style="fill:#ffffff;fill-opacity:0.391389"
   width="6.151"
   height="0.53799999"
   id="rect361" />
	<rect
   x="216.39799"
   y="119.349"
   style="fill:#ffffff;fill-opacity:0.391389"
   width="6.151"
   height="0.53799999"
   id="rect362" />
	<rect
   x="216.39799"
   y="116.84"
   style="fill:#ffffff;fill-opacity:0.391389"
   width="6.151"
   height="0.53799999"
   id="rect363" />
	<rect
   x="216.39799"
   y="114.331"
   style="fill:#ffffff;fill-opacity:0.391389"
   width="6.151"
   height="0.53799999"
   id="rect364" />
	<rect
   x="203.899"
   y="131.30701"
   style="fill:#ffffff;fill-opacity:0.391389"
   width="10.78"
   height="0.53799999"
   id="rect365" />
	<rect
   x="203.899"
   y="128.798"
   style="fill:#ffffff;fill-opacity:0.391389"
   width="12.246"
   height="0.53799999"
   id="rect366" />
	<rect
   x="202.383"
   y="126.289"
   style="fill:#ffffff;fill-opacity:0.391389"
   width="12.297"
   height="0.53799999"
   id="rect367" />
	<rect
   x="183.271"
   y="109.682"
   style="fill:#ffffff;fill-opacity:0.391389"
   width="6.151"
   height="0.53799999"
   id="rect368" />
	<rect
   x="170.05299"
   y="87.554001"
   style="fill:#ffffff;fill-opacity:0.391389"
   width="12.029"
   height="0.53799999"
   id="rect369" />
	<rect
   x="177.968"
   y="63.255001"
   style="fill:#ffffff;fill-opacity:0.391389"
   width="10.946"
   height="0.53799999"
   id="rect370" />
	<rect
   x="184.105"
   y="325.905"
   style="fill:#ffffff;fill-opacity:0.391389"
   width="7.9089999"
   height="0.53799999"
   id="rect371" />
	<rect
   x="184.105"
   y="323.397"
   style="fill:#ffffff;fill-opacity:0.391389"
   width="7.9089999"
   height="0.53799999"
   id="rect372" />
	<rect
   x="184.105"
   y="320.888"
   style="fill:#ffffff;fill-opacity:0.391389"
   width="7.9070001"
   height="0.53799999"
   id="rect373" />
	<rect
   x="184.105"
   y="318.379"
   style="fill:#ffffff;fill-opacity:0.391389"
   width="7.9070001"
   height="0.53799999"
   id="rect374" />
	<rect
   x="184.105"
   y="315.87"
   style="fill:#ffffff;fill-opacity:0.391389"
   width="7.9070001"
   height="0.53799999"
   id="rect375" />
	<rect
   x="184.105"
   y="313.36099"
   style="fill:#ffffff;fill-opacity:0.391389"
   width="7.9070001"
   height="0.53799999"
   id="rect376" />
	<rect
   x="184.105"
   y="310.853"
   style="fill:#ffffff;fill-opacity:0.391389"
   width="7.9070001"
   height="0.53799999"
   id="rect377" />
	<rect
   x="150.896"
   y="290.51599"
   style="fill:#ffffff;fill-opacity:0.391389"
   width="10.064"
   height="0.53799999"
   id="rect378" />
	<rect
   x="150.896"
   y="288.00699"
   style="fill:#ffffff;fill-opacity:0.391389"
   width="10.064"
   height="0.53799999"
   id="rect379" />
	<rect
   x="150.896"
   y="285.49799"
   style="fill:#ffffff;fill-opacity:0.391389"
   width="10.062"
   height="0.53799999"
   id="rect380" />
	<rect
   x="150.896"
   y="282.98901"
   style="fill:#ffffff;fill-opacity:0.391389"
   width="10.062"
   height="0.53799999"
   id="rect381" />
	<rect
   x="150.896"
   y="280.48001"
   style="fill:#ffffff;fill-opacity:0.391389"
   width="10.062"
   height="0.53799999"
   id="rect382" />
	<rect
   x="150.896"
   y="277.97198"
   style="fill:#ffffff;fill-opacity:0.391389"
   width="10.062"
   height="0.53799999"
   id="rect383" />
	<rect
   x="150.896"
   y="275.46301"
   style="fill:#ffffff;fill-opacity:0.391389"
   width="10.062"
   height="0.53799999"
   id="rect384" />
	<rect
   x="170.494"
   y="202.502"
   style="fill:#ffffff;fill-opacity:0.391389"
   width="6.151"
   height="0.53799999"
   id="rect385" />
	<rect
   x="125.367"
   y="189.86099"
   style="fill:#ffffff;fill-opacity:0.391389"
   width="13.405"
   height="0.53799999"
   id="rect386" />
	<rect
   x="207.041"
   y="222.06799"
   style="fill:#ffffff;fill-opacity:0.391389"
   width="12.447"
   height="0.53799999"
   id="rect387" />
	<rect
   x="180.68201"
   y="153.629"
   style="fill:#ffffff;fill-opacity:0.391389"
   width="6.152"
   height="0.53799999"
   id="rect388" />
	<rect
   x="150.644"
   y="94.998001"
   style="fill:#ffffff;fill-opacity:0.391389"
   width="6.152"
   height="0.53799999"
   id="rect389" />
	<rect
   x="128.493"
   y="162.588"
   style="fill:#ffffff;fill-opacity:0.391389"
   width="15.63"
   height="0.53799999"
   id="rect390" />
	<rect
   x="183.90401"
   y="190.664"
   style="fill:#ffffff;fill-opacity:0.391389"
   width="13.513"
   height="0.53899997"
   id="rect391" />
	<rect
   x="176.11301"
   y="199.67101"
   style="fill:#ffffff;fill-opacity:0.391389"
   width="5.0079999"
   height="0.53799999"
   id="rect392" />
	<rect
   x="138.77299"
   y="186.76199"
   style="fill:#ffffff;fill-opacity:0.391389"
   width="4.3060002"
   height="0.53799999"
   id="rect393" />
	<rect
   x="71.542"
   y="176.298"
   style="fill:#ffffff;fill-opacity:0.391389"
   width="8.6709995"
   height="0.53799999"
   id="rect394" />
	<rect
   x="71.542"
   y="178.51801"
   style="fill:#ffffff;fill-opacity:0.391389"
   width="8.6709995"
   height="0.53799999"
   id="rect395" />
	<rect
   x="71.542"
   y="180.737"
   style="fill:#ffffff;fill-opacity:0.391389"
   width="8.6709995"
   height="0.53799999"
   id="rect396" />
	<rect
   x="229.172"
   y="142.342"
   style="fill:#ffffff;fill-opacity:0.391389"
   width="0.53899997"
   height="13.283"
   id="rect397" />
	<rect
   x="235.55701"
   y="151.914"
   style="fill:#ffffff;fill-opacity:0.391389"
   width="0.53899997"
   height="16.33"
   id="rect398" />
	<rect
   x="194.914"
   y="154.32401"
   style="fill:#ffffff;fill-opacity:0.391389"
   width="0.53899997"
   height="15.144"
   id="rect399" />
	<rect
   x="202.11301"
   y="101.425"
   style="fill:#ffffff;fill-opacity:0.391389"
   width="0.53899997"
   height="25.504999"
   id="rect400" />
	<rect
   x="154.41"
   y="112.748"
   style="fill:#ffffff;fill-opacity:0.391389"
   width="0.53899997"
   height="5.9840002"
   id="rect401" />
	<rect
   x="151.472"
   y="112.748"
   style="fill:#ffffff;fill-opacity:0.391389"
   width="0.53899997"
   height="5.9840002"
   id="rect402" />
	<rect
   x="148.534"
   y="112.748"
   style="fill:#ffffff;fill-opacity:0.391389"
   width="0.53899997"
   height="5.9840002"
   id="rect403" />
	<rect
   x="145.597"
   y="112.748"
   style="fill:#ffffff;fill-opacity:0.391389"
   width="0.53899997"
   height="5.9840002"
   id="rect404" />
	<rect
   x="142.659"
   y="112.748"
   style="fill:#ffffff;fill-opacity:0.391389"
   width="0.53899997"
   height="5.9840002"
   id="rect405" />
	<rect
   x="136.718"
   y="162.75999"
   style="fill:#ffffff;fill-opacity:0.391389"
   width="0.53899997"
   height="5.9840002"
   id="rect406" />
	<rect
   x="133.78"
   y="162.75999"
   style="fill:#ffffff;fill-opacity:0.391389"
   width="0.53899997"
   height="5.9840002"
   id="rect407" />
	<rect
   x="130.842"
   y="162.75999"
   style="fill:#ffffff;fill-opacity:0.391389"
   width="0.53899997"
   height="5.9840002"
   id="rect408" />
	<rect
   x="150.254"
   y="145.558"
   style="fill:#ffffff;fill-opacity:0.391389"
   width="0.53899997"
   height="22.74"
   id="rect409" />
	<rect
   x="135.15199"
   y="169.013"
   style="fill:#ffffff;fill-opacity:0.391389"
   width="0.53899997"
   height="8.4759998"
   id="rect410" />
	<rect
   x="142.535"
   y="168.93201"
   style="fill:#ffffff;fill-opacity:0.391389"
   width="0.53899997"
   height="8.4759998"
   id="rect411" />
	<rect
   x="79.926003"
   y="162.85699"
   style="fill:#ffffff;fill-opacity:0.391389"
   width="0.53899997"
   height="26.143999"
   id="rect412" />
	<rect
   x="150.57201"
   y="84.780998"
   style="fill:#ffffff;fill-opacity:0.391389"
   width="0.53899997"
   height="19.870001"
   id="rect413" />
	<rect
   x="140.811"
   y="69.136002"
   style="fill:#ffffff;fill-opacity:0.391389"
   width="0.53899997"
   height="16.721001"
   id="rect414" />
	<rect
   x="178.78101"
   y="71.644997"
   style="fill:#ffffff;fill-opacity:0.391389"
   width="0.53899997"
   height="19.870001"
   id="rect415" />
	<rect
   x="186.34399"
   y="202.091"
   style="fill:#ffffff;fill-opacity:0.391389"
   width="9.1879997"
   height="1.909"
   id="rect416" />
	<polygon
   style="fill:#ffffff;fill-opacity:0.391389"
   points="183.758,233.424 183.758,219.403 187.25,219.403 187.25,237.115 "
   id="polygon416" />
</g></svg>
