<svg width="10222" height="1785" viewBox="0 0 10222 1785" fill="none" xmlns="http://www.w3.org/2000/svg">
<path d="M5987.84 1184.22H5826.83V980.469H5732.78V1479.22H5826.83V1273.99H5987.84V1479.22H6081.89V980.469H5987.84V1184.22Z" fill="#002FEB"/>
<path d="M6452.37 1311.07C6452.37 1341.01 6446.08 1364.65 6433.49 1381.95C6420.9 1399.3 6401.06 1407.97 6373.98 1407.97C6350.23 1407.97 6332.41 1400.99 6320.56 1386.97C6308.66 1372.96 6302.73 1353.39 6302.73 1328.21V1125.88H6212.97V1346.77C6212.97 1371 6216.19 1392 6222.59 1409.83C6228.99 1427.65 6237.93 1442.51 6249.31 1454.36C6260.73 1466.26 6274.01 1475.05 6289.19 1480.71C6304.37 1486.42 6320.77 1489.27 6338.33 1489.27C6390.11 1489.27 6423.81 1468.86 6439.52 1428.02H6452.32V1479.33H6542.08V1125.93H6452.32V1311.17L6452.37 1311.07Z" fill="#002FEB"/>
<path d="M6971.81 1115.83C6953.77 1115.83 6938.7 1120.01 6926.58 1128.32C6914.47 1136.62 6906.54 1147.2 6902.73 1160H6889.93C6886.12 1147.2 6878.77 1136.62 6867.82 1128.32C6856.87 1120.01 6843.59 1115.83 6827.93 1115.83C6811.32 1115.83 6797.89 1120.01 6787.68 1128.32C6777.47 1136.62 6770.91 1147.2 6768.11 1160H6755.31V1125.78H6665.54V1479.17H6755.31V1235.48C6755.31 1224.06 6758.16 1215.54 6763.88 1209.83C6769.59 1204.12 6776.68 1201.26 6785.25 1201.26C6792.86 1201.26 6799.37 1203.75 6804.82 1208.72C6810.27 1213.69 6813.02 1221.2 6813.02 1231.15V1479.07H6902.78V1235.38C6902.78 1223.95 6905.53 1215.44 6910.98 1209.72C6916.43 1204.01 6923.94 1201.15 6933.41 1201.15C6941.5 1201.15 6948.01 1203.64 6952.98 1208.61C6957.95 1213.58 6960.44 1221.1 6960.44 1231.04V1478.96H7050.2V1205.39C7050.2 1177.35 7043.06 1155.4 7028.83 1139.48C7014.6 1123.56 6995.56 1115.62 6971.81 1115.62V1115.83Z" fill="#002FEB"/>
<path d="M9118.16 958.731C9109.86 955.187 9101.18 953.389 9092.14 953.389C9082.61 953.389 9073.83 955.187 9065.79 958.731C9057.7 962.275 9050.61 967.036 9044.42 972.96C9038.23 978.884 9033.37 986.025 9029.82 994.33C9026.28 1002.63 9024.48 1011.57 9024.48 1021.04C9024.48 1030.51 9026.28 1039.45 9029.82 1047.75C9033.37 1056.06 9038.23 1063.2 9044.42 1069.12C9050.61 1075.05 9057.7 1079.81 9065.79 1083.35C9073.89 1086.9 9082.67 1088.7 9092.14 1088.7C9101.13 1088.7 9109.8 1086.9 9118.16 1083.35C9126.46 1079.81 9133.71 1075.05 9139.9 1069.12C9146.09 1063.2 9150.96 1056.06 9154.5 1047.75C9158.04 1039.45 9159.84 1030.56 9159.84 1021.04C9159.84 1011.52 9158.04 1002.63 9154.5 994.33C9150.96 986.025 9146.04 978.884 9139.9 972.96C9133.71 967.036 9126.46 962.275 9118.16 958.731Z" fill="#002FEB"/>
<path d="M8681.03 980.469H8591.27V1125.83H8486.53V1211.31H8591.27V1423.63C8591.27 1439.76 8596.34 1453.09 8606.61 1463.51C8616.81 1473.99 8629.99 1479.17 8646.17 1479.17H8795.81V1393.69H8700.34C8687.54 1393.69 8681.08 1386.55 8681.08 1372.32V1211.31H8808.61V1125.83H8681.08V980.469H8681.03Z" fill="#002FEB"/>
<path d="M9137.78 1125.83H8936.83V1211.31H9047.97V1393.69H8928.26V1479.23H9240.35V1393.69H9137.78V1125.83Z" fill="#002FEB"/>
<path d="M8329.8 1125.83H8128.85V1211.31H8240.04V1393.69H8120.33V1479.23H8432.37V1393.69H8329.8V1125.83Z" fill="#002FEB"/>
<path d="M8257.81 958.731C8249.72 962.275 8242.58 967.036 8236.44 972.96C8230.25 978.884 8225.39 986.025 8221.84 994.33C8218.3 1002.63 8216.5 1011.57 8216.5 1021.04C8216.5 1030.51 8218.3 1039.45 8221.84 1047.75C8225.39 1056.06 8230.25 1063.2 8236.44 1069.12C8242.63 1075.05 8249.72 1079.81 8257.81 1083.35C8265.9 1086.9 8274.68 1088.7 8284.15 1088.7C8293.2 1088.7 8301.82 1086.9 8310.18 1083.35C8318.48 1079.81 8325.73 1075.05 8331.92 1069.12C8338.11 1063.2 8342.97 1056.06 8346.52 1047.75C8350.06 1039.45 8351.86 1030.56 8351.86 1021.04C8351.86 1011.52 8350.06 1002.63 8346.52 994.33C8342.97 986.025 8338.05 978.884 8331.92 972.96C8325.73 967.036 8318.48 962.275 8310.18 958.731C8301.87 955.187 8293.2 953.389 8284.15 953.389C8274.63 953.389 8265.85 955.187 8257.81 958.731Z" fill="#002FEB"/>
<path d="M10027.6 1295.04C10004.9 1277.22 9975.39 1266.42 9939.31 1262.62C9907.95 1259.28 9886.36 1255.16 9874.46 1250.13C9862.56 1245.16 9856.64 1236.96 9856.64 1225.54C9856.64 1217.44 9860.45 1210.67 9868.06 1205.22C9875.68 1199.78 9887.05 1197.03 9902.29 1197.03C9918.9 1197.03 9932.44 1200.73 9942.91 1208.08C9953.33 1215.43 9960.74 1225.54 9965.02 1238.34L10046.3 1205.54C10042.5 1195.54 10037 1185.23 10029.9 1174.54C10022.7 1163.86 10013.5 1154.13 10002.1 1145.35C9990.68 1136.57 9976.82 1129.42 9960.42 1123.98C9944.02 1118.53 9924.66 1115.78 9902.34 1115.78C9885.25 1115.78 9868.59 1118.16 9852.46 1122.92C9836.33 1127.68 9822.04 1134.66 9809.72 1143.92C9797.34 1153.17 9787.4 1164.49 9779.78 1177.77C9772.16 1191.1 9768.35 1206.49 9768.35 1224.11V1228.39C9768.35 1262.14 9780.1 1287.64 9803.64 1304.99C9827.17 1322.34 9858.86 1332.65 9898.74 1335.98C9913.45 1337.41 9925.72 1339.31 9935.45 1341.7C9945.18 1344.08 9952.91 1347.04 9958.62 1350.58C9964.33 1354.13 9968.25 1357.93 9970.36 1362.01C9972.48 1366.03 9973.59 1370.47 9973.59 1375.18C9973.59 1383.27 9969.41 1390.73 9961.11 1397.61C9952.8 1404.48 9937.46 1407.92 9915.14 1407.92C9889.96 1407.92 9871.34 1402.21 9859.23 1390.84C9847.12 1379.41 9839.18 1366.13 9835.37 1350.95L9752.75 1378.03C9755.13 1390.41 9759.73 1403.11 9766.66 1416.17C9773.54 1429.24 9783.43 1441.09 9796.23 1451.82C9809.03 1462.51 9825.22 1471.4 9844.68 1478.54C9864.15 1485.68 9887.69 1489.22 9915.25 1489.22C9961.79 1489.22 9997.87 1478.8 10023.5 1457.85C10049.2 1436.96 10062 1408.93 10062 1373.8V1369.52C10062 1337.68 10050.6 1312.87 10027.8 1295.04H10027.6Z" fill="#002FEB"/>
<path d="M9630.09 1172.48C9615.86 1156.09 9597.77 1142.54 9575.92 1131.86C9554.07 1121.17 9527.94 1115.83 9497.53 1115.83C9472.83 1115.83 9449.66 1120.22 9428.08 1129C9406.44 1137.78 9387.56 1150 9371.43 1165.71C9355.29 1181.37 9342.54 1200.41 9333.29 1222.73C9324.03 1245.06 9319.38 1269.76 9319.38 1296.84V1301.13C9319.38 1330.59 9323.77 1356.93 9332.55 1380.2C9341.33 1403.48 9353.65 1423.21 9369.57 1439.34C9385.5 1455.48 9404.38 1467.85 9426.23 1476.37C9448.07 1484.94 9472.3 1489.17 9498.9 1489.17C9522.18 1489.17 9542.49 1486.58 9559.84 1481.34C9577.19 1476.1 9591.89 1469.49 9604.01 1461.4C9616.12 1453.31 9625.96 1444.42 9633.58 1434.69C9641.19 1424.95 9647.12 1415.59 9651.4 1406.55L9574.44 1363.81C9569.2 1374.76 9560.63 1384.12 9548.78 1391.95C9536.88 1399.78 9519.8 1403.69 9497.48 1403.69C9486.05 1403.69 9475.26 1401.89 9465.05 1398.35C9454.84 1394.8 9445.8 1389.78 9437.97 1383.38C9430.14 1376.98 9423.95 1369.36 9419.45 1360.58C9414.96 1351.8 9412.42 1342.17 9412 1331.7H9671.34V1283.99C9671.34 1265.47 9668.01 1246.33 9661.35 1226.65C9654.68 1206.92 9644.26 1188.88 9629.98 1172.48H9630.09ZM9413.48 1254.79C9417.76 1239.61 9427.02 1226.17 9441.25 1214.54C9455.48 1202.9 9474.04 1197.08 9496.84 1197.08C9519.64 1197.08 9538.52 1202.53 9553.49 1213.48C9568.46 1224.43 9577.35 1238.18 9580.2 1254.79H9413.48Z" fill="#002FEB"/>
<path d="M7502.57 1372.32V1125.83H7412.8V1168.57H7400C7390.95 1150.53 7378.74 1137.2 7363.29 1128.69C7347.85 1120.12 7327.53 1115.88 7302.35 1115.88C7281.46 1115.88 7261.84 1120.06 7243.59 1128.37C7225.29 1136.67 7209.26 1148.68 7195.51 1164.34C7181.7 1179.99 7170.8 1199.04 7162.71 1221.36C7154.62 1243.68 7150.6 1268.86 7150.6 1296.89V1308.27C7150.6 1336.78 7154.72 1362.17 7163.08 1384.49C7171.39 1406.81 7182.65 1425.8 7196.93 1441.51C7211.16 1457.17 7227.67 1469.07 7246.44 1477.16C7265.22 1485.26 7285.27 1489.28 7306.64 1489.28C7329.44 1489.28 7349.38 1484.62 7366.46 1475.36C7383.55 1466.11 7396.88 1450.29 7406.35 1427.97H7419.15C7419.15 1443.2 7424.23 1455.53 7434.49 1465C7444.7 1474.52 7457.87 1479.23 7474.05 1479.23H7535.31V1393.75H7521.77C7508.97 1393.75 7502.51 1386.61 7502.51 1372.38L7502.57 1372.32ZM7412.8 1306.79C7412.8 1336.72 7404.97 1360.37 7389.26 1377.67C7373.61 1395.02 7352.66 1403.69 7326.58 1403.69C7300.5 1403.69 7279.56 1395.02 7263.9 1377.67C7248.24 1360.32 7240.36 1336.67 7240.36 1306.79V1298.22C7240.36 1268.28 7248.19 1244.69 7263.9 1227.34C7279.56 1209.99 7300.45 1201.31 7326.58 1201.31C7352.71 1201.31 7373.61 1209.99 7389.26 1227.34C7404.92 1244.69 7412.8 1268.33 7412.8 1298.22V1306.79Z" fill="#002FEB"/>
<path d="M7952.87 1149.32C7941.44 1137.89 7928.27 1129.48 7913.3 1124.03C7898.33 1118.58 7882.3 1115.83 7865.22 1115.83C7840.99 1115.83 7819.83 1121.28 7801.8 1132.23C7783.76 1143.18 7770.69 1158.57 7762.6 1178.57H7749.8V1125.83H7660.04V1479.23H7749.8V1295.41C7749.8 1265.47 7756.31 1241.62 7769.37 1223.79C7782.44 1205.97 7802.27 1197.08 7828.88 1197.08C7851.68 1197.08 7869.13 1204.33 7881.25 1218.82C7893.36 1233.31 7899.39 1253.15 7899.39 1278.33V1479.23H7989.15V1255.48C7989.15 1231.25 7985.93 1210.36 7979.53 1192.8C7973.13 1175.23 7964.19 1160.74 7952.81 1149.32H7952.87Z" fill="#002FEB"/>
<path d="M4125.07 980.469H4035.3V1125.83H3930.57V1211.31H4035.3V1423.63C4035.3 1439.76 4040.38 1453.09 4050.64 1463.51C4060.85 1473.99 4074.02 1479.17 4090.21 1479.17H4239.85V1393.69H4144.37C4131.57 1393.69 4125.12 1386.55 4125.12 1372.32V1211.31H4252.65V1125.83H4125.12V980.469H4125.07Z" fill="#002FEB"/>
<path d="M3687.62 1083.4C3695.71 1086.95 3704.49 1088.75 3713.96 1088.75C3722.95 1088.75 3731.63 1086.95 3739.98 1083.4C3748.29 1079.86 3755.54 1075.1 3761.72 1069.18C3767.91 1063.25 3772.78 1056.11 3776.32 1047.81C3779.87 1039.5 3781.67 1030.61 3781.67 1021.09C3781.67 1011.57 3779.87 1002.69 3776.32 994.381C3772.78 986.076 3767.86 978.935 3761.72 973.011C3755.54 967.087 3748.29 962.326 3739.98 958.782C3731.68 955.238 3723.01 953.439 3713.96 953.439C3704.44 953.439 3695.66 955.238 3687.62 958.782C3679.52 962.326 3672.44 967.087 3666.25 973.011C3660.06 978.935 3655.19 986.076 3651.65 994.381C3648.1 1002.69 3646.31 1011.62 3646.31 1021.09C3646.31 1030.56 3648.1 1039.5 3651.65 1047.81C3655.19 1056.11 3660.06 1063.25 3666.25 1069.18C3672.44 1075.1 3679.52 1079.86 3687.62 1083.4Z" fill="#002FEB"/>
<path d="M5088.35 980.469H4878.88V1065.95H4998.59V1393.69H4874.65V1479.22H5203.82V1393.69H5088.35V980.469Z" fill="#002FEB"/>
<path d="M4719.3 1372.32V1125.83H4629.53V1168.57H4616.73C4607.69 1150.53 4595.47 1137.2 4580.02 1128.69C4564.58 1120.12 4544.27 1115.88 4519.09 1115.88C4498.19 1115.88 4478.57 1120.06 4460.32 1128.37C4442.02 1136.67 4425.99 1148.68 4412.24 1164.34C4398.43 1179.99 4387.54 1199.04 4379.44 1221.36C4371.35 1243.68 4367.33 1268.86 4367.33 1296.89V1308.27C4367.33 1336.78 4371.45 1362.17 4379.81 1384.49C4388.12 1406.81 4399.38 1425.8 4413.67 1441.51C4427.89 1457.17 4444.4 1469.07 4463.18 1477.16C4481.95 1485.26 4502 1489.28 4523.37 1489.28C4546.17 1489.28 4566.11 1484.62 4583.2 1475.36C4600.28 1466.11 4613.61 1450.29 4623.08 1427.97H4635.88C4635.88 1443.2 4640.96 1455.53 4651.22 1465C4661.43 1474.52 4674.6 1479.23 4690.79 1479.23H4752.04V1393.75H4738.5C4725.7 1393.75 4719.24 1386.61 4719.24 1372.38L4719.3 1372.32ZM4629.53 1306.79C4629.53 1336.72 4621.7 1360.37 4605.99 1377.67C4590.34 1395.02 4569.39 1403.69 4543.31 1403.69C4517.24 1403.69 4496.29 1395.02 4480.63 1377.67C4464.97 1360.32 4457.09 1336.67 4457.09 1306.79V1298.22C4457.09 1268.28 4464.92 1244.69 4480.63 1227.34C4496.29 1209.99 4517.18 1201.31 4543.31 1201.31C4569.44 1201.31 4590.34 1209.99 4605.99 1227.34C4621.65 1244.69 4629.53 1268.33 4629.53 1298.22V1306.79Z" fill="#002FEB"/>
<path d="M3759.56 1125.83H3558.66V1211.31H3669.79V1393.69H3550.09V1479.22H3862.17V1393.69H3759.56V1125.83Z" fill="#002FEB"/>
<path d="M3327.82 1177.14H3315.02C3305.5 1157.67 3292.43 1142.6 3275.82 1131.91C3259.22 1121.23 3236.63 1115.88 3208.12 1115.88C3186.75 1115.88 3166.44 1119.9 3147.18 1128C3127.93 1136.09 3111.05 1147.83 3096.61 1163.28C3082.12 1178.72 3070.7 1197.61 3062.39 1219.93C3054.09 1242.25 3049.91 1267.64 3049.91 1296.15V1308.95C3049.91 1337.94 3053.82 1363.6 3061.65 1385.92C3069.48 1408.24 3080.43 1427.12 3094.45 1442.57C3108.46 1458.01 3124.86 1469.65 3143.59 1477.48C3162.36 1485.31 3182.68 1489.22 3204.52 1489.22C3221.61 1489.22 3236.21 1487.53 3248.32 1484.25C3260.43 1480.92 3270.85 1476.42 3279.69 1470.71C3288.47 1465 3295.61 1458.49 3301.06 1451.14C3306.5 1443.79 3311.16 1436.06 3314.97 1427.97H3327.77V1514.88C3327.77 1529.11 3321.37 1536.25 3308.51 1536.25H3124.7V1621.73H3362.68C3378.81 1621.73 3391.98 1616.49 3402.25 1606.07C3412.45 1595.6 3417.59 1582.32 3417.59 1566.19V1125.88H3327.82V1177.19V1177.14ZM3327.82 1306.79C3327.82 1335.77 3319.15 1359.15 3301.8 1376.98C3284.45 1394.8 3261.75 1403.69 3233.77 1403.69C3205.79 1403.69 3183.05 1395.02 3165.75 1377.67C3148.4 1360.32 3139.72 1336.67 3139.72 1306.79V1298.22C3139.72 1268.28 3148.4 1244.69 3165.75 1227.34C3183.1 1209.99 3205.74 1201.31 3233.77 1201.31C3261.81 1201.31 3284.45 1210.2 3301.8 1228.02C3319.15 1245.85 3327.82 1269.23 3327.82 1298.22V1306.79Z" fill="#002FEB"/>
<path d="M2851.87 1125.83H2650.91V1211.31H2762.1V1393.69H2642.4V1479.22H2954.48V1393.69H2851.87V1125.83Z" fill="#002FEB"/>
<path d="M2779.87 1083.4C2787.97 1086.95 2796.75 1088.75 2806.22 1088.75C2815.21 1088.75 2823.88 1086.95 2832.24 1083.4C2840.55 1079.86 2847.79 1075.1 2853.98 1069.18C2860.17 1063.25 2865.04 1056.11 2868.58 1047.81C2872.12 1039.5 2873.92 1030.61 2873.92 1021.09C2873.92 1011.57 2872.12 1002.69 2868.58 994.381C2865.04 986.076 2860.12 978.935 2853.98 973.011C2847.79 967.087 2840.55 962.326 2832.24 958.782C2823.94 955.238 2815.26 953.439 2806.22 953.439C2796.69 953.439 2787.91 955.238 2779.87 958.782C2771.78 962.326 2764.64 967.087 2758.5 973.011C2752.32 978.935 2747.45 986.076 2743.91 994.381C2740.36 1002.69 2738.56 1011.62 2738.56 1021.09C2738.56 1030.56 2740.36 1039.5 2743.91 1047.81C2747.45 1056.11 2752.32 1063.25 2758.5 1069.18C2764.69 1075.1 2771.78 1079.86 2779.87 1083.4Z" fill="#002FEB"/>
<path d="M2354.54 980.469H2173.58V1070.23H2220.61V1388.72H2173.58V1479.22H2354.54C2416.27 1479.22 2462.13 1464.89 2492.07 1436.11C2522.01 1407.39 2536.98 1362.85 2536.98 1302.5V1157.14C2536.98 1096.84 2522.01 1052.3 2492.07 1023.53C2462.13 994.804 2416.32 980.416 2354.54 980.416V980.469ZM2442.88 1293.98C2442.88 1326.78 2436.32 1350.84 2423.3 1366.29C2410.24 1381.74 2387.33 1389.46 2354.54 1389.46H2314.66V1070.29H2354.54C2387.33 1070.29 2410.24 1077.64 2423.3 1092.4C2436.37 1107.1 2442.88 1128.74 2442.88 1157.25V1294.03V1293.98Z" fill="#002FEB"/>
<path d="M2912.43 353.126C2895.35 337.469 2875.72 325.567 2853.66 317.527C2831.55 309.434 2808.44 305.414 2784.21 305.414C2759.98 305.414 2736.82 309.434 2714.76 317.527C2692.65 325.62 2673.08 337.469 2655.99 353.126C2638.91 368.783 2625.37 387.931 2615.37 410.465C2605.37 433.051 2600.4 458.812 2600.4 487.746V496.315C2600.4 525.778 2605.37 551.802 2615.37 574.336C2625.37 596.923 2638.91 615.912 2655.99 631.358C2673.08 646.803 2692.7 658.546 2714.76 666.639C2736.87 674.732 2759.98 678.752 2784.21 678.752C2808.44 678.752 2831.61 674.732 2853.66 666.639C2875.77 658.546 2895.35 646.803 2912.43 631.358C2929.52 615.912 2943.06 596.923 2953.05 574.336C2963.05 551.802 2968.02 525.778 2968.02 496.315V487.746C2968.02 458.759 2963.05 432.999 2953.05 410.465C2943.06 387.931 2929.52 368.783 2912.43 353.126ZM2878.21 499.171C2878.21 513.876 2875.72 527.1 2870.75 538.737C2865.78 550.374 2859.01 560.213 2850.44 568.306C2841.87 576.399 2831.92 582.535 2820.5 586.819C2809.07 591.104 2796.96 593.22 2784.16 593.22C2771.36 593.22 2759.24 591.104 2747.82 586.819C2736.39 582.535 2726.45 576.399 2717.88 568.306C2709.31 560.213 2702.54 550.374 2697.57 538.737C2692.6 527.1 2690.11 513.929 2690.11 499.171V484.942C2690.11 470.237 2692.6 457.066 2697.57 445.376C2702.54 433.739 2709.31 423.901 2717.88 415.807C2726.45 407.714 2736.39 401.579 2747.82 397.294C2759.19 393.009 2771.3 390.894 2784.16 390.894C2797.01 390.894 2809.07 393.009 2820.5 397.294C2831.92 401.579 2841.87 407.767 2850.44 415.807C2859.01 423.901 2865.78 433.739 2870.75 445.376C2875.72 457.013 2878.21 470.184 2878.21 484.942V499.171Z" fill="#002FEB"/>
<path d="M2394.42 412.95L2548.35 174.285V170H2442.19L2310.37 374.495H2289.69V170H2195.64V668.754H2289.69V464.259H2310.37L2446.47 668.754H2556.87V664.469L2394.42 425.804V412.95Z" fill="#002FEB"/>
<path d="M3380.5 305.364C3362.47 305.364 3347.39 309.542 3335.28 317.847C3323.17 326.152 3315.23 336.731 3311.42 349.532H3298.62C3294.81 336.731 3287.46 326.152 3276.51 317.847C3265.56 309.542 3252.29 305.364 3236.63 305.364C3220.02 305.364 3206.58 309.542 3196.38 317.847C3186.17 326.152 3179.61 336.731 3176.8 349.532H3164V315.308H3074.24V668.705H3164V425.014C3164 413.588 3166.86 405.072 3172.57 399.359C3178.28 393.647 3185.37 390.79 3193.94 390.79C3201.56 390.79 3208.07 393.276 3213.51 398.249C3218.96 403.221 3221.71 410.732 3221.71 420.676V668.652H3311.48V424.961C3311.48 413.535 3314.23 405.019 3319.67 399.306C3325.12 393.594 3332.63 390.737 3342.1 390.737C3350.2 390.737 3356.7 393.223 3361.67 398.196C3366.65 403.168 3369.13 410.679 3369.13 420.623V668.599H3458.9V395.022C3458.9 366.987 3451.76 345.035 3437.53 329.114C3423.3 313.192 3404.26 305.258 3380.5 305.258V305.364Z" fill="#002FEB"/>
<path d="M8502.61 613.161C8502.61 629.294 8507.69 642.623 8517.95 653.044C8528.16 663.517 8541.33 668.701 8557.52 668.701H8707.16V583.222H8611.68C8598.88 583.222 8592.43 576.081 8592.43 561.852V400.837H8719.96V315.358H8592.43V170H8502.66V315.358H8397.93V400.837H8502.66V613.161H8502.61Z" fill="#002FEB"/>
<path d="M3949.82 498.484V485.683C3949.82 457.172 3945.64 431.782 3937.34 409.46C3929.03 387.138 3917.87 368.254 3903.86 352.809C3889.84 337.363 3873.44 325.62 3854.72 317.527C3835.94 309.434 3816.1 305.414 3795.21 305.414C3767.17 305.414 3744.16 310.757 3726.07 321.441C3708.04 332.126 3694.23 347.202 3684.76 366.667H3671.96V315.358H3582.2V811.256H3671.96V617.446H3684.76C3689.05 625.539 3694.12 633.262 3700.1 640.614C3706.03 647.967 3713.38 654.526 3722.21 660.186C3730.99 665.899 3741.31 670.395 3753.21 673.727C3765.06 677.06 3779.07 678.699 3795.26 678.699C3817.11 678.699 3837.42 674.785 3856.2 666.957C3874.97 659.128 3891.21 647.491 3905.02 632.045C3918.77 616.6 3929.72 597.716 3937.81 575.394C3945.91 553.072 3949.93 527.418 3949.93 498.431L3949.82 498.484ZM3860.06 496.315C3860.06 526.254 3851.38 549.898 3834.03 567.195C3816.68 584.545 3793.99 593.22 3766.01 593.22C3738.03 593.22 3715.28 584.333 3697.99 566.507C3680.64 548.682 3671.96 525.302 3671.96 496.315V487.746C3671.96 458.759 3680.64 435.379 3697.99 417.553C3715.33 399.727 3737.97 390.841 3766.01 390.841C3794.04 390.841 3816.68 399.516 3834.03 416.865C3851.38 434.215 3860.06 457.86 3860.06 487.746V496.315Z" fill="#002FEB"/>
<path d="M7364.08 583.221H7282.84V469.23C7282.84 443.576 7288.55 423.899 7299.92 410.093C7311.35 396.34 7327 389.411 7346.95 389.411C7366.89 389.411 7381.86 395.229 7391.85 406.866C7401.85 418.503 7406.82 434.055 7406.82 453.52V463.518L7499.44 454.949V439.291C7499.44 394.171 7488.76 360.583 7467.39 338.472C7446.02 316.362 7417.77 305.359 7382.6 305.359C7360.28 305.359 7341.13 310.702 7325.26 321.387C7309.34 332.072 7298.07 347.147 7291.41 366.613H7278.6V315.304H7128.96V400.783H7193.07V583.168H7120.39V668.647H7364.08V583.168V583.221Z" fill="#002FEB"/>
<path d="M8261.83 647.385C8287.49 626.492 8300.29 598.457 8300.29 563.334V559.05C8300.29 527.206 8288.86 502.398 8266.06 484.572C8243.26 466.746 8213.8 455.956 8177.73 452.147C8146.36 448.815 8124.78 444.689 8112.88 439.664C8100.97 434.692 8095.05 426.493 8095.05 415.067C8095.05 406.974 8098.86 400.204 8106.48 394.755C8114.09 389.307 8125.47 386.556 8140.7 386.556C8157.31 386.556 8170.85 390.259 8181.32 397.612C8191.74 404.964 8199.15 415.067 8203.43 427.868L8284.68 395.073C8280.87 385.075 8275.42 374.761 8268.28 364.076C8261.14 353.391 8251.89 343.658 8240.51 334.877C8229.09 326.097 8215.23 318.956 8198.83 313.507C8182.43 308.059 8163.07 305.309 8140.75 305.309C8123.67 305.309 8107 307.689 8090.87 312.45C8074.74 317.21 8060.46 324.192 8048.13 333.449C8035.75 342.706 8025.81 354.026 8018.19 367.302C8010.58 380.632 8006.82 396.025 8006.82 413.639V417.924C8006.82 451.671 8018.56 477.167 8042.1 494.517C8065.64 511.866 8097.32 522.181 8137.21 525.514C8151.91 526.942 8164.19 528.846 8173.92 531.226C8183.65 533.607 8191.37 536.569 8197.09 540.113C8202.8 543.657 8206.71 547.465 8208.83 551.538C8210.94 555.558 8212.06 560.002 8212.06 564.709C8212.06 572.802 8207.88 580.261 8199.57 587.137C8191.27 594.014 8175.93 597.452 8153.61 597.452C8128.43 597.452 8109.81 591.739 8097.69 580.366C8085.58 568.941 8077.59 555.664 8073.84 540.483L7991.22 567.566C7993.6 579.943 7998.2 592.638 8005.13 605.704C8012 618.769 8021.9 630.617 8034.7 641.302C8047.5 651.987 8063.68 660.874 8083.15 668.015C8102.61 675.156 8126.15 678.7 8153.71 678.7C8200.26 678.7 8236.33 668.279 8261.99 647.332L8261.83 647.385Z" fill="#002FEB"/>
<path d="M9821.46 613.161C9821.46 629.294 9826.54 642.623 9836.8 653.044C9847.01 663.517 9860.18 668.701 9876.37 668.701H10026V583.222H9930.53C9917.73 583.222 9911.28 576.081 9911.28 561.852V400.837H10038.8V315.358H9911.28V170H9821.52V315.358H9716.78V400.837H9821.52V613.161H9821.46Z" fill="#002FEB"/>
<path d="M6714.63 628.872C6730.55 645.005 6749.44 657.383 6771.28 665.899C6793.13 674.468 6817.35 678.7 6843.96 678.7C6867.23 678.7 6887.55 676.108 6904.9 670.871C6922.25 665.634 6936.95 659.022 6949.06 650.929C6961.18 642.836 6971.02 633.95 6978.63 624.217C6986.25 614.484 6992.17 605.122 6996.46 596.077L6919.5 553.337C6914.26 564.286 6905.69 573.649 6893.84 581.477C6881.94 589.306 6864.85 593.22 6842.53 593.22C6831.11 593.22 6820.32 591.422 6810.11 587.878C6799.9 584.334 6790.85 579.309 6783.02 572.908C6775.2 566.508 6769.01 558.891 6764.51 550.11C6760.01 541.329 6757.48 531.702 6757.05 521.229H7016.4V473.464C7016.4 454.951 7013.07 435.802 7006.4 416.125C6999.74 396.395 6989.32 378.358 6975.04 361.96C6960.81 345.562 6942.72 332.021 6920.87 321.336C6899.03 310.651 6872.89 305.309 6842.48 305.309C6817.78 305.309 6794.61 309.699 6773.03 318.48C6751.39 327.26 6732.51 339.479 6716.38 355.189C6700.24 370.846 6687.5 389.889 6678.24 412.211C6668.98 434.533 6664.33 459.235 6664.33 486.318V490.602C6664.33 520.065 6668.72 546.407 6677.5 569.682C6686.28 592.956 6698.6 612.686 6714.52 628.819L6714.63 628.872ZM6786.25 404.065C6800.48 392.428 6819.05 386.609 6841.84 386.609C6864.64 386.609 6883.53 392.058 6898.5 403.007C6913.47 413.956 6922.35 427.709 6925.21 444.319H6758.48C6762.77 429.138 6772.02 415.702 6786.25 404.065Z" fill="#002FEB"/>
<path d="M9396.13 613.161C9396.13 629.294 9401.2 642.623 9411.47 653.044C9421.67 663.517 9434.85 668.701 9451.03 668.701H9600.67V583.222H9505.2C9492.4 583.222 9485.94 576.081 9485.94 561.852V400.837H9613.47V315.358H9485.94V170H9396.18V315.358H9291.45V400.837H9396.18V613.161H9396.13Z" fill="#002FEB"/>
<path d="M9036.28 664.841C9053.36 655.584 9066.69 639.768 9076.16 617.446H9088.96C9088.96 632.627 9094.04 645.005 9104.3 654.473C9114.51 663.994 9127.68 668.702 9143.87 668.702H9205.12V583.223H9191.58C9178.78 583.223 9172.33 576.082 9172.33 561.853V315.358H9082.56V358.098H9069.76C9060.72 340.061 9048.5 326.731 9033.05 318.215C9017.61 309.646 8997.29 305.414 8972.12 305.414C8951.22 305.414 8931.6 309.593 8913.35 317.897C8895.05 326.202 8879.02 338.209 8865.27 353.867C8851.46 369.524 8840.56 388.566 8832.47 410.888C8824.38 433.21 8820.36 458.389 8820.36 486.423V497.849C8820.36 526.36 8824.54 551.75 8832.84 574.072C8841.15 596.394 8852.41 615.383 8866.69 631.093C8880.92 646.75 8897.43 658.652 8916.2 666.745C8934.98 674.838 8955.03 678.858 8976.4 678.858C8999.2 678.858 9019.14 674.203 9036.22 664.946L9036.28 664.841ZM8910.17 496.315V487.746C8910.17 457.807 8918 434.215 8933.71 416.865C8949.37 399.516 8970.26 390.841 8996.39 390.841C9022.53 390.841 9043.42 399.516 9059.08 416.865C9074.73 434.215 9082.56 457.86 9082.56 487.746V496.315C9082.56 526.254 9074.73 549.898 9059.08 567.195C9043.42 584.545 9022.47 593.22 8996.39 593.22C8970.32 593.22 8949.37 584.545 8933.71 567.195C8918.06 549.845 8910.17 526.254 8910.17 496.315Z" fill="#002FEB"/>
<path d="M7689.71 530.537H7706.8L7807.93 668.754H7910.55V664.469L7785.13 494.198V481.344L7899.18 319.642V315.358H7800.84L7706.8 445.005H7689.71V170H7599.89V668.754H7689.71V530.537Z" fill="#002FEB"/>
<path d="M4635.93 170H4546.17V315.358H4441.44V400.837H4546.17V613.161C4546.17 629.294 4551.25 642.623 4561.51 653.044C4571.72 663.517 4584.89 668.701 4601.07 668.701H4750.72V583.222H4655.24C4642.44 583.222 4635.99 576.081 4635.99 561.852V400.837H4763.52V315.358H4635.99V170H4635.93Z" fill="#002FEB"/>
<path d="M4256.19 581.477C4244.29 589.306 4227.21 593.22 4204.89 593.22C4193.46 593.22 4182.67 591.422 4172.46 587.878C4162.25 584.334 4153.21 579.309 4145.38 572.908C4137.55 566.508 4131.36 558.891 4126.86 550.11C4122.37 541.329 4119.83 531.702 4119.41 521.229H4378.75V473.464C4378.75 454.951 4375.42 435.802 4368.76 416.125C4362.09 396.395 4351.67 378.358 4337.39 361.96C4323.16 345.562 4305.07 332.021 4283.22 321.336C4261.38 310.651 4235.25 305.309 4204.83 305.309C4180.13 305.309 4156.96 309.699 4135.38 318.48C4113.75 327.26 4094.86 339.479 4078.73 355.189C4062.6 370.846 4049.85 389.889 4040.59 412.211C4031.33 434.533 4026.68 459.235 4026.68 486.318V490.602C4026.68 520.065 4031.07 546.407 4039.85 569.682C4048.63 592.956 4060.96 612.686 4076.88 628.819C4092.8 644.952 4111.68 657.33 4133.53 665.846C4155.38 674.415 4179.6 678.647 4206.21 678.647C4229.48 678.647 4249.79 676.055 4267.14 670.818C4284.49 665.582 4299.2 658.97 4311.31 650.877C4323.42 642.783 4333.26 633.897 4340.88 624.164C4348.5 614.431 4354.42 605.069 4358.71 596.024L4281.74 553.284C4276.51 564.233 4267.94 573.596 4256.09 581.424L4256.19 581.477ZM4148.6 404.065C4162.83 392.428 4181.4 386.609 4204.2 386.609C4227 386.609 4245.88 392.058 4260.85 403.007C4275.82 413.956 4284.71 427.709 4287.56 444.319H4120.83C4125.12 429.138 4134.38 415.702 4148.6 404.065Z" fill="#002FEB"/>
<path d="M4955.85 665.899C4977.69 674.468 5001.92 678.7 5028.53 678.7C5051.8 678.7 5072.11 676.108 5089.46 670.871C5106.81 665.634 5121.52 659.022 5133.63 650.929C5145.74 642.836 5155.58 633.95 5163.2 624.217C5170.81 614.484 5176.74 605.122 5181.02 596.077L5104.06 553.337C5098.82 564.286 5090.25 573.649 5078.41 581.477C5066.5 589.306 5049.42 593.22 5027.1 593.22C5015.67 593.22 5004.88 591.422 4994.67 587.878C4984.46 584.334 4975.42 579.309 4967.59 572.908C4959.76 566.508 4953.57 558.891 4949.08 550.11C4944.58 541.329 4942.04 531.702 4941.62 521.229H5200.97V473.464C5200.97 454.951 5197.63 435.802 5190.97 416.125C5184.3 396.395 5173.88 378.358 5159.6 361.96C5145.37 345.562 5127.28 332.021 5105.44 321.336C5083.59 310.651 5057.46 305.309 5027.04 305.309C5002.34 305.309 4979.17 309.699 4957.59 318.48C4935.96 327.26 4917.07 339.479 4900.94 355.189C4884.81 370.846 4872.06 389.889 4862.8 412.211C4853.55 434.533 4848.89 459.235 4848.89 486.318V490.602C4848.89 520.065 4853.28 546.407 4862.06 569.682C4870.84 592.956 4883.17 612.686 4899.09 628.819C4915.01 644.952 4933.89 657.33 4955.74 665.846L4955.85 665.899ZM4970.82 404.065C4985.04 392.428 5003.61 386.609 5026.41 386.609C5049.21 386.609 5068.09 392.058 5083.06 403.007C5098.03 413.956 5106.92 427.709 5109.77 444.319H4943.05C4947.33 429.138 4956.59 415.702 4970.82 404.065Z" fill="#002FEB"/>
<path d="M6044.55 583.222H5813.71V570.421L6035.98 460.715V315.357H5741.03V397.981H5959.01V410.834L5736.75 519.112V668.754H6044.55V583.222Z" fill="#002FEB"/>
<path d="M6467.02 583.222V626.014H6449.94V583.222L6432.11 315.357H6283.95L6266.13 583.222V626.014H6249.04V583.222L6233.33 315.357H6150.71L6174.19 668.754H6329.55L6349.49 400.837V358.097H6366.58V400.837L6386.52 668.754H6541.87L6565.36 315.357H6482.73L6467.02 583.222Z" fill="#002FEB"/>
<path d="M5594.93 338.842C5583.51 327.417 5570.34 319.006 5555.37 313.558C5540.4 308.11 5524.37 305.359 5507.28 305.359C5483.06 305.359 5461.9 310.808 5443.86 321.757C5425.83 332.706 5412.76 348.099 5404.67 368.094H5391.87V315.357H5302.1V668.753H5391.87V484.94C5391.87 455.001 5398.37 431.145 5411.44 413.32C5424.5 395.494 5444.34 386.607 5470.95 386.607C5493.74 386.607 5511.2 393.854 5523.31 408.347C5535.43 422.841 5541.46 442.677 5541.46 467.855V668.753H5631.22V445.004C5631.22 420.778 5627.99 399.884 5621.59 382.323C5615.19 364.761 5606.25 350.268 5594.88 338.842H5594.93Z" fill="#002FEB"/>
<path d="M160 606.443V1037.38L806.386 1473.88H822.995V1230.77L242.888 838.496V805.331L822.995 413.109V170H806.386L160 606.443Z" fill="#002FEB"/>
<path d="M981.683 170V413.109L1561.79 805.331V838.496L981.683 1230.77V1473.88H998.239L1644.63 1037.38V606.443L998.239 170H981.683Z" fill="#002FEB"/>
</svg>
