<svg xmlns="http://www.w3.org/2000/svg" version="1.1" xmlns:xlink="http://www.w3.org/1999/xlink" xmlns:svgjs="http://svgjs.dev/svgjs" viewBox="0 0 800 800"><defs><filter id="uuunion-blur" x="-100%" y="-100%" width="400%" height="400%" color-interpolation-filters="sRGB">
        <feGaussianBlur in="SourceGraphic" stdDeviation="7.5 0" result="blur"></feGaussianBlur>
        <feDropShadow stdDeviation="12.307692307692308" in="blur" dx="10" dy="10" flood-color="hsl(342, 8%, 96%)" flood-opacity="0.25" x="0%" y="0%" width="100%" height="100%"></feDropShadow>
      </filter><filter id="uuunion-blur2" x="-100%" y="-100%" width="400%" height="400%" color-interpolation-filters="sRGB">
        <feGaussianBlur in="SourceGraphic" stdDeviation="7.5 0" result="blur"></feGaussianBlur>
        <feDropShadow stdDeviation="12.307692307692308" in="blur" dx="-10" dy="-10" flood-color="hsl(342, 8%, 96%)" flood-opacity="0.25" x="0%" y="0%" width="100%" height="100%"></feDropShadow>
      </filter><linearGradient gradientTransform="rotate(0, 0.5, 0.5)" x1="50%" y1="0%" x2="50%" y2="100%" id="uuunion-grad"><stop stop-color="hsl(217, 30%, 85%)" offset="10%"></stop><stop stop-color="hsl(342, 8%, 96%)" offset="90%"></stop></linearGradient><linearGradient gradientTransform="rotate(135, 0.5, 0.5)" x1="50%" y1="0%" x2="50%" y2="100%" id="uuunion-grad2"><stop stop-color="hsl(217, 30%, 85%)" offset="25%"></stop><stop stop-color="hsl(342, 8%, 96%)" offset="100%"></stop></linearGradient><linearGradient gradientTransform="rotate(333, 0.5, 0.5)" x1="50%" y1="0%" x2="50%" y2="100%" id="uuunion-grad3"><stop stop-color="hsl(217, 30%, 85%)" offset="0%"></stop><stop stop-color="hsl(342, 8%, 96%)" offset="75%"></stop></linearGradient></defs><path d="M-79.21 -88.44Q-64.49 -86 -49.77 -81.87 -35.05 -77.22 -20.33 -73.35 -5.61 -71.33 9.1 -71.75 23.82 -74.48 38.54 -78.75 53.26 -83.37 67.98 -87.05 82.7 -88.75 97.42 -87.99 112.14 -85 126.86 -80.61 141.59 -76.04 156.31 -72.58 171.03 -71.2 185.75 -72.28 200.47 -75.53 215.19 -80.02 229.91 -84.51 244.63 -87.73 259.35 -88.79 274.07 -87.38 288.79 -83.9 303.51 -79.33 318.23 -74.94 332.95 -71.97 347.67 -71.25 362.4 -72.98 377.12 -76.67 391.84 -81.3 406.56 -85.56 421.28 -88.26 436 -88.65 450.72 -86.61 465.44 -82.72 480.16 -78.06 494.88 -73.95 509.6 -71.53 524.32 -71.49 539.04 -73.82 553.76 -77.89 568.48 -82.54 583.21 -86.49 597.93 -88.61 612.65 -88.32 627.37 -85.7 642.09 -81.48 656.81 -76.84 671.53 -73.09 686.25 -71.27 700.97 -71.9 715.69 -74.8 730.41 -79.15 745.13 -83.74 759.85 -87.28 774.57 -88.78 789.3 -87.82 804.02 -84.67 818.74 -80.2 833.46 -75.68 848.18 -72.37 862.9 -71.2 857.28 -55.97 856.02 -40.75 859.34 -25.52 866.62 -10.3 876.46 4.92 886.98 20.14 896.16 35.37 902.25 50.59 904.07 65.82 901.28 81.04 894.42 96.27 884.79 111.49 874.25 126.72 864.8 141.94 858.27 157.17 855.9 172.39 858.14 187.62 864.56 202.84 873.94 218.07 884.49 233.29 894.17 248.52 901.13 263.74 904.05 278.97 902.36 294.19 896.39 309.42 887.28 324.64 876.77 339.87 866.88 355.09 859.5 370.32 856.05 385.54 857.18 400.77 862.68 415.99 871.49 431.22 881.94 446.44 892.01 461.67 899.78 476.89 903.76 492.12 903.19 507.34 898.18 522.57 889.69 537.79 879.34 553.02 869.11 568.24 860.97 583.47 856.48 598.69 856.48 613.92 860.99 629.14 869.14 644.37 879.37 659.59 889.72 674.82 898.2 690.04 903.2 705.27 903.76 720.49 899.76 735.72 891.98 750.94 881.91 766.17 871.46 781.39 862.66 796.62 857.17 811.84 856.05 827.07 859.52 842.29 866.91 857.52 876.81 872.74 884.23 894.03 865.88 891.36 850.61 879.45 835.34 867.68 820.07 859.37 804.81 856.84 789.54 860.79 774.27 870.13 759 882.23 743.73 893.7 728.46 901.34 713.2 902.99 697.93 898.2 682.66 888.31 667.39 876.09 652.12 864.96 636.85 858.05 621.59 857.28 606.32 862.88 591.05 873.27 575.78 885.55 560.51 896.27 545.25 902.43 529.98 902.3 514.71 895.93 499.44 885.09 484.17 872.82 468.9 862.56 453.64 857.19 438.37 858.21 423.1 865.33 407.83 876.56 392.56 888.75 377.29 898.49 362.03 903.05 346.76 901.15 331.49 893.32 316.22 881.75 300.95 869.7 285.68 860.53 270.42 856.81 255.15 859.59 239.88 868.09 224.61 879.92 209.34 891.77 194.07 900.33 178.81 903.18 163.54 899.54 148.27 890.42 133 878.38 117.73 866.8 102.46 858.91 87.2 856.92 71.93 861.41 56.66 871.1 41.39 883.28 26.12 894.55 10.86 901.73 -4.4 902.83 -19.67 897.52 -34.94 887.31 -50.21 875.05 -65.48 864.17 -80.74 857.73 -80.33 842.94 -79.85 828.16 -79.4 813.38 -79.06 798.59 -78.9 783.81 -78.95 769.02 -79.2 754.24 -79.61 739.45 -80.08 724.67 -80.54 709.89 -80.9 695.1 -81.08 680.32 -81.05 665.53 -80.83 650.75 -80.44 635.97 -79.97 621.18 -79.5 606.4 -79.13 591.61 -78.92 576.83 -78.92 562.05 -79.13 547.26 -79.5 532.48 -79.96 517.69 -80.44 502.91 -80.83 488.13 -81.05 473.34 -81.08 458.56 -80.9 443.77 -80.54 428.99 -80.08 414.21 -79.61 399.42 -79.2 384.64 -78.95 369.85 -78.9 355.07 -79.06 340.29 -79.4 325.5 -79.85 310.72 -80.33 295.93 -80.74 281.15 -81.02 266.37 -81.09 251.58 -80.96 236.8 -80.64 222.01 -80.2 207.23 -79.72 192.45 -79.29 177.66 -79 162.88 -78.9 148.09 -79 133.31 -79.3 118.53 -79.73 103.74 -80.21 88.96 -80.65 74.17 -80.97 59.39 -81.09 44.6 -81.01 29.82 -80.73 15.04 -80.31 0.25 -79.83 -14.52 -79.38 -29.31 -79.05 -44.09 -78.9 -58.87 -78.96 -73.66 -79.21 -88.44" fill="url(#uuunion-grad)"></path><path d="M-79.21 -88.44Q-78.96 -73.66 -78.9 -58.87 -79.05 -44.09 -79.38 -29.31 -79.83 -14.52 -80.31 0.25 -80.73 15.04 -81.01 29.82 -81.09 44.6 -80.97 59.39 -80.65 74.17 -80.21 88.96 -79.73 103.74 -79.3 118.53 -79 133.31 -78.9 148.09 -79 162.88 -79.29 177.66 -79.72 192.45 -80.2 207.23 -80.64 222.01 -80.96 236.8 -81.09 251.58 -81.02 266.37 -80.74 281.15 -80.33 295.93 -79.85 310.72 -79.4 325.5 -79.06 340.29 -78.9 355.07 -78.95 369.85 -79.2 384.64 -69.39 387.18 -59.58 391.33 -49.77 396.58 -39.96 402.26 -30.15 407.66 -20.34 412.08 -1.94 415.72 1.23 415.95 13.3 407.58 25.35 396.54 37.41 383.81 49.5 370.65 61.67 358.42 73.95 348.27 86.36 340.92 98.93 336.55 111.67 334.77 124.59 334.68 137.69 335.05 150.94 334.61 164.34 332.22 177.85 327.18 191.43 319.27 205.04 308.86 218.63 296.78 232.15 284.19 245.54 272.33 258.75 262.26 271.75 254.71 284.48 249.9 296.92 247.52 309.05 246.77 320.86 246.57 332.35 245.74 343.54 243.24 354.47 238.37 365.16 230.88 375.69 221.06 386.11 209.63 396.49 197.62 406.91 186.15 417.46 176.23 428.2 168.54 439.22 163.34 450.58 160.38 462.34 158.99 474.55 158.21 487.23 156.96 500.4 154.29 514.06 149.52 528.19 142.4 542.74 133.14 557.66 122.34 572.87 110.92 588.29 99.89 603.83 90.16 619.37 82.4 634.8 76.85 650.02 73.36 664.92 71.34 679.39 69.97 693.37 68.27 706.76 65.38 719.53 60.66 731.63 53.86 743.06 45.1 753.84 34.92 764 24.1 773.6 13.53 782.73 4.05 791.49 -3.73 800 -9.56 789.16 -26.81 781.14 -44.05 778 -61.3 780.56 -78.55 788.16 -95.8 798.82 -113.05 806.39 -138.99 787.76 -145.68 772.53 -142.11 757.3 -137.95 742.07 -134.36 726.84 -132.33 711.6 -132.42 696.37 -134.61 681.14 -138.28 665.91 -142.44 650.68 -145.91 635.45 -147.75 620.22 -147.44 604.99 -145.07 589.76 -141.3 574.53 -137.16 559.3 -133.81 544.07 -132.17 528.84 -132.7 513.61 -135.24 498.38 -139.1 483.15 -143.21 467.92 -146.43 452.69 -147.87 437.46 -147.12 422.23 -144.41 407 -140.47 391.77 -136.4 376.54 -133.33 361.31 -132.1 346.08 -133.06 330.85 -135.93 315.62 -139.93 300.39 -143.95 285.16 -146.87 269.92 -147.89 254.69 -146.73 239.46 -143.7 224.23 -139.64 209 -135.68 193.77 -132.92 178.54 -132.11 163.31 -133.49 148.08 -136.67 132.85 -140.76 117.62 -144.65 102.39 -147.24 87.16 -147.83 71.93 -146.25 56.7 -142.94 41.47 -138.81 26.24 -135.01 11.01 -132.59 -4.21 -132.22 -19.44 -134 -34.67 -137.44 -49.9 -141.58 -65.13 -145.29 -80.36 -147.53 -95.59 -147.69 -110.82 -145.71 -126.05 -142.16 -135.47 -126.32 -117.19 -114.24 -107.51 -108.93 -97.96 -102.97 -88.52 -96.17 -79.21 -88.44" fill="url(#uuunion-grad2)" filter="url(#uuunion-blur)"></path><path d="M784.19 384.7Q794 387.3 803.81 391.5 813.62 396.78 823.43 402.46 833.24 407.83 843.06 412.22 852.87 415.05 862.68 415.99 871.49 431.22 881.94 446.44 892.01 461.67 899.78 476.89 903.76 492.12 903.19 507.34 898.18 522.57 889.69 537.79 879.34 553.02 869.11 568.24 860.97 583.47 856.48 598.69 856.48 613.92 860.99 629.14 869.14 644.37 879.37 659.59 889.72 674.82 898.2 690.04 903.2 705.27 903.76 720.49 899.76 735.72 891.98 750.94 881.91 766.17 871.46 781.39 862.66 796.62 857.17 811.84 856.05 827.07 859.52 842.29 866.91 857.52 876.81 872.74 884.86 894.28 868.39 893.1 854.38 882.51 840.37 871.32 826.36 862.19 812.34 857.28 798.33 857.75 784.32 863.48 770.31 873.13 756.3 884.41 742.29 894.64 728.27 901.4 714.26 903.09 700.25 899.31 686.24 890.96 672.23 880.01 658.21 869.05 644.2 860.69 630.19 856.9 616.18 858.58 602.17 865.33 588.16 875.56 574.14 886.83 560.13 896.49 546.12 902.24 532.11 902.72 518.1 897.81 504.08 888.69 490.07 877.51 476.06 866.91 462.05 859.42 448.04 856.8 434.03 859.67 420.01 867.36 406 878.04 391.99 889.18 377.98 898.15 363.97 902.82 349.95 902.08 335.94 896.11 321.93 886.32 307.92 875.04 293.91 864.92 279.9 858.38 265.88 856.96 251.87 860.99 237.86 869.53 223.85 880.54 209.84 891.43 195.82 899.6 181.81 903.13 167.8 901.18 153.79 894.22 139.78 883.88 125.76 872.62 111.75 863.11 97.74 857.6 83.73 857.39 69.72 862.54 55.71 871.82 41.69 883.04 27.68 893.54 6.55 896.93 -0.84 882.88 -1.12 872.73 -1.4 862.58 -1.64 852.43 -1.82 842.28 -1.71 827.06 -0.99 822 11.2 813.5 23.47 801.18 35.84 786.23 48.33 770.38 60.96 755.52 73.74 743.31 86.67 734.9 99.75 730.68 112.95 730.2 126.26 732.32 139.64 735.38 153.05 737.54 166.46 737.18 179.81 733.17 193.05 725.11 206.16 713.38 219.07 699.08 231.76 683.82 244.2 669.36 256.37 657.3 268.26 648.74 279.88 644.11 291.23 643.05 302.35 644.51 313.27 646.98 324.05 648.73 334.74 648.21 345.41 644.33 356.12 636.65 366.96 625.49 377.98 611.85 389.27 597.18 400.87 583.15 412.84 571.26 425.22 562.59 438.04 557.59 451.3 555.97 465 556.79 479.12 558.66 493.62 559.97 508.44 559.26 523.51 555.47 538.75 548.14 554.06 537.53 569.36 524.52 584.53 510.46 599.48 496.87 614.11 485.19 628.32 476.46 642.05 471.12 655.23 468.96 667.81 469.16 679.77 470.42 691.11 471.28 701.84 470.34 712.01 466.6 721.68 459.59 730.94 449.5 739.88 437.11 748.62 423.65 757.29 410.53 766.02 399.1 779.56 387.51 784.19 384.7" fill="url(#uuunion-grad3)" filter="url(#uuunion-blur2)"></path></svg>