<svg xmlns="http://www.w3.org/2000/svg" version="1.1" xmlns:xlink="http://www.w3.org/1999/xlink" xmlns:svgjs="http://svgjs.dev/svgjs" viewBox="0 0 1422 800"><defs><filter id="uuunion-blur" x="-100%" y="-100%" width="400%" height="400%" color-interpolation-filters="sRGB">
        <feGaussianBlur in="SourceGraphic" stdDeviation="7.5 0" result="blur"></feGaussianBlur>
        <feDropShadow stdDeviation="12.307692307692308" in="blur" dx="10" dy="10" flood-color="hsl(342, 28%, 93%)" flood-opacity="0.25" x="0%" y="0%" width="100%" height="100%"></feDropShadow>
      </filter><filter id="uuunion-blur2" x="-100%" y="-100%" width="400%" height="400%" color-interpolation-filters="sRGB">
        <feGaussianBlur in="SourceGraphic" stdDeviation="7.5 0" result="blur"></feGaussianBlur>
        <feDropShadow stdDeviation="12.307692307692308" in="blur" dx="-10" dy="-10" flood-color="hsl(342, 28%, 93%)" flood-opacity="0.25" x="0%" y="0%" width="100%" height="100%"></feDropShadow>
      </filter><linearGradient gradientTransform="rotate(0, 0.5, 0.5)" x1="50%" y1="0%" x2="50%" y2="100%" id="uuunion-grad"><stop stop-color="hsl(217, 36%, 83%)" offset="10%"></stop><stop stop-color="hsl(342, 28%, 93%)" offset="90%"></stop></linearGradient><linearGradient gradientTransform="rotate(135, 0.5, 0.5)" x1="50%" y1="0%" x2="50%" y2="100%" id="uuunion-grad2"><stop stop-color="hsl(217, 36%, 83%)" offset="25%"></stop><stop stop-color="hsl(342, 28%, 93%)" offset="100%"></stop></linearGradient><linearGradient gradientTransform="rotate(333, 0.5, 0.5)" x1="50%" y1="0%" x2="50%" y2="100%" id="uuunion-grad3"><stop stop-color="hsl(217, 36%, 83%)" offset="0%"></stop><stop stop-color="hsl(342, 28%, 93%)" offset="75%"></stop></linearGradient></defs><path d="M-133.14 -88.65Q-120.1 -87.89 -107.06 -86.52 -94.02 -84.66 -80.98 -82.43 -67.94 -80.02 -54.9 -77.61 -41.86 -75.38 -28.81 -73.5 -15.77 -72.12 -2.73 -71.35 10.3 -71.23 23.34 -71.79 36.38 -72.98 49.42 -74.71 62.46 -76.84 75.5 -79.21 88.54 -81.64 101.58 -83.95 114.62 -85.95 127.66 -87.5 140.7 -88.47 153.74 -88.79 166.78 -88.44 179.83 -87.44 192.87 -85.87 205.91 -83.85 218.95 -81.54 231.99 -79.1 245.03 -76.73 258.07 -74.62 271.11 -72.91 284.15 -71.75 297.19 -71.22 310.23 -71.37 323.27 -72.17 336.31 -73.57 349.35 -75.47 362.39 -77.71 375.43 -80.13 388.47 -82.54 401.52 -84.75 414.56 -86.6 427.6 -87.94 440.64 -88.67 453.68 -88.74 466.72 -88.14 479.76 -86.91 492.8 -85.16 505.84 -83 518.88 -80.62 531.92 -78.19 544.96 -75.9 558 -73.92 571.04 -72.41 584.08 -71.48 597.13 -71.2 610.17 -71.59 623.21 -72.63 636.25 -74.24 649.29 -76.28 662.33 -78.61 675.37 -81.05 688.41 -83.4 701.45 -85.5 714.49 -87.17 727.53 -88.29 740.57 -88.78 753.61 -88.59 766.65 -87.75 779.69 -86.31 792.73 -84.38 805.78 -82.12 818.82 -79.7 831.86 -77.3 844.9 -75.11 857.94 -73.29 870.98 -71.98 884.02 -71.29 897.06 -71.27 910.1 -71.91 923.14 -73.18 936.18 -74.96 949.22 -77.14 962.26 -79.53 975.3 -81.95 988.35 -84.23 1001.39 -86.18 1014.43 -87.66 1027.47 -88.55 1040.51 -88.79 1053.55 -88.35 1066.59 -87.27 1079.63 -85.63 1092.67 -83.56 1105.71 -81.22 1118.75 -78.78 1131.79 -76.44 1144.83 -74.37 1157.87 -72.73 1170.91 -71.65 1183.96 -71.2 1197 -71.43 1210.04 -72.32 1223.08 -73.8 1236.12 -75.75 1249.16 -78.02 1262.2 -80.45 1275.24 -82.84 1288.28 -85.01 1301.32 -86.8 1314.36 -88.07 1327.4 -88.72 1340.44 -88.7 1353.48 -88.01 1366.53 -86.71 1379.57 -84.89 1392.61 -82.7 1405.65 -80.3 1418.69 -77.88 1431.73 -75.62 1444.77 -73.69 1457.81 -72.25 1470.85 -71.4 1483.89 -71.21 1496.93 -71.69 1509.97 -72.81 1526.95 -67.98 1531.11 -46.4 1536.7 -31.31 1546.75 -16.22 1559.63 -1.14 1573.25 13.94 1585.39 29.03 1594.11 44.12 1597.97 59.2 1596.36 74.29 1589.53 89.38 1578.6 104.47 1565.33 119.55 1551.88 134.64 1540.42 149.73 1532.82 164.81 1530.3 179.9 1533.28 194.99 1541.27 210.08 1552.98 225.16 1566.5 240.25 1579.65 255.34 1590.3 270.43 1596.71 285.51 1597.85 300.6 1593.54 315.69 1584.46 330.78 1572.11 345.86 1558.47 360.95 1545.75 376.04 1536.03 391.13 1530.88 406.21 1531.12 421.3 1536.73 436.39 1546.79 451.48 1559.67 466.56 1573.28 481.65 1585.43 496.74 1594.13 511.83 1597.97 526.91 1596.35 542 1589.51 557.09 1578.56 572.18 1565.29 587.26 1551.84 602.35 1540.39 617.44 1532.8 632.53 1530.3 647.61 1533.3 662.7 1541.3 677.79 1553.02 692.88 1566.54 707.96 1579.69 723.05 1590.32 738.14 1596.72 753.23 1597.85 768.31 1593.52 783.4 1584.43 798.49 1572.07 813.58 1558.43 828.66 1545.72 843.75 1536.01 858.84 1530.87 873.93 1531.13 889.01 1518.14 894.53 1505.15 898.93 1492.16 901.88 1479.17 903.15 1466.18 902.65 1453.19 900.41 1440.2 896.61 1427.21 891.53 1414.22 885.57 1401.23 879.18 1388.24 872.86 1375.25 867.08 1362.26 862.29 1349.27 858.86 1336.28 857.05 1323.29 856.99 1310.3 858.7 1297.31 862.04 1284.32 866.76 1271.33 872.49 1258.34 878.8 1245.35 885.2 1232.36 891.2 1219.37 896.34 1206.38 900.23 1193.39 902.56 1180.4 903.17 1167.41 902 1154.42 899.15 1141.43 894.83 1128.44 889.37 1115.45 883.19 1102.46 876.77 1089.47 870.59 1076.48 865.14 1063.49 860.82 1050.5 857.97 1037.51 856.82 1024.52 857.43 1011.53 859.78 998.55 863.68 985.56 868.82 972.57 874.83 959.58 881.23 946.59 887.53 933.6 893.26 920.61 897.97 907.62 901.3 894.63 903 881.64 902.94 868.65 901.12 855.66 897.68 842.67 892.88 829.68 887.1 816.69 880.77 803.7 874.38 790.71 868.43 777.72 863.36 764.73 859.56 751.74 857.33 738.75 856.84 725.76 858.12 712.77 861.08 699.78 865.49 686.79 871.01 673.8 877.22 660.81 883.64 647.82 889.78 634.83 895.18 621.84 899.4 608.85 902.14 595.86 903.19 582.87 902.45 569.88 900 556.89 896.01 543.9 890.79 530.91 884.75 517.92 878.34 504.93 872.06 491.94 866.39 478.95 861.76 465.96 858.52 452.97 856.94 439.98 857.12 426.99 859.05 414 862.59 401.01 867.46 388.02 873.29 375.03 879.64 362.04 886.01 349.05 891.93 336.07 896.92 323.08 900.63 310.09 902.74 297.1 903.12 284.11 901.72 271.12 898.66 258.13 894.17 245.14 888.59 232.15 882.35 219.16 875.93 206.17 869.83 193.18 864.5 180.19 860.36 167.2 857.72 154.21 856.8 141.22 857.64 128.23 860.21 115.24 864.29 102.25 869.57 89.26 875.65 76.27 882.07 63.28 888.32 50.29 893.94 37.3 898.49 24.31 901.62 11.32 903.1 -1.66 902.8 -14.65 900.76 -27.64 897.12 -40.63 892.17 -53.62 886.29 -66.61 879.93 -79.6 873.57 -92.59 867.7 -105.58 862.78 -118.57 859.18 -131.56 857.17 -131.47 842.39 -133.12 827.61 -136.25 812.83 -140.33 798.05 -144.72 783.27 -148.69 768.5 -151.61 753.72 -153 738.94 -152.64 724.16 -150.58 709.38 -147.17 694.6 -142.94 679.82 -138.59 665.05 -134.83 650.27 -132.25 635.49 -131.29 620.71 -132.09 605.93 -134.53 591.15 -138.21 576.37 -142.54 561.59 -146.8 546.82 -150.32 532.04 -152.52 517.26 -153.04 502.48 -151.81 487.7 -149.01 472.92 -145.11 458.14 -140.73 443.37 -136.59 428.59 -133.36 413.81 -131.55 399.03 -131.47 384.25 -133.13 369.47 -136.26 354.69 -140.34 339.92 -144.73 325.14 -148.7 310.36 -151.62 295.58 -153 280.8 -152.64 266.02 -150.58 251.24 -147.15 236.47 -142.93 221.69 -138.58 206.91 -134.82 192.13 -132.25 177.35 -131.29 162.57 -132.1 147.79 -134.54 133.02 -138.23 118.24 -142.55 103.46 -146.82 88.68 -150.33 73.9 -152.52 59.12 -153.04 44.34 -151.8 29.56 -149 14.79 -145.09 0.01 -140.72 -14.76 -136.58 -29.54 -133.35 -44.32 -131.55 -59.1 -131.48 -73.88 -133.14 -88.65" fill="url(#uuunion-grad)"></path><path d="M-133.15 -88.65Q-131.49 -73.88 -131.56 -59.1 -133.36 -44.32 -136.59 -29.54 -140.73 -14.76 -145.1 0.01 -149.01 14.79 -151.81 29.56 -153.05 44.34 -152.53 59.12 -150.34 73.9 -146.83 88.68 -142.56 103.46 -138.24 118.24 -134.55 133.01 -132.11 147.79 -131.3 162.57 -132.26 177.35 -134.83 192.13 -138.59 206.91 -142.94 221.69 -147.16 236.46 -150.59 251.24 -152.65 266.02 -153.01 280.8 -151.63 295.58 -148.71 310.36 -144.74 325.14 -140.35 339.92 -136.27 354.69 -133.14 369.47 -131.48 384.25 -122.83 385.04 -114.17 386.35 -105.51 388.12 -96.85 390.3 -88.19 392.81 -79.53 395.56 -70.88 398.47 -62.22 401.43 -53.56 404.34 -44.9 407.1 -36.24 409.61 -27.59 411.8 -10.27 414.66 7.04 416 14.07 414.11 30.3 407.68 40.91 402.39 51.51 396.49 62.1 390.13 72.68 383.48 83.26 376.73 93.85 370.09 104.46 363.72 115.09 357.8 125.74 352.48 136.43 347.87 147.15 344.05 157.91 341.04 168.72 338.84 179.57 337.39 190.47 336.6 201.42 336.34 212.42 336.45 223.48 336.76 234.58 337.1 245.73 337.26 256.92 337.09 268.16 336.42 279.44 335.13 290.76 333.13 302.1 330.35 313.48 326.8 324.87 322.48 336.28 317.48 347.7 311.9 359.12 305.86 370.54 299.54 381.95 293.09 393.35 286.7 404.72 280.54 416.07 274.76 427.38 269.52 438.65 264.91 449.88 261.01 461.05 257.85 472.18 255.44 483.24 253.73 494.25 252.65 505.19 252.07 516.06 251.86 526.87 251.86 537.62 251.91 548.3 251.84 558.91 251.48 569.46 250.69 579.95 249.35 590.38 247.38 600.76 244.7 611.1 241.31 621.39 237.22 631.65 232.49 641.88 227.21 652.09 221.49 662.29 215.48 672.48 209.34 682.68 203.21 692.89 197.27 703.12 191.66 713.39 186.51 723.69 181.92 734.05 177.97 744.46 174.7 754.95 172.1 765.51 170.16 776.15 168.79 786.88 167.9 797.72 167.37 808.65 167.07 819.7 166.83 830.86 166.5 842.13 165.94 853.53 165.01 865.05 163.61 876.69 161.63 888.45 159.03 900.33 155.78 912.32 151.89 924.43 147.41 936.65 142.42 948.97 137.01 961.39 131.32 973.9 125.47 986.48 119.63 999.13 113.92 1011.84 108.49 1024.6 103.46 1037.39 98.92 1050.21 94.94 1063.03 91.57 1075.85 88.82 1088.65 86.65 1101.41 85.02 1114.13 83.84 1126.79 83 1139.38 82.38 1151.87 81.85 1164.27 81.26 1176.55 80.49 1188.7 79.4 1200.71 77.9 1212.58 75.9 1224.29 73.34 1235.83 70.21 1247.19 66.5 1258.38 62.25 1269.39 57.53 1280.2 52.42 1290.82 47.04 1301.26 41.5 1311.5 35.94 1321.56 30.48 1331.43 25.25 1341.13 20.35 1350.65 15.88 1360.01 11.91 1369.22 8.47 1378.29 5.58 1387.23 3.22 1396.06 1.34 1404.78 -0.11 1413.42 -1.25 1422 -2.18 1408.25 -19.62 1397.53 -37.06 1392.18 -54.51 1393.37 -71.95 1400.85 -89.39 1412.97 -106.83 1427.07 -124.28 1440.06 -141.72 1427.56 -143.62 1415.05 -145.28 1402.54 -146.6 1390.04 -147.48 1377.53 -147.88 1365.03 -147.76 1352.52 -147.13 1340.01 -146.03 1327.51 -144.54 1315 -142.75 1302.49 -140.78 1289.99 -138.76 1277.48 -136.82 1264.98 -135.09 1252.47 -133.68 1239.96 -132.68 1227.46 -132.16 1214.95 -132.16 1202.45 -132.66 1189.94 -133.65 1177.43 -135.05 1164.93 -136.77 1152.42 -138.71 1139.92 -140.73 1127.41 -142.7 1114.9 -144.5 1102.4 -146 1089.89 -147.1 1077.39 -147.75 1064.88 -147.88 1052.37 -147.5 1039.87 -146.63 1027.36 -145.32 1014.85 -143.67 1002.35 -141.77 989.84 -139.76 977.34 -137.76 964.83 -135.91 952.32 -134.33 939.82 -133.12 927.31 -132.36 914.81 -132.1 902.3 -132.35 889.79 -133.1 877.29 -134.31 864.78 -135.89 852.28 -137.73 839.77 -139.73 827.26 -141.74 814.76 -143.64 802.25 -145.3 789.75 -146.61 777.24 -147.49 764.73 -147.88 752.23 -147.75 739.72 -147.12 727.21 -146.02 714.71 -144.52 702.2 -142.73 689.7 -140.76 677.19 -138.74 664.68 -136.8 652.18 -135.07 639.67 -133.67 627.17 -132.67 614.66 -132.16 602.15 -132.16 589.65 -132.67 577.14 -133.66 564.64 -135.07 552.13 -136.79 539.62 -138.73 527.12 -140.75 514.61 -142.72 502.11 -144.51 489.6 -146.01 477.09 -147.11 464.59 -147.75 452.08 -147.88 439.57 -147.49 427.07 -146.62 414.56 -145.31 402.06 -143.65 389.55 -141.75 377.04 -139.74 364.54 -137.74 352.03 -135.9 339.53 -134.32 327.02 -133.11 314.51 -132.35 302.01 -132.1 289.5 -132.35 277 -133.11 264.49 -134.32 251.98 -135.91 239.48 -137.75 226.97 -139.75 214.47 -141.76 201.96 -143.66 189.45 -145.31 176.95 -146.62 164.44 -147.5 151.94 -147.88 139.43 -147.75 126.92 -147.11 114.42 -146 101.91 -144.51 89.4 -142.71 76.9 -140.74 64.39 -138.72 51.89 -136.78 39.38 -135.06 26.87 -133.66 14.37 -132.67 1.86 -132.16 -10.63 -132.16 -23.14 -132.68 -35.65 -133.67 -48.15 -135.08 -60.66 -136.81 -73.16 -138.75 -85.67 -140.77 -98.18 -142.74 -110.68 -144.53 -123.19 -146.02 -135.69 -147.12 -150.93 -140.44 -146.24 -118.33 -139.19 -103.51 -133.15 -88.65" fill="url(#uuunion-grad2)" filter="url(#uuunion-blur)"></path><path d="M1443.13 316.76Q1452.18 319.48 1461.23 322.21 1470.28 324.87 1479.33 327.36 1488.38 329.59 1497.43 331.5 1506.48 333.02 1515.53 334.09 1524.58 334.68 1533.63 334.77 1542.69 334.35 1551.74 333.44 1560.79 332.07 1569.84 330.29 1576.6 335.75 1558.47 360.95 1543.88 378.55 1533.75 396.16 1530.3 413.76 1534.3 431.36 1544.86 448.96 1559.67 466.56 1575.47 484.17 1588.79 501.77 1596.72 519.37 1597.5 536.97 1590.97 554.57 1578.56 572.18 1563 589.78 1547.7 607.38 1536.02 624.98 1530.53 642.58 1532.43 660.19 1541.3 677.79 1555.2 695.39 1571.08 712.99 1585.44 730.59 1595.14 748.2 1598.04 765.8 1593.52 783.4 1582.55 801 1567.55 818.6 1551.82 836.21 1538.8 853.81 1531.36 871.41 1531.13 889.01 1519.21 894.11 1507.3 898.29 1495.38 901.3 1483.47 902.93 1471.55 903.07 1459.64 901.73 1447.72 898.99 1435.81 895.02 1423.89 890.08 1411.98 884.49 1400.06 878.61 1388.15 872.81 1376.23 867.49 1364.32 862.97 1352.4 859.55 1340.49 857.44 1328.57 856.8 1316.66 857.65 1304.74 859.94 1292.83 863.53 1280.91 868.18 1269 873.6 1257.08 879.42 1245.17 885.29 1233.25 890.81 1221.34 895.63 1209.42 899.45 1197.51 902 1185.59 903.14 1173.68 902.79 1161.76 900.96 1149.85 897.78 1137.93 893.45 1126.02 888.25 1114.1 882.52 1102.19 876.63 1090.27 870.95 1078.36 865.86 1066.44 861.68 1054.53 858.68 1042.61 857.06 1030.7 856.92 1018.78 858.27 1006.87 861.02 994.95 864.99 983.04 869.93 971.12 875.53 959.21 881.41 947.29 887.2 935.38 892.52 923.46 897.04 911.55 900.46 899.63 902.55 887.72 903.19 875.8 902.33 863.89 900.03 851.97 896.44 840.06 891.79 828.14 886.37 816.23 880.54 804.31 874.68 792.4 869.16 780.48 864.34 768.57 860.53 756.65 857.98 744.74 856.85 732.82 857.21 720.91 859.04 708.99 862.23 697.08 866.56 685.16 871.76 673.25 877.49 661.33 883.38 649.42 889.06 637.5 894.15 625.59 898.32 613.67 901.32 601.76 902.93 589.84 903.07 577.93 901.72 566.01 898.96 554.1 894.98 542.18 890.03 530.27 884.44 518.35 878.56 506.44 872.77 494.52 867.45 482.61 862.93 470.69 859.52 458.78 857.43 446.86 856.8 434.95 857.66 423.03 859.97 411.12 863.57 399.2 868.23 387.29 873.64 375.37 879.47 363.46 885.33 351.54 890.85 339.63 895.67 327.71 899.47 315.8 902.02 303.88 903.15 291.97 902.78 280.05 900.94 268.14 897.75 256.22 893.41 244.31 888.21 232.39 882.47 220.48 876.58 208.56 870.91 196.65 865.82 184.73 861.65 172.82 858.66 160.9 857.05 148.99 856.92 137.07 858.28 125.16 861.04 113.24 865.03 101.33 869.98 89.41 875.58 77.5 881.46 65.58 887.25 53.67 892.57 41.75 897.07 29.84 900.48 12.05 897.8 5.82 882.89 4.97 872.74 3.69 862.59 2.07 852.44 0.22 842.29 -2.4 827.07 -2.58 822 8.99 814.91 20.77 806.42 32.75 796.67 44.93 785.91 57.32 774.46 69.89 762.67 82.63 750.92 95.51 739.57 108.5 728.97 121.57 719.4 134.68 711.08 147.81 704.12 160.92 698.58 173.98 694.38 186.97 691.38 199.86 689.35 212.65 688 225.33 686.99 237.89 685.96 250.34 684.57 262.69 682.49 274.95 679.45 287.15 675.24 299.31 669.73 311.46 662.9 323.63 654.78 335.84 645.52 348.12 635.32 360.5 624.48 372.99 613.29 385.61 602.1 398.37 591.23 411.28 581 424.32 571.66 437.49 563.42 450.77 556.39 464.14 550.62 477.56 546.07 491.01 542.59 504.45 540.01 517.83 538.06 531.12 536.45 544.27 534.86 557.26 532.97 570.04 530.51 582.6 527.22 594.91 522.91 606.96 517.46 618.75 510.82 630.28 503.05 641.57 494.25 652.65 484.6 663.54 474.35 674.29 463.76 684.96 453.13 695.59 442.77 706.24 432.93 716.97 423.86 727.86 415.74 738.95 408.68 750.3 402.72 761.97 397.83 773.99 393.92 786.39 390.8 795.96 392.38 805.54 394.21 815.14 396.17 824.77 398.12 834.41 399.94 844.08 401.5 853.77 402.69 863.48 403.4 873.22 403.56 882.98 403.11 892.77 402.02 902.58 400.29 912.42 397.94 922.28 395.01 932.17 391.57 942.09 387.72 952.03 383.55 962 379.2 972 374.79 982.02 370.44 992.07 366.29 1002.15 362.44 1012.25 359.02 1022.39 356.1 1032.55 353.75 1042.73 352.01 1052.94 350.91 1063.18 350.43 1073.45 350.55 1083.74 351.2 1094.05 352.3 1104.39 353.77 1114.75 355.48 1125.14 357.32 1135.55 359.16 1145.98 360.87 1156.43 362.34 1166.91 363.45 1177.4 364.1 1187.91 364.23 1198.44 363.77 1208.99 362.7 1219.55 361 1230.13 358.71 1240.73 355.85 1251.33 352.51 1261.95 348.77 1272.58 344.72 1283.22 340.49 1293.87 336.19 1304.53 331.95 1315.19 327.9 1325.86 324.14 1336.53 320.79 1347.2 317.91 1357.87 315.58 1368.55 313.85 1379.22 312.72 1389.88 312.2 1400.55 312.24 1411.2 312.81 1421.85 313.81 1432.5 315.17 1443.13 316.76" fill="url(#uuunion-grad3)" filter="url(#uuunion-blur2)"></path></svg>