<svg xmlns="http://www.w3.org/2000/svg" version="1.1" xmlns:xlink="http://www.w3.org/1999/xlink" xmlns:svgjs="http://svgjs.dev/svgjs" viewBox="0 0 800 800"><defs><linearGradient x1="50%" y1="0%" x2="50%" y2="100%" id="wwwhirl-grad"><stop stop-color="hsla(0, 0%, 100%, 1.00)" stop-opacity="1" offset="45%"></stop><stop stop-color="hsla(342, 25%, 87%, 1.00)" stop-opacity="1" offset="100%"></stop></linearGradient></defs><g stroke-width="2" stroke="url(#wwwhirl-grad)" fill="none" stroke-linecap="round"><path d="M37.00000251770027 416.8684184452614C50.75000289917 400.16216798177567 75.50000358581553 331.9346660889228 103.000004348755 336.67841622052987C130.50000511169446 341.4221663521369 141.5000054168703 439.2259190655312 169.00000617980973 439.63841907697525C196.5000069427492 440.05091908841933 207.50000724792503 333.7084161381324 235.00000801086446 338.6584162754615C262.500008773804 343.60841641279063 273.5000090789798 458.6546696045479 301.0000098419193 463.398419736155C328.50001060485874 468.14216986776205 339.5000109100345 365.14091701017225 367.000011672974 361.4284169071754C394.50001243591345 357.71591680417856 405.5000127410893 448.6721693276009 433.0000135040287 445.5784192417702C460.5000142669682 442.4846691559395 471.50001457214404 350.703416609629 499.0000153350834 346.5784164951881C526.5000160980228 342.45341638074717 537.5000164031987 425.15966867528766 565.0000171661382 425.7784186924538C592.5000179290777 426.3971687096199 603.5000182342535 345.6296664688667 631.000018997193 349.54841657758556C658.5000197601325 353.46716668630444 669.5000200653083 440.6696691055855 697.0000208282477 444.5884192143044C724.5000215911871 448.5071693230233 749.2500222778326 384.2396675400337 763.0000226593024 368.3584170994361 " transform="rotate(99, 400, 400)"></path><path d="M48.00000244140632 416.3572462737652C61.33333614464971 400.15724582432455 85.3333368104878 333.99724398883086 112.00000421697456 338.5972441164498C138.6666716234613 343.19724424406877 149.33333858605602 438.03724687523896 176.00000599254278 438.43724688633625C202.66667339902952 438.8372468974336 213.33334036162427 335.71724403654923 240.000007768111 340.5172441697169C266.6666751745978 345.3172443028845 277.3333421371925 456.8772473979219 304.00000954367925 461.47724752554086C330.66667695016605 466.0772476531598 341.3333439127607 366.19724488216366 368.00001131924745 362.59724478228793C394.66667872573424 358.9972446824122 405.33334568832896 447.19724712936716 432.00001309481576 444.1972470461374C458.66668050130244 441.1972469629077 469.3333474638972 352.1972444937581 496.0000148703839 348.1972443827851C522.6666822768707 344.19724427181205 533.3333492394653 424.397246496821 560.0000166459522 424.99724651346696C586.666684052439 425.5972465301129 597.3333510150337 347.2772443572613 624.0000184215204 351.07724446268566C650.6666858280073 354.87724456811 661.3333527906019 439.43724691407954 688.0000201970887 443.2372470195039C714.6666876035754 447.0372471249283 738.6666882694134 384.7172453959687 752.0000219726569 369.3172449687226 " transform="rotate(96, 400, 400)"></path><path d="M59.00000236511238 415.8460931757554C71.9166693901294 400.15234274035976 95.16667003516005 336.0598409622253 121.00000408519412 340.51609108585615C146.83333813522813 344.972341209487 157.1666717552418 436.84859375843314 183.0000058052758 437.23609376918364C208.83333985530987 437.62359377993414 219.1666734753235 337.72609100845244 245.00000752535757 342.37609113745856C270.8333415753916 347.02609126646473 281.1666751954052 455.0998442647822 307.0000092454393 459.55609438841304C332.83334329547336 464.0123445120439 343.16667691548696 367.25359182764134 369.00001096552097 363.7660917308868C394.83334501555504 360.27859163413217 405.1666786355687 445.7223440046198 431.0000126856027 442.816093923991C456.8333467356368 439.9098438433622 467.16668035565044 353.6910914513735 493.0000144056845 349.8160913438684C518.8333484557185 345.94109123636326 529.1666820757321 423.6348433918407 555.0000161257661 424.21609340796647C580.8333501758003 424.7973434240922 591.1666837958139 348.9248413191422 617.000017845848 352.6060914212721C642.8333518958821 356.2873415234019 653.1666855158957 438.2048437960599 679.0000195659296 441.88609389818976C704.8333536159636 445.5673440003196 728.0833542609943 385.19484232539 741.0000212860114 370.27609191149537 " transform="rotate(93, 400, 400)"></path><path d="M70.00000228881842 415.3349210042593C82.50000263560909 400.14742058290864 105.00000325983231 338.1224188621333 130.00000395341365 342.4349189817761C155.00000464699497 346.74741910141887 165.00000492442751 435.65992156814093 190.00000561800886 436.03492157854464C215.0000063115902 436.40992158894835 225.00000658902275 339.7349189068693 250.00000728260406 344.23491903171396C275.00000797618543 348.7349191565586 285.000008253618 453.3224220581561 310.0000089471993 457.6349221777989C335.00000964078066 461.9474222974417 345.00000991821315 368.30991969963276 370.0000106117945 364.9349196059993C395.00001130537584 361.5599195123658 405.0000115828084 444.2474218063861 430.0000122763897 441.4349217283582C455.000012969971 438.6224216503303 465.0000132474036 355.18491933550257 490.00001394098496 351.43491923146536C515.0000146345662 347.6849191274282 525.0000149119987 422.8724212133741 550.0000156055801 423.43492122897965C575.0000162991615 423.9974212445852 585.000016576594 350.5724192075368 610.0000172701755 354.1349193063721C635.0000179637568 357.6974194052075 645.0000182411893 436.9724216045539 670.0000189347705 440.5349217033893C695.0000196283519 444.09742180222463 717.5000202525752 385.67242018132504 730.0000205993658 371.2349197807818 " transform="rotate(90, 400, 400)"></path><path d="M81.00000221252448 414.82376027685496C93.08333588108879 400.14250986954926 114.83333648450457 340.18500820613315 139.0000038216332 344.35375832178784C163.1666711587618 348.5225084374425 172.83333809361326 434.4712608219405 197.0000054307419 434.83376083199744C221.16667276787052 435.19626084205436 230.833339702722 341.74375824937795 255.00000703985063 346.0937583700611C279.16667437697924 350.44375849074424 288.83334131183074 451.54501129562186 313.00000864895935 455.71376141127655C337.16667598608797 459.88251152693124 346.8333429209394 369.36625901571597 371.000010258068 366.10375892520364C395.16667759519663 362.84125883469125 404.8333445300481 442.7725110522442 429.00001186717674 440.0537609768172C453.16667920430535 437.33501090139026 462.8333461391569 356.67875866372344 487.00001347628546 353.05375856315413C511.1666808134141 349.4287584625849 520.8333477482655 422.11001047899924 545.0000150853941 422.6537604940846C569.1666824225229 423.19751050917 578.8333493573742 352.22000854002323 603.000016694503 355.663758635564C627.1666840316316 359.1075087311049 636.8333509664831 435.74001085713974 661.0000183036116 439.1837609526806C685.1666856407402 442.62751104822144 706.9166862441559 386.1500094813518 719.0000199127203 372.19375909416004 " transform="rotate(87, 400, 400)"></path><path d="M92.00000213623053 414.31259192005604C103.6666691265685 400.13759152679546 124.66666970917683 342.2475899207385 148.00000368985275 346.2725900324051C171.33333767052864 350.29759014407165 180.666671262799 433.2825924463456 204.00000524347493 433.6325924560557C227.33333922415085 433.98259246576583 236.66667281642125 343.7525899624921 260.00000679709717 347.95259007901376C283.33334077777306 352.1525901955354 292.66667437004344 449.7675929036931 316.0000083507193 453.7925930153597C339.3333423313953 457.8175931270263 348.66667592366565 370.42259070240465 372.00000990434154 367.2725906150134C395.3333438850174 364.12259052762215 404.6666774772878 441.29759266870775 428.00001145796375 438.6725925958817C451.3333454386397 436.0475925230557 460.6666790309101 358.1725903625498 484.000013011586 354.67259026544843C507.33334699226185 351.172590168347 516.6666805845323 421.3475921152299 540.0000145652082 421.87259212979507C563.3333485458841 422.39759214436026 572.6666821381544 353.8675902431151 596.0000161188304 357.1925903353614C619.3333500995063 360.51759042760773 628.6666836917767 434.507592480331 652.0000176724526 437.83259257257737C675.3333516531285 441.1575926648237 696.3333522357368 386.62759115198406 708.0000192260748 373.15259077814375 " transform="rotate(84, 400, 400)"></path><path d="M103.00000205993659 413.80142737795444C114.25000237204819 400.1326769987388 134.5000029338491 344.3101754500411 157.00000355807228 348.1914255577196C179.50000418229547 352.0726756653981 188.5000044319848 432.0939278854479 211.00000505620795 432.43142789481124C233.50000568043117 432.7689279041746 242.50000593012047 345.76142549030345 265.0000065543437 349.81142560266363C287.5000071785669 353.8614257150238 296.5000074282562 447.9901783264616 319.0000080524794 451.8714284341401C341.5000086767026 455.7526785418186 350.50000892639184 371.4789262037906 373.00000955061506 368.44142611952043C395.5000101748383 365.4039260352503 404.5000104245276 439.8226780998686 427.00001104875076 437.2914280296435C449.500011672974 434.76017795941834 458.5000119226633 359.6664258760734 481.00001254688647 356.29142578243994C503.50001317110963 352.91642568880644 512.5000134207988 420.58517756615777 535.0000140450221 421.0914275802028C557.5000146692455 421.5976775942478 566.5000149189347 355.51517576090424 589.0000155431579 358.721425849856C611.5000161673811 361.92767593880785 620.5000164170704 433.27517791821964 643.0000170412935 436.4814280071714C665.5000176655168 439.68767809612325 685.7500182273176 387.1051766373136 697.0000185394292 374.1114262768247 " transform="rotate(81, 400, 400)"></path><path d="M114.00000198364263 413.29026283585284C124.83333561752788 400.1277624706822 144.33333615852135 346.37276097934364 166.0000034262918 350.11026108303406C187.6666706940623 353.8477611867245 196.3333376011705 430.9052633245503 218.000004868941 431.23026333356677C239.6666721367115 431.5552633425834 248.3333390438197 347.77026101811487 270.0000063115902 351.67026112631356C291.6666735793607 355.57026123451226 300.33334048646896 446.21276374923013 322.0000077542394 449.95026385292056C343.6666750220099 453.6877639566109 352.3333419291181 372.53526170517654 374.0000091968886 369.61026162402754C395.6666764646591 366.6852615428785 404.3333433717673 438.3477635310294 426.0000106395378 435.9102634634053C447.66667790730827 433.47276339578104 456.3333448144165 361.160261389597 478.00001208218697 357.91026129943145C499.66667934995746 354.66026120926585 508.33334625706556 419.82276301708566 530.0000135248362 420.3102630306105C551.6666807926067 420.7977630441353 560.3333476997147 357.1627612786934 582.0000149674854 360.25026136435065C603.6666822352558 363.337761450008 612.3333491423641 432.0427633561082 634.0000164101345 435.13026344176546C655.666683677905 438.2177635274228 675.1666842188985 387.58276212264315 686.0000178527837 375.0702617755057 " transform="rotate(78, 400, 400)"></path><path d="M125.00000190734869 412.7790982937512C135.41666886300757 400.12284794262564 154.1666693831936 348.43534650864626 175.00000329451137 352.02909660834854C195.83333720582914 355.6228467080509 204.16667077035626 429.7165987636526 225.00000468167406 430.02909877232236C245.83333859299182 430.3415987809921 254.16667215751897 349.7790965459262 275.00000606883674 353.52909664996344C295.8333399801545 357.27909675400065 304.16667354468166 444.4353491719986 325.0000074559994 448.02909927170094C345.8333413673172 451.6228493714033 354.16667493184434 373.5915972065625 375.00000884316205 370.77909712853454C395.8333427544799 367.96659705050666 404.166676319007 436.87284896219023 425.0000102303248 434.529098897167C445.83334414164256 432.18534883214375 454.1666777061697 362.6540969031206 475.0000116174875 359.52909681642296C495.83334552880524 356.4040967297253 504.1666790933323 419.06034846801356 525.0000130046501 419.5290984810182C545.8333469159679 419.99784849402283 554.166680480495 358.8103467964825 575.0000143918128 361.7790968788453C595.8333483031306 364.7478469612081 604.1666818676579 430.81034879399675 625.0000157789755 433.77909887635957C645.8333496902933 436.74784895872233 664.5833502104794 388.0603476079727 675.0000171661382 376.02909727418665 " transform="rotate(75, 400, 400)"></path><path d="M136.00000183105476 412.2679337516496C146.00000210848728 400.11793341456905 164.00000260786584 350.49793203794883 184.00000316273093 353.9479321336631C204.00000371759597 357.39793222937726 212.000003939542 428.5279342027549 232.00000449440708 428.8279342110779C252.00000504927215 429.12793421940086 260.0000052712182 351.78793207373764 280.0000058260833 355.38793217361336C300.0000063809483 358.98793227348904 308.00000660289436 442.6579345947671 328.00000715775946 446.10793469048133C348.00000771262455 449.5579347861956 356.00000793457053 374.6479327079484 376.0000084894356 371.9479326330416C396.00000904430067 369.24793255813483 404.0000092662467 435.3979343933511 424.0000098211118 433.1479343309287C444.0000103759769 430.89793426850645 452.0000105979229 364.14793241664427 472.000011152788 361.1479323334145C492.000011707653 358.14793225018474 500.00001192959905 418.29793391894145 520.0000124844642 418.7479339314259C540.0000130393292 419.19793394391036 548.0000132612753 360.45793231427166 568.0000138161404 363.3079323933399C588.0000143710055 366.15793247240816 596.0000145929514 429.5779342318853 616.0000151478165 432.4279343109536C636.0000157026815 435.27793439002187 654.00001620206 388.5379330933022 664.0000164794926 376.9879327728676 " transform="rotate(72, 400, 400)"></path><path d="M146.9999864959717 411.7567768389425C156.5833200951779 400.113026515907 173.83332057374906 352.5605251966459 192.9999877721614 355.8667752883721C212.16665497057375 359.17302538009824 219.8333218499387 427.3392772712518 238.99998904835104 427.62677727922795C258.1666562467634 427.9142772872042 265.8333231261284 353.7967752309435 284.9999903245407 357.24677532665777C304.1666575229531 360.696775422372 311.83332440231806 440.8805276469301 330.9999916007304 444.18677773865625C350.1666587991428 447.4930278303824 357.83332567850766 375.7042758387289 376.99999287692003 373.1167757669432C396.1666600753324 370.52927569515754 403.8333269546974 433.92302745390646 422.99999415310975 431.766777394085C442.1666613515221 429.6105273342637 449.83332823088705 365.6417755595624 468.9999954292994 362.7667754798005C488.16666262771173 359.8917754000387 495.83332950707666 417.5355269992639 514.9999967054891 417.96677701122815C534.1666639039015 418.3980270231924 541.8333307832664 362.10552546145533 560.9999979816788 364.8367755372291C580.1666651800912 367.5680256130028 587.8333320594561 428.34552729916845 606.9999992578685 431.0767773749422C626.1666664562807 433.80802745071594 643.4166669348518 389.01552620802624 653.000000534058 377.9467759009431 " transform="rotate(69, 400, 400)"></path><path d="M157.99998641967778 411.2456046674464C167.1666533406576 400.1081043584559 183.6666537984213 354.623103096554 201.99998764038094 357.78560318429203C220.33332148234058 360.9481032720301 227.66665501912445 426.15060508095956 245.9999888610841 426.425605088589C264.33332270304373 426.7006050962184 271.6666562398276 355.8056031293604 289.99999008178725 359.10560322091317C308.3333239237469 362.40560331246587 315.6666574605308 439.1031054403041 333.99999130249046 442.2656055280421C352.3333251444501 445.42810561578017 359.6666586812339 376.76060371072026 377.99999252319355 374.2856036420557C396.3333263651532 371.8106035733912 403.6666599019371 432.4481052556727 421.99999374389677 430.38560519845225C440.3333275858564 428.3231051412318 447.6666611226403 367.1356034436915 465.9999949645999 364.3856033673975C484.3333288065595 361.63560329110356 491.6666623433434 416.77310482079724 509.9999961853031 417.1856048322413C528.3333300272627 417.5981048436854 535.6666635640465 363.7531033498499 553.9999974060063 366.3656034223292C572.3333312479659 368.9781034948084 579.6666647847499 427.1131051076625 597.9999986267094 429.7256051801417C616.3333324686689 432.33810525262095 632.8333329264326 389.49310406396125 641.9999998474125 378.90560377022956 " transform="rotate(66, 400, 400)"></path><path d="M168.99998634338385 410.73444775473934C177.7499865861373 400.1031974597938 193.49998702309355 356.6856962552511 210.9999875086005 359.7044463390011C228.4999879941074 362.723196422751 235.49998818831023 424.9619481494565 252.99998867381714 425.2244481567391C270.49998915932406 425.48694816402167 277.49998935352687 357.8144462865663 294.9999898390338 360.96444637395757C312.4999903245407 364.11444646134885 319.4999905187435 437.3256984924671 336.99999100425043 440.344448576217C354.49999148975735 443.363198659967 361.49999168396016 377.81694684150074 378.9999921694671 375.4544467759573C396.49999265497405 373.0919467104139 403.4999928491768 430.9731983162281 420.9999933346837 429.00444826160856C438.4999938201907 427.035698206989 445.4999940143935 368.6294465866096 462.9999944999004 366.0044465137836C480.4999949854073 363.3794464409575 487.4999951796101 416.01069790111967 504.99999566511707 416.40444791204357C522.4999961506239 416.79819792296746 529.4999963448267 365.40069649703355 546.9999968303338 367.89444656621833C564.4999973158407 370.38819663540306 571.4999975100434 425.88069817494556 588.9999979955503 428.3744482441303C606.4999984810572 430.8681983133151 622.2499989180135 389.9706971786853 630.999999160767 379.86444689830506 " transform="rotate(63, 400, 400)"></path><path d="M179.9999862670899 410.2232832126377C188.33331983161702 400.09828293173723 203.3333202477658 358.7482817845537 219.99998737682003 361.6232818643156C236.66665450587425 364.4982819440774 243.33332135749595 423.7732835885588 259.9999884865502 424.0232835954946C276.6666556156044 424.2732836024304 283.33332246722614 359.8232818143777 299.99998959628033 362.82328189760744C316.6666567253345 365.82328198083724 323.3333235769563 435.54828391523563 339.9999907060105 438.42328399499746C356.6666578350647 441.2982840747593 363.3333246866864 378.8732823428867 379.9999918157406 376.62328228046437C396.6666589447948 374.37328221804205 403.33332579641655 429.4982837473889 419.9999929254708 427.62328369537033C436.666660054525 425.7482836433517 443.3333269061467 370.1232821001332 459.9999940352009 367.6232820307751C476.6666611642551 365.123281961417 483.33332801587676 415.24828335204757 499.99999514493106 415.6232833624513C516.6666622739854 415.998283372855 523.333329125607 367.0482820148227 539.9999962546613 369.42328208071297C556.6666633837156 371.7982821466032 563.3333302353371 424.6482836128341 579.9999973643913 427.02328367872434C596.6666644934455 429.39828374461456 611.6666649095944 390.44828266401487 619.9999984741214 380.82328239698603 " transform="rotate(60, 400, 400)"></path><path d="M190.99998619079594 409.7121148558388C198.9166530770967 400.0933645889834 213.16665347243807 360.81086349915904 228.99998724503956 363.5421135749328C244.83332101764108 366.27336365070653 251.1666545266817 422.58461521296385 266.99998829928325 422.82211521955287C282.8333220718847 423.0596152261419 289.16665558092535 361.83211352749186 304.99998935352687 364.6821136065601C320.83332312612833 367.53211368562836 327.166656635169 433.77086552330684 342.9999904077705 436.5021155990806C358.833324180372 439.2333656748543 365.1666576894126 379.92961402957536 380.9999914620141 377.79211397027416C396.8333252346156 375.65461391097296 403.1666587436563 428.02336536385246 418.99999251625775 426.2421153144348C434.83332628885927 424.4608652650171 441.1666597978999 371.61711379895956 456.99999357050143 369.24211373306935C472.8333273431029 366.8671136671791 479.1666608521435 414.4858649882782 494.99999462474506 414.8421149981617C510.8333283973466 415.19836500804524 517.1666619063872 368.69586371791456 532.9999956789886 370.95211378051033C548.8333294515903 373.20836384310604 555.1666629606309 423.4158652360254 570.9999967332324 425.6721152986211C586.8333305058338 427.92836536121683 601.0833309011753 390.92586433464714 608.9999977874759 381.78211408096973 " transform="rotate(57, 400, 400)"></path><path d="M201.999986114502 409.2009503137372C209.49998632257638 400.0884500609268 222.99998669711033 362.8734490284616 237.99998711325912 365.46094910024726C252.99998752940792 368.048449172033 258.99998769586745 421.3959506520662 273.99998811201624 421.6209506583084C288.9999885281651 421.8459506645506 294.99998869462456 363.8409490553032 309.9999891107734 366.54094913021004C324.9999895269222 369.2409492051168 330.99998969338174 431.9934509460753 345.99999010953053 434.580951017861C360.9999905256793 437.1684510896467 366.9999906921388 380.9859495309613 381.99999110828765 378.9609494747812C396.99999152443644 376.9359494186011 402.99999169089597 426.5484507950133 417.99999210704476 424.86095074819656C432.99999252319355 423.1734507013798 438.99999268965314 373.11094931248317 453.99999310580193 370.86094925006086C468.9999935219507 368.61094918763854 474.9999936884102 413.7234504392061 489.99999410455905 414.06095044856943C504.9999945207079 414.39845045793277 510.9999946871674 370.3434492357037 525.9999951033162 372.48094929500496C540.9999955194651 374.6184493543061 546.9999956859245 422.18345067391397 561.9999961020733 424.3209507332152C576.9999965182221 426.45845079251643 590.499996892756 391.40344981997663 597.9999971008303 382.7409495796507 " transform="rotate(54, 400, 400)"></path><path d="M212.99998603820805 408.68979721572737C220.08331956805608 400.083546976962 232.8333199217826 364.936046001856 246.99998698147868 367.3797960696536C261.16665404117475 369.82354613745116 266.8333208650532 420.2072975352603 280.9999879247493 420.41979754115573C295.16665498444536 420.63229754705117 300.83332180832383 365.8497960272064 314.99998886801995 368.3997960979517C329.166655927716 370.949796168697 334.83332275159444 430.2160478129356 348.99998981129056 432.6597978807332C363.1666568709866 435.1035479485308 368.83332369486504 382.04229647643905 382.99999075456117 380.12979642338007C397.16665781425723 378.2172963703211 402.8333246381357 425.07354767026595 416.9999916978318 423.47979762605013C431.1666587575279 421.8860475818343 436.8333255814063 374.6047962700986 450.99999264110244 372.47979621114416C465.1666597007985 370.35479615218975 470.8333265246769 412.9610473342258 484.99999358437304 413.27979734306894C499.16666064406917 413.5985473519121 504.8333274679476 371.99104619758464 518.9999945276437 374.00979625359133C533.1666615873398 376.028546309598 538.8333284112182 420.9510475558944 552.9999954709143 422.9697976119011C567.1666625306103 424.98854766790777 579.9166628843368 391.88104674939797 586.9999964141849 383.69979652242347 " transform="rotate(51, 400, 400)"></path><path d="M223.9999859619141 408.17862504423124C230.6666528135358 400.0786248195109 242.66665314645485 366.99862390176406 255.99998684969822 369.29862396557354C269.3333205529416 371.598624029383 274.66665403423895 419.01862534496814 287.99998773748234 419.2186253505168C301.3333214407257 419.41862535606543 306.6666549220231 367.85862392562325 319.99998862526644 370.25862399220705C333.33332232850984 372.6586240587909 338.6666558098072 428.4386256063096 351.99998951305054 430.73862567011906C365.33332321629393 433.03862573392854 370.6666566975913 383.09862434843046 383.9999904008347 381.2986242984926C397.3333241040781 379.49862424855473 402.66665758537545 423.5986254720322 415.99999128861884 422.0986254304173C429.3333249918621 420.5986253888025 434.66665847315954 376.09862415422765 447.9999921764029 374.0986240987412C461.3333258796463 372.09862404325463 466.6666593609436 412.19862515575915 479.99999306418704 412.4986251640821C493.33332676743044 412.7986251724051 498.6666602487278 373.63862408597925 511.99999395197113 375.53862413869143C525.3333276552146 377.4386241914036 530.666661136512 419.7186253643884 543.9999948397553 421.6186254171006C557.3333285429986 423.5186254698128 569.3333288759177 392.358624605333 575.9999957275394 384.6586243917099 " transform="rotate(48, 400, 400)"></path><path d="M234.99998588562016 407.66746050212964C241.2499860590155 400.0737102914543 252.49998637112708 369.06120943106663 264.99998671791775 371.217459490888C277.4999870647084 373.37370955070946 282.49998720342467 417.82996078407047 294.99998755021534 418.0174607892723C307.499987897006 418.2049607944742 312.4999880357223 369.86745945343466 324.999988382513 372.117459515857C337.49998872930365 374.3674595782793 342.49998886801995 426.66121102907806 354.9999892148106 428.81746108889945C367.4999895616013 430.97371114872084 372.49998970031754 384.1549598498164 384.9999900471082 382.46745980299966C397.4999903938989 380.7799597561829 402.49999053261513 422.12371090319306 414.9999908794058 420.7174608641791C427.49999122619647 419.3112108251652 432.4999913649127 377.5924596677513 444.9999917117034 375.7174596157327C457.49999205849406 373.8424595637141 462.4999921972103 411.43621060668704 474.999992544001 411.7174606144898C487.4999928907917 411.9987106222926 492.49999302950795 375.2862096037684 504.9999933762987 377.06745965318606C517.4999937230893 378.84870970260374 522.4999938618056 418.48621080227696 534.9999942085963 420.26746085169464C547.4999945553868 422.0487109011123 558.7499948674986 392.8362100906625 564.9999950408939 385.6174598903909 " transform="rotate(45, 400, 400)"></path><path d="M245.9999858093262 407.1562978673767C251.83331930449518 400.06879767074633 262.33331959579937 371.1237968677179 273.9999865861373 373.1362969235512C285.66665357647526 375.1487969793845 290.33332037261044 416.6412981305214 301.9999873629484 416.8162981353765C313.6666543532864 416.99129814023155 318.3333211494216 371.87629688859465 329.9999881397595 373.9762969468555C341.66665513009747 376.0762970051163 346.33332192623266 424.88379835919517 357.9999889165706 426.89629841502847C369.66665590690855 428.9087984708618 374.3333227030438 385.211297258551 385.99998969338174 383.63629721485535C397.6666566837197 382.0612971711597 402.3333234798548 420.6487982417025 413.9999904701928 419.3362982052895C425.6666574605308 418.02379816887645 430.33332425666595 379.08629708862355 441.99999124700395 377.33629704007285C453.66665823734184 375.58629699152215 458.3333250334771 410.67379796496357 469.999992023815 410.93629797224617C481.66665901415297 411.19879797952876 486.33332581028816 376.93379702890616 497.99999280062616 378.5962970750293C509.6666597909641 380.2587971211525 514.3333265870992 417.25379814751415 525.9999935774372 418.9162981936373C537.6666605677751 420.5787982397605 548.1666608590793 393.3137974833407 553.9999943542483 386.5762972964205 " transform="rotate(42, 400, 400)"></path><path d="M256.99998573303225 406.64513523262366C262.41665254997486 400.0638850500384 272.1666528204716 373.1863843043691 282.9999864543569 375.0551343562143C293.8333200882421 376.9238844080595 298.1666535417962 415.4526354769724 308.99998717568144 415.61513548148065C319.83332080956666 415.7776354859889 324.1666542631208 373.8851343237547 334.999987897006 375.83513437785405C345.8333215308913 377.7851344319534 350.1666549844454 423.10638568931233 360.99998861833063 424.97513574115754C371.8333222522159 426.84388579300276 376.16665570577 386.2676346672855 386.99998933965526 384.80513462671104C397.8333229735405 383.3426345861365 402.1666564270946 419.17388558021196 412.9999900609798 417.9551355463999C423.83332369486504 416.7363855125878 428.1666571484192 380.5801345094958 438.9999907823044 378.955134464413C449.83332441618967 377.3301344193302 454.16665786974374 409.9113853232401 464.999991503629 410.1551353300025C475.8333251375143 410.3988853367649 480.1666585910683 378.5813844540439 490.99999222495364 380.1251344968726C501.83332585883886 381.66888453970125 506.166659312393 416.0213854927514 516.9999929462782 417.56513553558C527.8333265801634 419.10888557840866 537.5833268506601 393.7913848760188 542.9999936676028 387.53513470245014 " transform="rotate(39, 400, 400)"></path><path d="M267.9999856567383 406.13396878317343C272.99998579545456 400.05896861463316 281.9999860451438 375.2489679263231 291.99998632257643 376.97396797418014C301.9999866000089 378.69896802203726 305.99998671098194 414.2639690087261 315.9999869884145 414.4139690128876C325.99998726584704 414.5639690170491 329.99998737682006 375.8939679442174 339.99998765425255 377.6939679941553C349.9999879316851 379.49396804409315 353.9999880426581 421.3289692047322 363.99998832009067 423.0539692525893C373.9999885975232 424.7789693004464 377.9999887084962 387.3239682613228 387.9999889859287 385.97396822386946C397.9999892633613 384.62396818641605 401.9999893743343 417.6989691040242 411.99998965176684 416.573969072813C421.9999899291994 415.44896904160186 425.9999900401724 382.07396811567077 435.9999903176049 380.57396807405587C445.99999059503745 379.073968032441 449.99999070601046 409.14896886681936 459.999990983443 409.3739688730616C469.99999126087556 409.5989688793038 473.9999913718486 380.22896806448443 483.9999916492811 381.6539681040186C493.9999919267137 383.07896814355274 497.99999203768664 414.7889690232913 507.9999923151192 416.2139690628254C517.9999925925517 417.63896910235957 526.999992842241 394.2689684539997 531.9999929809572 388.4939682937825 " transform="rotate(36, 400, 400)"></path><path d="M279.0000008392334 405.62280614842047C283.58333429972333 400.0540559939252 291.8333345286052 377.3115553629743 301.000001449585 378.8928054068433C310.1666683705648 380.4740554507123 313.8333351389567 413.0753063551771 323.0000020599366 413.21280635899177C332.16666898091637 413.35030636280646 335.83333574930833 377.90280537937747 345.00000267028815 379.55280542515385C354.166669591268 381.20280547093023 357.83333635965994 419.5515565348493 367.00000328063976 421.1328065787183C376.1666702016196 422.71405662258735 379.8333369700115 388.3803056700574 389.0000038909913 387.14280563572515C398.16667081197113 385.90530560139285 401.8333375803631 416.22405644253365 411.0000045013429 415.1928064139234C420.16667142232274 414.1615563853132 423.8333381907147 383.567805536543 433.00000511169446 382.192805498396C442.1666720326743 380.8178054602491 445.83333880106625 408.3865562250959 455.00000572204607 408.5928062308179C464.1666726430259 408.79905623653997 467.8333394114178 381.8765554896222 477.0000063323977 383.18280552586185C486.1666732533775 384.4890555621015 489.83334002176946 413.5565563685285 499.0000069427492 414.8628064047681C508.166673863729 416.16905644100774 516.4166740926108 394.7465558466779 521.0000075531008 389.4528056998121 " transform="rotate(33, 400, 400)"></path><path d="M290.00000076293946 405.11163969897024C294.16666754520304 400.04913955852 301.66666775327747 379.3741389849282 310.00000131780456 380.81163902480915C318.33333488233166 382.2491390646901 321.6666683081425 411.88663988693077 330.0000018726696 412.01163989039867C338.33333543719675 412.1366398938666 341.6666688630076 379.9116389998402 350.0000024275347 381.4116390414551C358.3333359920618 382.91163908307 361.66666941787264 417.7741400502692 370.0000029823998 419.21164009015007C378.3333365469269 420.649140130031 381.66666997273774 389.4366392640947 390.00000353726483 388.3116392328835C398.3333371017919 387.1866392016724 401.66667052760283 414.7491399663458 410.0000040921299 413.81163994033653C418.333337656657 412.8741399143272 421.6666710824679 385.061639142718 430.00000464699497 383.8116391080389C438.3333382115221 382.56163907335986 441.6666716373329 407.62413976867515 450.00000520186006 407.811639773877C458.3333387663872 407.99913977907886 461.666672192198 383.5241391000627 470.00000575672516 384.71163913300785C478.3333393212523 385.89913916595293 481.6666727470631 412.3241398990684 490.0000063115902 413.51163993201357C498.3333398761173 414.69913996495865 505.8333400841917 395.2241394246588 510.00000686645524 390.4116392911444 " transform="rotate(30, 400, 400)"></path><path d="M301.00000068664554 404.6004770642172C304.75000079068275 400.044226937812 311.5000009779497 381.43672642157946 319.00000118602406 382.73047645747226C326.5000013940985 384.0242264933651 329.5000014773283 410.6979772333817 337.00000168540265 410.81047723650283C344.5000018934771 410.92297723962395 347.5000019767068 381.92047643500024 355.00000218478124 383.27047647245365C362.50000239285566 384.620476509907 365.5000024760854 415.9967273803863 373.00000268415977 417.29047741627915C380.5000028922342 418.58422745217194 383.50000297546393 390.4929766728293 391.00000318353835 389.48047664473927C398.5000033916127 388.4679766166492 401.5000034748425 413.2742273048553 409.00000368291694 412.43047728144694C416.5000038909913 411.58672725803854 419.5000039742211 386.5554765635902 427.00000418229547 385.4304765323791C434.5000043903699 384.3054765011679 437.50000447359963 406.8617271269517 445.00000468167406 407.03047713163335C452.5000048897485 407.199227136315 455.5000049729782 385.1717265252005 463.00000518105264 386.2404765548511C470.50000538912707 387.3092265845017 473.5000054723568 411.0917272443056 481.0000056804312 412.16047727395625C488.5000058885056 413.2292273036068 495.25000607577255 395.701726817337 499.0000061798097 391.370476697174 " transform="rotate(27, 400, 400)"></path><path d="M312.00000061035155 404.08931347578994C315.33333403616246 400.03931336342976 321.3333342026219 383.49931290455635 328.0000010542436 384.6493129364611C334.6666679058653 385.7993129683658 337.333334646514 409.50931362615836 344.0000014981357 409.6093136289327C350.6666683497574 409.709313631707 353.3333350904061 383.92931291648597 360.0000019420278 385.12931294977784C366.6666687936495 386.32931298306977 369.33333553429816 414.2193137568291 376.0000023859198 415.36931378873385C382.6666692375415 416.5193138206386 385.3333359781902 391.54931312788955 392.0000028298119 390.6493131029206C398.6666696814336 389.7493130779517 401.33333642208225 411.79931368969045 408.00000327370395 411.049313668883C414.6666701253256 410.29931364807555 417.3333368659743 388.04931303078814 424.000003717596 387.0493130030449C430.6666705692177 386.04931297530163 433.33333730986635 406.0993135315539 440.00000416148805 406.2493135357154C446.66667101310975 406.39931353987686 449.3333377537584 386.81931299666394 456.0000046053801 387.76931302302006C462.6666714570018 388.7193130493761 465.3333381976505 409.8593136358685 472.0000050492722 410.8093136622246C478.66667190089385 411.7593136885807 484.6666720673534 396.17931325634083 488.0000054931642 392.3293131495293 " transform="rotate(24, 400, 400)"></path><path d="M323.0000005340576 403.57814893368834C325.9166672816421 400.03439883537317 331.1666674272942 385.5618984338589 337.0000009224632 386.5681484617756C342.83333441763216 387.5743984896922 345.1666678156997 408.3206490652607 351.0000013108687 408.4081490676882C356.8333348060377 408.49564907011575 359.16666820410535 385.9381484442973 365.0000016992743 386.98814847342777C370.8333351944433 388.03814850255816 373.16666859251086 412.4418991795976 379.00000208767983 413.44814920751423C384.8333355828488 414.4543992354309 387.1666689809164 392.6056486292755 393.0000024760854 391.81814860742764C398.83333597125437 391.03064858557985 401.16666936932194 410.32439912085124 407.00000286449097 409.66814910264475C412.83333635965994 409.01189908443826 415.1666697577275 389.54314854431175 421.0000032528965 388.6681485200364C426.83333674806545 387.7931484957611 429.1666701461331 405.3368989824818 435.00000364130204 405.4681489861231C440.833337136471 405.5993989897644 443.16667053453864 388.4668985144531 449.0000040297076 389.2981485375147C454.8333375248766 390.12939856057625 457.16667092294415 408.6268990737571 463.0000044181131 409.45814909681866C468.8333379132821 410.2893991198803 474.0833380589342 396.6568987416703 477.0000048065187 393.28814864821027 " transform="rotate(21, 400, 400)"></path><path d="M334.0000004577637 403.0669834379124C336.5000005271218 400.02948335364226 341.00000065196645 387.6244830094872 346.00000079068275 388.48698303341575C351.000000929399 389.34948305734434 353.0000009848855 407.13198355068874 358.0000011236018 407.2069835527695C363.00000126231805 407.2819835548502 365.00000131780456 387.9469830184344 370.0000014565208 388.8469830434033C375.0000015952371 389.7469830683723 377.00000165072356 410.66448364869177 382.00000178943986 411.5269836726203C387.00000192815617 412.3894836965489 389.0000019836426 393.6619831769871 394.00000212235886 392.9869831582604C399.00000226107517 392.3119831395337 401.0000023165617 408.84948359833777 406.0000024552779 408.2869835827322C411.0000025939942 407.7244835671266 413.00000264948073 391.03698310416104 418.000002788197 390.2869830833536C423.0000029269132 389.5369830625462 425.0000029823998 404.57448347973536 430.00000312111604 404.6869834828565C435.0000032598323 404.7994834859776 437.00000331531885 390.1144830785679 442.0000034540351 390.82698309833495C447.00000359275134 391.53948311810205 449.00000364823785 407.39448355797134 454.00000378695415 408.1069835777384C459.0000039256704 408.8194835975055 463.50000405051503 397.13448327332554 466.00000411987315 394.2469831932169 " transform="rotate(18, 400, 400)"></path><path d="M344.99999656677244 402.5558208031594C347.08332995790425 400.0245707329343 350.83333006194147 389.6870704461384 354.99999684420504 390.4058204660789C359.16666362646856 391.12457048601937 360.833330339374 405.9433208971397 364.99999712163753 406.00582089887365C369.1666639039011 406.0683209006076 370.8333306168065 389.9558204535944 374.9999973990701 390.7058204744019C379.16666418133366 391.4558204952093 380.83333089423905 408.8870709788089 384.99999767650263 409.6058209987494C389.16666445876615 410.3245710186898 390.8333311716716 394.7183205857217 394.9999979539351 394.1558205701161C399.1666647361987 393.5933205545105 400.83333144910415 407.37457093684725 404.9999982313677 406.90582092384255C409.16666501363125 406.4370709108379 410.8333317265367 392.5308205250333 414.9999985088002 391.90582050769376C419.1666652910638 391.28082049035424 420.8333320039692 403.8120708380119 424.99999878623277 403.9058208406128C429.16666556849634 403.99957084321375 430.83333228140174 391.7620705037057 434.9999990636653 392.3558205201782C439.1666658459289 392.9495705366508 440.8333325588343 406.16207090320853 444.9999993410978 406.75582091968107C449.1666661233614 407.34957093615367 452.9166662273986 397.6120706660037 454.99999961853035 395.2058205992465 " transform="rotate(15, 400, 400)"></path><path d="M355.9999964904785 402.0446562610578C357.66666320338396 400.0196562048777 360.6666632866137 391.749655975441 363.99999671242455 392.3246559913934C367.3333301382354 392.89965600734575 368.66666350855974 404.754656336242 371.9999969343706 404.8046563376292C375.33333036018144 404.85465633901634 376.6666637305058 391.9646559814058 379.9999971563166 392.56465599805176C383.3333305821275 393.1646560146977 384.6666639524518 407.1096564015774 387.9999973782626 407.68465641752977C391.3333308040735 408.2596564334821 392.66666417439785 395.7746560871076 395.99999760020864 395.32465607462314C399.33333102601955 394.8746560621387 400.6666643963439 405.89965636800804 403.9999978221547 405.52465635760433C407.33333124796553 405.1496563472006 408.6666646182899 394.02465603855694 411.9999980441007 393.52465602468527C415.33333146991157 393.02465601081366 416.6666648402359 403.0496562889398 419.99999826604676 403.12465629102053C423.3333316918576 403.19965629310127 424.66666506218195 393.4096560214948 427.9999984879928 393.88465603467284C431.33333191380365 394.3596560478509 432.666665284128 404.9296563410971 435.99999870993884 405.4046563542752C439.33333213574963 405.8796563674532 442.3333322189794 398.08965615133326 443.9999989318849 396.1646560979275 " transform="rotate(12, 400, 400)"></path><path d="M366.9999964141846 401.53349362630485C368.2499964488636 400.01474358416976 370.499996511286 393.81224341209224 372.9999965806441 394.2434934240565C375.49999665000223 394.6747434360208 376.49999667774546 403.565993682693 378.99999674710364 403.60349368373335C381.49999681646176 403.6409936847737 382.49999684420504 393.9734934165658 384.9999969135631 394.4234934290503C387.4999969829213 394.8734934415348 388.4999970106645 405.3322437316945 390.9999970800227 405.7634937436588C393.4999971493808 406.1947437556231 394.49999717712404 396.83099349584216 396.99999724648217 396.4934934864788C399.49999731584035 396.1559934771155 400.4999973435836 404.4247437065175 402.9999974129417 404.14349369871474C405.4999974822998 403.86224369091195 406.4999975100431 395.5184934594292 408.9999975794012 395.1434934490254C411.49999764875935 394.7684934386217 412.49999767650263 402.2872436472163 414.99999774586075 402.34349364877687C417.4999978152189 402.3997436503374 418.49999784296216 395.0572434466326 420.9999979123203 395.4134934565161C423.4999979816784 395.76974346639963 424.4999980094217 403.6972436863343 426.9999980787798 404.05349369621786C429.49999814813793 404.4097437061014 431.74999821056025 398.5672435440114 432.99999824523934 397.1234935039571 " transform="rotate(9, 400, 400)"></path><path d="M378.0000001525879 401.02232717685456C378.8333335090406 400.00982714876454 380.3333335506555 395.8748270340462 382.0000002635609 396.16232704202235C383.66666697646633 396.4498270499986 384.3333336616285 402.3773272144467 386.0000003745339 402.4023272151403C387.66666708743935 402.4273272158339 388.3333337726015 395.9823270370286 390.0000004855069 396.28232704535156C391.66666719841237 396.58232705367453 392.33333388357454 403.55482724711436 394.00000059647994 403.8423272550906C395.6666673093854 404.1298272630668 396.33333399454756 397.8873270898795 398.00000070745295 397.66232708363725C399.6666674203584 397.437327077395 400.3333341055206 402.94982723032973 402.000000818426 402.7623272251278C403.6666675313314 402.57482721992596 404.33333421649354 397.01232706560415 406.000000929399 396.76232705866835C407.66666764230445 396.51232705173254 408.33333432746656 401.5248271907956 410.000001040372 401.56232719183595C411.66666775327747 401.5998271928763 412.3333344384396 396.7048270570731 414.00000115134503 396.9423270636621C415.6666678642505 397.1798270702511 416.3333345494126 402.46482721687426 418.00000126231805 402.70232722346327C419.66666797522345 402.9398272300523 421.16666801683834 399.0448271219923 422.00000137329107 398.08232709528943 " transform="rotate(6, 400, 400)"></path><path d="M389.00000007629393 400.5111645421016C389.4166667545203 400.0049145280566 390.1666667753277 397.93741447069743 391.00000013178044 398.0811644746855C391.83333348823317 398.2249144786736 392.1666668308143 401.1886645608977 393.00000018726695 401.20116456124447C393.8333335437197 401.21366456159126 394.16666688630073 397.99116447218864 395.00000024275346 398.1411644763501C395.8333335992062 398.2911644805116 396.1666669417873 401.7774145772315 397.00000029823997 401.9211645812196C397.8333336546927 402.0649145852077 398.16666699727375 398.94366449861405 399.0000003537265 398.83116449549294C399.8333337101792 398.71866449237183 400.16666705276026 401.47491456883915 401.000000409213 401.3811645662382C401.8333337656657 401.2874145636373 402.16666710824677 398.5061644864764 403.0000004646995 398.3811644830085C403.8333338211522 398.2561644795406 404.1666671637333 400.7624145490721 405.000000520186 400.7811645495923C405.83333387663873 400.7999145501125 406.1666672192198 398.35241448221086 407.0000005756725 398.47116448550537C407.83333393212524 398.5899144887999 408.1666672747063 401.23241456211144 409.000000631159 401.35116456540595C409.8333339876117 401.46991456870046 410.5833340084192 399.52241451467046 411.00000068664554 399.04116450131903 " transform="rotate(3, 400, 400)"></path></g></svg>